<svg id="レイヤー_1" data-name="レイヤー 1" xmlns="http://www.w3.org/2000/svg" viewBox="0 0 931 1164.64"><defs><style>.cls-1{fill:#a3a3a3;}.cls-2{fill:none;stroke:#707070;}.cls-3{fill:#71976b;}.cls-4{isolation:isolate;}</style></defs><g id="グループ_71" data-name="グループ 71"><g id="長方形_144" data-name="長方形 144"><rect class="cls-1" width="373" height="266"/><rect class="cls-2" x="0.5" y="0.5" width="372" height="265"/></g><g id="合体_1" data-name="合体 1"><path class="cls-3" d="M971.29,149.29V133.94h-53V107h53V91.6l30.8,28.84Z" transform="translate(-494.82 12.56)"/><path class="cls-3" d="M971.79,148.14l29.57-27.7L971.79,92.75v14.7h-53v26h53v14.7m-1,2.3v-16h-53v-28h53v-16l32,30Z" transform="translate(-494.82 12.56)"/></g><g id="長方形_145" data-name="長方形 145"><rect class="cls-1" x="558" width="373" height="266"/><rect class="cls-2" x="558.5" y="0.5" width="372" height="265"/></g><g id="合体_2" data-name="合体 2"><path class="cls-3" d="M1192,363.7h26.31V321.94h48V363.7h26.31l-50.31,24.19Z" transform="translate(-494.82 12.56)"/><path class="cls-3" d="M1194.21,364.2l48.11,23.14,48.11-23.14h-24.61V322.44h-47V364.2h-24.61m-4.39-1h28V321.44h49V363.2h28l-52.5,25.25Z" transform="translate(-494.82 12.56)"/></g><g id="長方形_147" data-name="長方形 147"><rect class="cls-1" x="558" y="434.5" width="373" height="266"/><rect class="cls-2" x="558.5" y="435" width="372" height="265"/></g><g id="長方形_148" data-name="長方形 148"><rect class="cls-1" y="434.5" width="373" height="266"/><rect class="cls-2" x="0.5" y="435" width="372" height="265"/></g><g id="合体_3" data-name="合体 3"><path class="cls-3" d="M949.35,526.1v15.35h53v27h-53v15.35l-30.8-28.85Z" transform="translate(-494.82 12.56)"/><path class="cls-3" d="M948.85,527.25l-29.57,27.69,29.57,27.7v-14.7h53V542h-53v-14.7m1-2.3v16h53v28h-53v16l-32-30Z" transform="translate(-494.82 12.56)"/></g><g id="施工前" class="cls-4"><g class="cls-4"><path d="M657.62,268.62c.28-.4.56-.8.84-1.18.64.52.84.7,1.46,1.26a.47.47,0,0,1,.14.26c0,.08-.08.12-.22.12h-3.6c0,1.46,0,1.56-.12,2.84H658l.66-.76a12.13,12.13,0,0,1,1.12.94c.1.14.14.2.14.28s0,.12-.52.44a37.42,37.42,0,0,1-1,7.91c-.34,1.2-.84,1.55-2.36,1.66-.1-.91-.18-1-1.66-1.41l0-.24c1.22.14,1.78.18,2.1.18.48,0,.54-.14.9-1.84a39.87,39.87,0,0,0,.64-6.7h-2a23.35,23.35,0,0,1-.58,4.16,13.1,13.1,0,0,1-3,6.13l-.32-.23A12.23,12.23,0,0,0,654,278a35.63,35.63,0,0,0,.88-9h-.8l-.86.06c-.08,0-.22,0-.42,0l-.16-.72a11,11,0,0,0,1.44.16h1.24v-2.28c0-.42,0-.76-.08-1.46a12.16,12.16,0,0,1,2.1.38.4.4,0,0,1,.16.16v0l-.1.16s-.12.08-.26.12l-.42.12v2.78Zm10.18-.4c.48-.66.64-.84,1.18-1.48a23.76,23.76,0,0,1,1.84,1.66.32.32,0,0,1,.06.16c0,.08-.08.12-.18.12h-9a11.4,11.4,0,0,1-2.22,2.74l-.24-.14a23.36,23.36,0,0,0,2.62-6.56c.4.1.74.2.94.24,1,.24,1.22.36,1.22.54s-.16.24-.86.36a21.51,21.51,0,0,1-1.2,2.36Zm.24,4.18a11.48,11.48,0,0,1,.72-1.1,12.49,12.49,0,0,1,1.28.62c.16.08.22.14.22.22a.27.27,0,0,1-.12.2c-.06,0-.16.14-.28.24a3.45,3.45,0,0,0-.42.34,40.1,40.1,0,0,1-.18,4.58c-.1,1-.4,1.28-1.64,1.62-.28-1-.48-1.2-1.5-1.36l0,1.6c0,.32-.1.36-.66.4a1.54,1.54,0,0,0-.38,0h-.06c-.18,0-.28-.08-.28-.24l0,0c0-2.38,0-2.72,0-3.88,0-.24,0-.9,0-2l-2,.52v6.59c0,.35.12.47.52.5h.46a6,6,0,0,0,.8,0c1.76,0,4,0,4.24-.07s.44-.12.56-.55.54-2.09.84-3.51l.32,0-.08,3.16,0,.31v.12c0,.17,0,.17.38.38a.57.57,0,0,1,.35.5c0,.66-.77.78-4.83.78-2.86,0-3.88-.08-4.36-.31-.28-.14-.4-.39-.46-1v-.55l0-2v-4.16l-.16,0a5.35,5.35,0,0,0-1.34.56l-.36-.7c.72-.1,1.18-.18,1.6-.28l.26-.06v-2a17.82,17.82,0,0,0-.12-1.84c1.8.22,2.18.32,2.18.54s-.2.3-.8.52v2.44l2-.5a25.63,25.63,0,0,0-.14-3.84c1.58.18,2.06.28,2.06.5s-.14.24-.66.46c0,.58,0,.86,0,1.28v.74a3.15,3.15,0,0,1,0,.54Zm-2,.9c0,1.48,0,2.88,0,4.2.44,0,.44,0,1.08.06a3,3,0,0,1,.4,0h.1c.26,0,.32-.1.38-.56,0-.64.1-2.4.1-3.84v-.42Z" transform="translate(-494.82 12.56)"/><path d="M682.38,280.44h5.3A17.53,17.53,0,0,1,689,278.8c.92.76,1.18,1,2.06,1.8,0,.09.09.14.09.18s-.09.12-.25.12l-15.46,0c-1.84,0-1.84,0-2.48.1l-.1-.78a11.83,11.83,0,0,0,2.58.2H681v-12.8h-4.8a12.53,12.53,0,0,0-1.92.12l-.16-.76a12,12,0,0,0,2.08.18h10.5c.56-.66.74-.84,1.28-1.44a21.22,21.22,0,0,1,1.88,1.7.18.18,0,0,1,.06.1c0,.06-.08.1-.2.1h-7.3Z" transform="translate(-494.82 12.56)"/><path d="M708,268.08c.54-.64.72-.84,1.28-1.46.78.68,1,.9,1.82,1.66a.22.22,0,0,1,.09.16c0,.06,0,.1-.15.1H695.4a12.31,12.31,0,0,0-2.38.14l-.14-.76a12.85,12.85,0,0,0,2.52.16H703a13.8,13.8,0,0,0,.84-1.42,7.43,7.43,0,0,0,.8-2.12c1.44.42,2.22.74,2.22.92s-.18.26-1,.36a16.73,16.73,0,0,1-2.34,2.26ZM695.84,277v.32c0,.28,0,.94,0,1.84,0,1.16,0,1.32,0,2.91,0,.18-.1.23-.24.27a7.45,7.45,0,0,1-.94.08c-.18,0-.24-.05-.28-.21,0-1.5.08-5.49.08-8.65,0-1.92,0-2.72-.08-3.86a15.64,15.64,0,0,1,1.62.86h3.64c.3-.38.4-.5.72-.86a11.3,11.3,0,0,1,1.28,1c.08.12.12.16.12.2s-.14.2-.66.48V276c0,.16,0,3.32.06,4.88V281c0,.8-.36,1-2.18,1.53-.14-1-.48-1.27-2.14-1.57l0-.24c.38,0,.7,0,.9.07,1.12.09,1.26.09,1.86.13h.08c.08,0,.1,0,.1-.2V277Zm4-6h-4v2.44h4Zm0,2.9h-4v2.62h4Zm-2.6-9.34c1.86,1,2.54,1.56,2.54,2.18s-.38,1.18-.68,1.18-.26-.08-.4-.46a10.22,10.22,0,0,0-1.64-2.64Zm8.36,6.22c0,.12-.22.28-.62.44v1.54c0,2,0,5,0,5.84,0,.26-.14.32-.7.36-.18,0-.32,0-.4,0h-.06c-.14,0-.22-.08-.22-.24,0-2.26.06-3.76.06-6.28,0-.6,0-1.2-.1-2.18C705.08,270.54,705.6,270.66,705.6,270.82Zm2.24,1.2a14.05,14.05,0,0,0-.14-2.3c1.58.22,2.2.38,2.2.54s-.24.3-.76.46V275c0,4.28,0,4.28.08,5.9a1.12,1.12,0,0,1-.68,1.08,5.1,5.1,0,0,1-1.62.57c-.28-1.2-.28-1.2-3-1.65v-.3c.36,0,.64,0,.82,0,1.94.12,2.1.13,3,.13.12,0,.14-.08.14-.18Z" transform="translate(-494.82 12.56)"/></g></g><g id="法面清掃" class="cls-4"><g class="cls-4"><path d="M1203.34,269.38a8.49,8.49,0,0,1,2.52,1.16,1.22,1.22,0,0,1,.62,1.1c0,.6-.3,1.18-.6,1.18-.14,0-.24-.1-.44-.42a14.82,14.82,0,0,0-2.22-2.8Zm.06,7.28c.8.16,1.3.26,1.44.26.3,0,.44-.24,1.32-2.18.74-1.66.76-1.7,2.14-4.66.64-1.36.64-1.36.94-2.06l.28.08-3.12,8.9a5,5,0,0,0-.28,1.12,2.69,2.69,0,0,0,.16.74,6.37,6.37,0,0,1,.36,1.92,1.71,1.71,0,0,1-1.52,1.7.38.38,0,0,1-.4-.39,4.68,4.68,0,0,1,.08-.66,12.08,12.08,0,0,0,.3-2.49c0-1.08-.4-1.52-1.74-1.94Zm1.26-11.44c2.44.9,3.1,1.36,3.1,2.14,0,.54-.28,1.08-.54,1.08s-.26-.1-.46-.36a17,17,0,0,0-2.24-2.66Zm13.76,8.64,1.32-1.38c.82.6,1.06.8,1.87,1.48.1.1.14.16.14.22s-.08.14-.21.14h-6.86a43.67,43.67,0,0,1-3.42,5.8c5.26-.3,5.26-.3,6.84-.46a32.21,32.21,0,0,0-2.46-3.5l.18-.14a32,32,0,0,1,3.48,3c.86.92,1.08,1.26,1.08,1.74,0,.72-.34,1.52-.66,1.52s-.34-.13-1.1-1.7l-.26-.52a46.13,46.13,0,0,1-4.72.92c-2.58.42-3,.5-4.4.75-.12.71-.2.9-.34.9s-.36-.52-.74-2.45h.84c.38,0,.38,0,1.74-.06.4-.82.58-1.24,1.22-2.84a17.13,17.13,0,0,0,1-3h-3.2a11.68,11.68,0,0,0-1.62.12l-.14-.74a8.6,8.6,0,0,0,1.76.16h3.62v-4.24h-2.48a6.5,6.5,0,0,0-1.14.08l-.16-.68a6.32,6.32,0,0,0,1.32.14h2.46V267a13.11,13.11,0,0,0-.14-2.14c2,.2,2.4.28,2.4.52s0,.18-.9.52v3.24h2.92c.54-.62.7-.82,1.22-1.38.84.62,1.08.84,1.86,1.5.08.1.12.16.12.2s-.09.14-.22.14h-5.9v4.24Z" transform="translate(-494.82 12.56)"/><path d="M1233.1,266.26a19,19,0,0,1-2.2,3.7h7.44c.34-.42.46-.56.82-1,.63.42.8.56,1.34,1,.14.12.21.18.21.24s-.18.3-.65.6c0,7.86,0,7.86,0,11.63a.29.29,0,0,1-.12.26,4.49,4.49,0,0,1-1.1.12c-.2,0-.28-.07-.28-.22v-1h-12.72v1c0,.14-.06.18-.2.22a4.24,4.24,0,0,1-.84.08c-.38,0-.44,0-.44-.22v-.08c.08-5.55.08-6.09.08-6.87,0-5.76,0-5.76-.08-6.74a16.9,16.9,0,0,1,1.78,1h4.16a18.45,18.45,0,0,0,.84-3.7h-5.3a23.83,23.83,0,0,0-2.6.1l-.14-.76a13.57,13.57,0,0,0,2.74.2h12.34c.54-.68.72-.88,1.3-1.52a26.42,26.42,0,0,1,2.06,1.72c.06.06.09.1.09.14s-.09.12-.25.12Zm-7.22,4.16v10.74h3.06V270.42Zm8,3.06v-3.06h-3.7v3.06Zm-3.7,3.7h3.7v-3.24h-3.7Zm0,4h3.7v-3.52h-3.7Zm5,0h3.36V270.42h-3.36Z" transform="translate(-494.82 12.56)"/><path d="M1243.3,269.42a15.81,15.81,0,0,1,2.18.9c.56.3.84.64.84,1a2.74,2.74,0,0,1-.26,1,.45.45,0,0,1-.34.22c-.14,0-.26-.1-.44-.44s-.66-1-.84-1.24a11.77,11.77,0,0,0-1.26-1.32Zm.16,7.2a8.35,8.35,0,0,0,1.12.16c.16,0,.18,0,.38-.38.58-1,2.74-5.66,3.62-7.84l.28.1-2.7,8a4.16,4.16,0,0,0-.3,1.28,4.68,4.68,0,0,0,.18.94,6.07,6.07,0,0,1,.34,1.85c0,1.08-.58,1.79-1.48,1.79a.35.35,0,0,1-.38-.36,3.25,3.25,0,0,1,.06-.56,12.1,12.1,0,0,0,.36-2.54,5,5,0,0,0-.12-1.14c-.12-.44-.48-.7-1.38-1Zm1.18-11.54a9,9,0,0,1,2.24,1.08c.64.44.82.66.82,1,0,.68-.28,1.3-.6,1.3s-.28-.08-.62-.68a8.68,8.68,0,0,0-2-2.5Zm14.26,6.8c.44-.58.58-.74,1-1.26.74.6,1,.78,1.7,1.4.09.1.13.16.13.2s-.08.12-.19.12h-11.88a6.37,6.37,0,0,0-1.52.12l-.16-.74a6.23,6.23,0,0,0,1.68.16h3.78v-2h-2.34a10.27,10.27,0,0,0-1.62.12l-.14-.76a7.3,7.3,0,0,0,1.76.18h2.34v-1.8h-2.8a9.75,9.75,0,0,0-1.64.12l-.16-.76a9.16,9.16,0,0,0,1.8.18h2.8v-.66c0-.74,0-1.08-.08-1.82,2,.28,2.22.32,2.22.5s-.18.26-.82.5v1.48h3.6c.46-.58.6-.74,1-1.26.76.58,1,.76,1.7,1.4.07.1.1.14.1.2s-.08.12-.19.12h-6.25v1.8h2.52c.48-.5.62-.66,1.08-1.12a17.28,17.28,0,0,1,1.58,1.3c.08.08.1.12.1.16s-.08.12-.18.12h-5.1v2Zm-7.82,6.92,0,.84v2.75a.3.3,0,0,1-.22.32,3.43,3.43,0,0,1-.9.11c-.2,0-.3-.08-.3-.22v0c.06-1.9.08-2.86.08-4.78,0-2.62,0-3.66-.08-4.82.68.32.9.42,1.56.76h6.12c.32-.34.42-.46.74-.76.5.3.64.4,1.12.74.14.1.2.18.2.26s-.08.22-.52.52v3.14c0,1.26,0,1.92.08,3.5v.12c0,.92-.54,1.32-2.2,1.58a1,1,0,0,0-.6-.84,6.46,6.46,0,0,0-2-.59v-.27c1.58.12,1.94.15,3.08.16.24,0,.3,0,.3-.24V278.8Zm6.46-4.62h-6.46V276h6.46Zm0,2.26h-6.46v1.9h6.46Z" transform="translate(-494.82 12.56)"/><path d="M1267.84,269.06c.36-.52.46-.68.84-1.2a14.83,14.83,0,0,1,1.16,1.4.24.24,0,0,1,.08.16c0,.06-.08.1-.22.1h-2.52v3.7a12.78,12.78,0,0,0,2-.94l.18.28a18.56,18.56,0,0,1-2.16,1.48v4.22c0,1.3,0,1.3,0,3.1a1.07,1.07,0,0,1-.26.87,2.87,2.87,0,0,1-1.72.66c-.14-.58-.22-.74-.5-.91a3.66,3.66,0,0,0-1.56-.4v-.3c.62,0,.62,0,1.36,0h1.08c.18,0,.24,0,.24-.23v-6.34l-.84.46-.72.4c0,.72,0,.92-.24.92s-.26-.18-1-1.92a24.78,24.78,0,0,0,2.8-.92v-4.16h-1.14a5.79,5.79,0,0,0-1.32.12l-.12-.76a6.44,6.44,0,0,0,1.44.18h1.14v-2.18a15,15,0,0,0-.12-2.22,11.05,11.05,0,0,1,2.1.26c.16,0,.24.12.24.2s-.26.3-.9.46v3.48Zm7.56,8.78c0,2.72,0,2.86,0,4.76,0,.26-.18.33-.84.33-.44,0-.52,0-.52-.26,0-1.89,0-2,0-4.71V276h-2.72v5.4c0,.26-.16.33-.78.33s-.54,0-.54-.31l0-3.66c0-.48,0-1.52,0-3.08a12.72,12.72,0,0,1,1.54.86h2.5v-2.32H1270a6.1,6.1,0,0,1-.34,1.9c-.26.7-.7,1.2-1,1.2s-.58-.56-.58-1.12a.66.66,0,0,1,.34-.6,3.36,3.36,0,0,0,1.28-2.82l.32,0c0,.54,0,.68,0,1h9a9.56,9.56,0,0,1,.92-.88c.62.58.8.76,1.36,1.34.15.14.18.22.18.28s-.19.22-1.06.24c-.74.76-.8.8-1.24,1.22l.72.58c.14.14.2.22.2.3s-.12.22-.52.48v2.08c0,.26,0,.32,0,1.74a1.31,1.31,0,0,1-.5,1.13,3.54,3.54,0,0,1-1.36.5c-.1-.65-.16-.77-.36-.93a2.81,2.81,0,0,0-1.36-.38l0-.3c1.14.08,1.24.08,1.58.08h.46c.18,0,.2-.08.2-.28v-4h-2.88Zm-2.74-9.16a10.09,10.09,0,0,0-1.62.12l-.16-.76a8.15,8.15,0,0,0,1.86.18H1278v-1.86H1272a8.8,8.8,0,0,0-1.6.14l-.14-.8a7,7,0,0,0,1.72.2h5.76a9.17,9.17,0,0,1,.84-.92c.5.38.66.5,1.11.88.17.16.23.22.23.3s-.14.26-.72.54c0,2.52,0,2.52,0,4.84,0,.3-.14.36-.86.36-.38,0-.44,0-.44-.22v-.48h-6.18a9.17,9.17,0,0,0-1.46.12l-.14-.72a9,9,0,0,0,1.6.14H1278v-2.06Zm5.44,6.9c.3-.38.36-.44.7-.82a13,13,0,0,0,.44-1.5h-3.84v2.32Z" transform="translate(-494.82 12.56)"/></g></g><g id="植生袋布設完了" class="cls-4"><g class="cls-4"><path d="M609.78,703.56l.9-1.16a18.37,18.37,0,0,1,1.48,1.32.45.45,0,0,1,.08.18c0,.06-.08.12-.16.12h-2.86v2a8.86,8.86,0,0,1,1.4,1c.54.44.72.7.72,1,0,.6-.3,1.24-.6,1.24-.14,0-.22-.12-.34-.5a5.37,5.37,0,0,0-1.2-2.38V708c0,1.6,0,6.38,0,9.21,0,.12,0,.18-.14.22a5.73,5.73,0,0,1-1,.12c-.12,0-.16,0-.18-.16,0-.81,0-1.44,0-1.86.1-2.51.1-2.51.12-5.79l.22-3.7c-1.16,3.6-1.7,4.76-3.26,6.88l-.22-.16a32.89,32.89,0,0,0,2.94-8.78h-1.3a5.17,5.17,0,0,0-1,.12l-.1-.74a5.72,5.72,0,0,0,1.12.16h1.5v-2.42c0-.66,0-1.06-.08-1.9,2.18.3,2.34.34,2.34.56s-.14.26-.94.54l0,3.22ZM613,717.11c0,.14,0,.2-.16.24s-.8.1-1,.1-.2,0-.2-.2c0-1.79.06-2.67.06-3.92,0-5.49,0-7.21-.08-8.29l.86.1c1,.12,1.28.2,1.28.4s-.1.22-.76.46v9.87h8c.52-.6.66-.79,1.18-1.33.7.63.92.83,1.59,1.49a.3.3,0,0,1,.11.18.14.14,0,0,1-.13.12H613Zm-.18-14.49a5.52,5.52,0,0,0-1,.12l-.12-.72a5.3,5.3,0,0,0,1.32.14h4.08a28.12,28.12,0,0,0,.28-2.86c2.1.28,2.16.28,2.16.48s-.14.24-.9.48c-.18,1.38-.18,1.38-.24,1.9h2.26c.46-.58.6-.76,1.06-1.32.8.66,1.06.86,1.84,1.52.07.08.09.12.09.16s-.07.1-.15.1h-5.16c-.12.86-.12.86-.34,2.2h2.36c.26-.36.34-.46.62-.8.5.34.64.46,1.12.8.12.12.18.2.18.28s-.16.26-.6.5c0,1,0,1.86,0,2.4,0,1.3,0,4.2.06,6.46,0,.12,0,.19-.14.22a6.07,6.07,0,0,1-.9.07c-.12,0-.16,0-.18-.18v-.77h-4.44v.88c0,.08,0,.11-.12.12a5.62,5.62,0,0,1-.92.08c-.14,0-.2,0-.2-.21,0-2.57.06-3.31.06-4.41,0-3,0-5.18-.08-6l1.38.6h.54c.2-1.24.2-1.24.34-2.2Zm7.66,4.9v-2.24h-4.44v2.24Zm-4.44.46v2.46h4.44V708Zm0,2.92v2.44h4.44V710.9Z" transform="translate(-494.82 12.56)"/><path d="M633.6,704.36V701.5a15,15,0,0,0-.12-2c1.8.14,2.34.24,2.34.46s-.16.26-.82.58v3.84h3.82c.46-.66.6-.86,1.1-1.5.92.7,1.2.92,2.06,1.68.06.08.1.12.1.16s-.08.12-.24.12H635v4.7h3.44c.44-.64.58-.84,1.08-1.48.86.68,1.12.9,2,1.64a.29.29,0,0,1,.1.16c0,.08-.1.14-.28.14H635v5.64h4.76a18.68,18.68,0,0,0,1.26-1.56c1,.73,1.26,1,2.22,1.75a.26.26,0,0,1,.1.14c0,.08-.12.13-.24.13H627.52a10.62,10.62,0,0,0-1.94.15l-.2-.78a10.59,10.59,0,0,0,2.12.17h6.1V710h-4.26a9.16,9.16,0,0,0-1.6.12l-.16-.74a9,9,0,0,0,1.76.16h4.26v-4.7h-4.42a19.63,19.63,0,0,1-3.36,4.36l-.24-.2a21.58,21.58,0,0,0,2.92-5.52,14.53,14.53,0,0,0,.84-2.84c1.9.6,2.28.76,2.28,1s-.22.26-.9.32c-.5,1.08-.74,1.54-1.26,2.46Z" transform="translate(-494.82 12.56)"/><path d="M654.5,709.58a9.18,9.18,0,0,0,2.22,2.9,10.46,10.46,0,0,0,2.54-2.7l1,.44c.66.28.84.4.84.56s-.06.12-.14.16a1,1,0,0,1-.3.06,4.57,4.57,0,0,0-.5,0c-.38.22-2.74,1.5-3.1,1.7a11.57,11.57,0,0,0,2.82,1.64,16.92,16.92,0,0,0,4.08,1.11v.22c-.75.2-1,.4-1.38,1.28a10.92,10.92,0,0,1-3.44-1.53,12.62,12.62,0,0,1-5-5.8c-1.06.9-1.44,1.2-2.32,1.84v3.69c2.16-.27,2.94-.36,5.06-.74l.08.34a65.94,65.94,0,0,1-8.5,2.2c-.2.52-.3.68-.46.68s-.16-.1-.22-.36l-.1-.3c-.1-.32-.26-.94-.36-1.36.8,0,.8,0,3.16-.31v-3a20.7,20.7,0,0,1-5.54,2.41l-.14-.26a30.11,30.11,0,0,0,5.38-3,17.64,17.64,0,0,0,2.32-1.88h-5.6a10.83,10.83,0,0,0-1.32.12l-.16-.74a6.45,6.45,0,0,0,1.48.16h6.5v-.94s0-.18,0-.4a3.76,3.76,0,0,1,0-.6c0-.1,0-.26,0-.46l.94.1c.86.08,1.2.18,1.2.34a1.18,1.18,0,0,1-.08.16l-.28.18a2.89,2.89,0,0,0-.38.22v1.4h5.68a11.86,11.86,0,0,1,.94-1.06c.86.54,1.12.7,1.92,1.22a.35.35,0,0,1,.06.14c0,.1-.09.16-.22.16ZM645,706.06a24.15,24.15,0,0,0,3.82-4.34,10.8,10.8,0,0,0,1.32-2.26l.84.3c.86.32,1.1.44,1.1.56s-.16.22-.9.34a28.78,28.78,0,0,1-2.22,2.5l.38.1.68.22c.2,0,.28.1.28.18s-.14.2-.6.38c0,2.9,0,3.1,0,4.22,0,.22-.16.28-.72.3a.83.83,0,0,1-.2,0h-.08c-.24,0-.34-.08-.34-.32.06-1.28.1-2,.1-2.32V703.6a16.93,16.93,0,0,1-3.36,2.68Zm9.58-2.8a9.17,9.17,0,0,1-.7-1.78c-.48-1.56-.48-1.56-.64-2,1.82.26,2.32.36,2.32.54s-.16.24-.72.42a7.94,7.94,0,0,0,1,2.62l4.12-.54c.34-.6.44-.78.8-1.34.84.48,1.1.64,1.92,1.18a.29.29,0,0,1,.06.1.17.17,0,0,1-.16.16l-6.48.88a8.65,8.65,0,0,0,1.62,1.72,6.52,6.52,0,0,0,1.94,1,3.27,3.27,0,0,0,1.32.38c.12,0,.18-.06.28-.28a12.76,12.76,0,0,0,.52-1.28c.22-.58.24-.64.44-1.12l.22,0-.22,2.62v.06c0,.22,0,.22.36.4a.6.6,0,0,1,.28.48c0,.26-.3.46-.7.46a9,9,0,0,1-5.42-2.12,9.66,9.66,0,0,1-1.88-2.2l-2.5.34a4.09,4.09,0,0,0-1.36.32l-.28-.78a8.19,8.19,0,0,0,.82.06,4.62,4.62,0,0,0,.74-.06Zm1.72-3.56c2.46.42,3.18.76,3.18,1.48,0,.56-.16.92-.38.92s-.22-.08-.4-.28a5.79,5.79,0,0,0-1.14-1,5,5,0,0,0-1.34-.86Z" transform="translate(-494.82 12.56)"/><path d="M674.52,707.26c0-1.06,0-1.06,0-1.42a16.41,16.41,0,0,0-.08-1.78c.5.06.86.12,1.12.16.74.1,1.1.22,1.1.4s-.16.24-.82.46v2.18h3.78l.78-.88a13.74,13.74,0,0,1,1.26.88c.14.12.18.18.18.24s-.24.36-.66.64v3.52l0,2v.17c0,1-.56,1.36-2.1,1.54-.14-.87-.62-1.16-2.28-1.37l0-.32c1.28.11,1.58.11,2.76.15h.06c.12,0,.18-.07.18-.25v-5.82h-4c0,3.5.06,7.15.1,9.45,0,.26-.24.32-1.08.32-.32,0-.4,0-.42-.24,0-.74,0-3.91.06-9.53H671v2.84l0,2c0,.16,0,.77.06,2.48,0,.3-.18.41-.74.41h-.44c-.22,0-.3-.05-.32-.25v-.6l0-4.07V707.8a19.3,19.3,0,0,1-4.48,4.22l-.18-.2a28.4,28.4,0,0,0,4.12-5,29.9,29.9,0,0,0,1.94-3.5h-3.54a18,18,0,0,0-2,.12l-.14-.74c.82.08,1.9.16,2.12.16h3.74a12.75,12.75,0,0,0,1.14-3.86c2.06.48,2.46.62,2.46.8s-.12.26-1.08.48c-.48,1.22-.68,1.74-1.06,2.58h7.68c.52-.6.68-.8,1.24-1.46.82.7,1.06.9,1.84,1.6.06.08.1.12.1.18s-.08.14-.2.14H672.48a27.88,27.88,0,0,1-2.14,3.54l.8.44Z" transform="translate(-494.82 12.56)"/><path d="M685.12,702.74a9.05,9.05,0,0,0,2.14.2h3.64l1-1.14c.76.54,1,.72,1.7,1.3a.62.62,0,0,1,.08.18c0,.08-.08.12-.22.12h-6.18a9.36,9.36,0,0,0-2,.14Zm.76-2.56a7.47,7.47,0,0,0,1.66.2h2.54c.42-.52.54-.66,1-1.14a20,20,0,0,1,1.6,1.32.57.57,0,0,1,.08.16c0,.08-.08.12-.2.12h-5a13.07,13.07,0,0,0-1.52.1Zm.24,7.8a6.74,6.74,0,0,0,1.7.2h1.88a10.7,10.7,0,0,1,1-1.14c.68.54.88.7,1.5,1.26a.82.82,0,0,1,.12.2.15.15,0,0,1-.14.14h-4.38a10,10,0,0,0-1.54.1Zm0-2.6a7.89,7.89,0,0,0,1.68.18h2.12l1-1.16c.68.56.9.74,1.52,1.32a.45.45,0,0,1,.08.18c0,.06-.08.12-.22.12h-4.5a7.32,7.32,0,0,0-1.52.12Zm1.32,11.75c0,.16-.08.2-.22.24a3.52,3.52,0,0,1-.66.06c-.3,0-.4-.08-.44-.3.06-2.22.06-2.71.06-3.51,0-1.06,0-2.58-.06-3.54.68.38.86.5,1.48.9h2.72l.76-.82a9.25,9.25,0,0,1,1.06.82.62.62,0,0,1,.24.34c0,.12-.08.18-.64.52,0,.46,0,.72,0,1,0,.56,0,2.6.06,3.13,0,.13,0,.2-.14.24a2.61,2.61,0,0,1-.92.14c-.24,0-.3-.06-.3-.25v-.31h-3Zm0-1.79h3v-3.9h-3Zm16.42.47a1.41,1.41,0,0,0-.84.42,1.9,1.9,0,0,0-.64,1,14.54,14.54,0,0,1-4.78-3.21,16,16,0,0,1-6.56,3.49l-.12-.3a18.31,18.31,0,0,0,6-4,11.51,11.51,0,0,1-2.28-4.88h-.38a4.89,4.89,0,0,0-1,.12l-.16-.78a7.63,7.63,0,0,0,1.86.18h4.9l.78-.86c.66.46.86.6,1.46,1.06.14.12.2.2.2.28s-.26.24-1,.46a15.66,15.66,0,0,1-2.88,4.45,11.49,11.49,0,0,0,5.5,2.17Zm-11.58-8.29c1.78-1.8,2.28-3.3,2.28-6.76a12.23,12.23,0,0,0-.08-1.38,11.74,11.74,0,0,1,1.52,1h2.66c.34-.38.46-.5.8-.9.52.4.68.52,1.12.9.18.18.22.26.22.34s-.12.24-.74.56v3.64c0,.34.08.36,1.08.36.64,0,.84-.06,1-.28a12.91,12.91,0,0,0,.84-2.92l.26,0-.18,2.58v.08c0,.3,0,.32.42.52a.48.48,0,0,1,.25.42c0,.56-.55.7-2.71.7a4.47,4.47,0,0,1-1.92-.18c-.26-.16-.34-.4-.34-.92v-.06c0-.52,0-.7,0-1.24v-3.16h-2.88c-.14,2.48-.34,3.4-1,4.5a7,7,0,0,1-2.44,2.38Zm2.8.84a8.67,8.67,0,0,0,2.48,4.2,12.44,12.44,0,0,0,2.36-4.2Z" transform="translate(-494.82 12.56)"/><path d="M716.92,715.21a.35.35,0,0,0,.18.32,8.35,8.35,0,0,0,1.44.09h.58c.64,0,1.08,0,1.24,0,.66,0,.9-.09,1-.37.18-.59.72-2.89.88-3.81l.24,0V715a.86.86,0,0,0,.1.45c0,.05,0,.05.38.09a.49.49,0,0,1,.4.49c0,.6-.76.78-3.2.78h-.8c-.76,0-1.32,0-1.68,0h-.28c-.9,0-1.34-.1-1.58-.36s-.26-.44-.26-2v-5.5h-2.74a10.46,10.46,0,0,1-.2,2,7.67,7.67,0,0,1-3.54,5,11.56,11.56,0,0,1-3.76,1.34l-.12-.32a9.4,9.4,0,0,0,3.64-2.05,7.72,7.72,0,0,0,2.38-4.68c0-.36.06-.58.1-1.32h-3.64a8.19,8.19,0,0,0-1.88.18l-.22-.82a20.23,20.23,0,0,0,2.1.18h12.06c.5-.6.66-.78,1.24-1.38.8.68,1.08.9,1.88,1.62a.26.26,0,0,1,.1.14.09.09,0,0,1-.1.08h-5.94ZM713.44,702V700.7a8.66,8.66,0,0,0-.06-1.42c1.12.16,2.08.32,2.22.36s.12.1.12.14,0,.14-.84.48V702h5.86c.32-.4.42-.52.74-.94a21.14,21.14,0,0,1,1.78,1.18c.14.12.22.2.22.26a.2.2,0,0,1-.12.16,1.53,1.53,0,0,1-.56.18l-.58.1a17.86,17.86,0,0,1-1.9,1.68l-.3-.12a13.93,13.93,0,0,0,.72-2H707.92a6.08,6.08,0,0,1-.64,2.26c-.28.5-.68.9-1,.9s-.72-.74-.72-1.24c0-.3.08-.42.44-.64.76-.46,1.32-1.56,1.64-3.18H708c0,.36,0,.44,0,.76s0,.38,0,.68Zm-5,3.06a12.68,12.68,0,0,0,1.64.16h7.26l1-1.3c.74.58,1,.78,1.7,1.42.1.08.14.14.14.2a.15.15,0,0,1-.16.14H710.1c-1.1.08-1.1.08-1.4.12Z" transform="translate(-494.82 12.56)"/><path d="M738,700.7c.46-.5.6-.64,1-1.1.88.64,1.14.84,1.92,1.48a.6.6,0,0,1,.24.36.27.27,0,0,1-.1.16c-.14.1-.32.14-1.42.24a55.51,55.51,0,0,1-5.32,3.26c.54.16.68.24.68.36s-.26.34-.88.5v4.74l.06,4.83c0,.66-.14.9-.46,1.16a4.31,4.31,0,0,1-2.18.68c-.18-.68-.28-.84-.66-1a8.56,8.56,0,0,0-3.26-.66v-.3c1,0,1,0,2.72.09l1.88.07h.06c.26,0,.38-.12.38-.36v-8.73a13.89,13.89,0,0,0-.12-1.76c.6.12.88.2,1.26.28,1.44-1.22,3.14-2.84,4-3.8H727.68a11.74,11.74,0,0,0-2.16.16l-.18-.78a13.88,13.88,0,0,0,2.34.16Z" transform="translate(-494.82 12.56)"/></g></g><g id="植生袋布設" class="cls-4"><g class="cls-4"><path d="M1194.78,703.56l.9-1.16a18.37,18.37,0,0,1,1.48,1.32.45.45,0,0,1,.08.18c0,.06-.08.12-.16.12h-2.86v2a8.86,8.86,0,0,1,1.4,1c.54.44.72.7.72,1,0,.6-.3,1.24-.6,1.24-.14,0-.22-.12-.34-.5a5.37,5.37,0,0,0-1.2-2.38V708c0,1.6,0,6.38,0,9.21,0,.12,0,.18-.14.22a5.73,5.73,0,0,1-1,.12c-.12,0-.16,0-.18-.16,0-.81,0-1.44,0-1.86.1-2.51.1-2.51.12-5.79l.22-3.7c-1.16,3.6-1.7,4.76-3.26,6.88l-.22-.16a32.89,32.89,0,0,0,2.94-8.78h-1.3a5.17,5.17,0,0,0-1,.12l-.1-.74a5.72,5.72,0,0,0,1.12.16h1.5v-2.42c0-.66,0-1.06-.08-1.9,2.18.3,2.34.34,2.34.56s-.14.26-.94.54l0,3.22Zm3.26,13.55c0,.14,0,.2-.16.24s-.8.1-1,.1-.2,0-.2-.2c0-1.79.06-2.67.06-3.92,0-5.49,0-7.21-.08-8.29l.86.1c1,.12,1.28.2,1.28.4s-.1.22-.76.46v9.87h8c.52-.6.66-.79,1.18-1.33.7.63.93.83,1.59,1.49a.3.3,0,0,1,.11.18.15.15,0,0,1-.13.12H1198Zm-.18-14.49a5.52,5.52,0,0,0-1,.12l-.12-.72a5.3,5.3,0,0,0,1.32.14h4.08a28.12,28.12,0,0,0,.28-2.86c2.1.28,2.16.28,2.16.48s-.14.24-.9.48c-.18,1.38-.18,1.38-.24,1.9h2.26l1.06-1.32c.8.66,1.06.86,1.84,1.52.06.08.09.12.09.16s-.06.1-.14.1h-5.17c-.12.86-.12.86-.34,2.2h2.36c.26-.36.34-.46.62-.8.5.34.64.46,1.12.8.12.12.18.2.18.28s-.16.26-.59.5c0,1,0,1.86,0,2.4,0,1.3,0,4.2.06,6.46,0,.12,0,.19-.14.22a6.07,6.07,0,0,1-.9.07c-.12,0-.16,0-.18-.18v-.77h-4.44v.88c0,.08,0,.11-.12.12a5.62,5.62,0,0,1-.92.08c-.14,0-.2,0-.2-.21,0-2.57.06-3.31.06-4.41,0-3,0-5.18-.08-6l1.38.6h.54c.2-1.24.2-1.24.34-2.2Zm7.66,4.9v-2.24h-4.44v2.24Zm-4.44.46v2.46h4.44V708Zm0,2.92v2.44h4.44V710.9Z" transform="translate(-494.82 12.56)"/><path d="M1218.6,704.36V701.5a15,15,0,0,0-.12-2c1.8.14,2.34.24,2.34.46s-.16.26-.82.58v3.84h3.82c.46-.66.6-.86,1.1-1.5.92.7,1.2.92,2.06,1.68.06.08.1.12.1.16s-.08.12-.24.12H1220v4.7h3.44c.44-.64.58-.84,1.08-1.48.86.68,1.12.9,2,1.64a.29.29,0,0,1,.1.16c0,.08-.1.14-.28.14H1220v5.64h4.76a18.68,18.68,0,0,0,1.26-1.56c1,.73,1.27,1,2.22,1.75a.26.26,0,0,1,.1.14c0,.08-.12.13-.23.13h-15.59a10.62,10.62,0,0,0-1.94.15l-.2-.78a10.59,10.59,0,0,0,2.12.17h6.1V710h-4.26a9.16,9.16,0,0,0-1.6.12l-.16-.74a9,9,0,0,0,1.76.16h4.26v-4.7h-4.42a19.63,19.63,0,0,1-3.36,4.36l-.24-.2a21.58,21.58,0,0,0,2.92-5.52,14.53,14.53,0,0,0,.84-2.84c1.9.6,2.28.76,2.28,1s-.22.26-.9.32c-.5,1.08-.74,1.54-1.26,2.46Z" transform="translate(-494.82 12.56)"/><path d="M1239.5,709.58a9.18,9.18,0,0,0,2.22,2.9,10.46,10.46,0,0,0,2.54-2.7l1,.44c.66.28.84.4.84.56s-.06.12-.14.16a1,1,0,0,1-.3.06,4.57,4.57,0,0,0-.5,0c-.38.22-2.74,1.5-3.1,1.7a11.57,11.57,0,0,0,2.82,1.64,16.92,16.92,0,0,0,4.08,1.11v.22c-.75.2-1,.4-1.38,1.28a10.92,10.92,0,0,1-3.44-1.53,12.62,12.62,0,0,1-5-5.8c-1.06.9-1.44,1.2-2.32,1.84v3.69c2.16-.27,2.94-.36,5.06-.74l.08.34a65.94,65.94,0,0,1-8.5,2.2c-.2.52-.3.68-.46.68s-.16-.1-.22-.36l-.1-.3c-.1-.32-.26-.94-.36-1.36.8,0,.8,0,3.16-.31v-3a20.7,20.7,0,0,1-5.54,2.41l-.14-.26a30.11,30.11,0,0,0,5.38-3,17.64,17.64,0,0,0,2.32-1.88h-5.6a10.83,10.83,0,0,0-1.32.12l-.16-.74a6.45,6.45,0,0,0,1.48.16h6.5v-.94s0-.18,0-.4a3.76,3.76,0,0,1,0-.6c0-.1,0-.26,0-.46l.94.1c.86.08,1.2.18,1.2.34a1.18,1.18,0,0,1-.08.16l-.28.18a2.89,2.89,0,0,0-.38.22v1.4h5.68a11.86,11.86,0,0,1,.94-1.06c.86.54,1.12.7,1.92,1.22a.43.43,0,0,1,.07.14c0,.1-.1.16-.23.16Zm-9.54-3.52a24.15,24.15,0,0,0,3.82-4.34,10.8,10.8,0,0,0,1.32-2.26l.84.3c.86.32,1.1.44,1.1.56s-.16.22-.9.34a28.78,28.78,0,0,1-2.22,2.5l.38.1.68.22c.2,0,.28.1.28.18s-.14.2-.6.38c0,2.9,0,3.1,0,4.22,0,.22-.16.28-.72.3a.83.83,0,0,1-.2,0h-.08c-.24,0-.34-.08-.34-.32.06-1.28.1-2,.1-2.32V703.6a16.93,16.93,0,0,1-3.36,2.68Zm9.58-2.8a9.17,9.17,0,0,1-.7-1.78c-.48-1.56-.48-1.56-.64-2,1.82.26,2.32.36,2.32.54s-.16.24-.72.42a7.94,7.94,0,0,0,1,2.62l4.12-.54c.34-.6.44-.78.8-1.34.84.48,1.11.64,1.92,1.18a.29.29,0,0,1,.06.1.17.17,0,0,1-.16.16l-6.48.88a8.65,8.65,0,0,0,1.62,1.72,6.52,6.52,0,0,0,1.94,1,3.27,3.27,0,0,0,1.32.38c.12,0,.18-.06.28-.28s.16-.36.53-1.28c.21-.58.23-.64.43-1.12l.23,0-.23,2.62v.06c0,.22,0,.22.36.4a.61.61,0,0,1,.29.48c0,.26-.31.46-.71.46a9,9,0,0,1-5.42-2.12,9.66,9.66,0,0,1-1.88-2.2l-2.5.34a4.09,4.09,0,0,0-1.36.32l-.28-.78a8.19,8.19,0,0,0,.82.06,4.62,4.62,0,0,0,.74-.06Zm1.72-3.56c2.46.42,3.18.76,3.18,1.48,0,.56-.16.92-.38.92s-.22-.08-.4-.28a5.79,5.79,0,0,0-1.14-1,5,5,0,0,0-1.34-.86Z" transform="translate(-494.82 12.56)"/><path d="M1259.52,707.26c0-1.06,0-1.06,0-1.42a16.41,16.41,0,0,0-.08-1.78c.5.06.86.12,1.12.16.74.1,1.1.22,1.1.4s-.16.24-.82.46v2.18h3.78l.78-.88a13.74,13.74,0,0,1,1.26.88c.14.12.19.18.19.24s-.25.36-.66.64v5.65c0,1-.56,1.36-2.1,1.54-.14-.87-.62-1.16-2.28-1.37l0-.32c1.28.11,1.58.11,2.76.15h.06c.12,0,.18-.07.18-.25v-5.82h-4c0,3.5.06,7.15.1,9.45,0,.26-.24.32-1.08.32-.32,0-.4,0-.42-.24,0-.74,0-3.91.06-9.53H1256v2.84l0,2c0,.16,0,.77.06,2.48,0,.3-.18.41-.74.41h-.44c-.22,0-.3-.05-.32-.25v-.6l0-4.07V707.8a19.3,19.3,0,0,1-4.48,4.22l-.18-.2a28.4,28.4,0,0,0,4.12-5,29.9,29.9,0,0,0,1.94-3.5h-3.54a18,18,0,0,0-2,.12l-.14-.74c.82.08,1.9.16,2.12.16h3.74a12.75,12.75,0,0,0,1.14-3.86c2.06.48,2.46.62,2.46.8s-.12.26-1.08.48c-.48,1.22-.68,1.74-1.06,2.58h7.68c.52-.6.68-.8,1.24-1.46.82.7,1.06.9,1.85,1.6,0,.08.09.12.09.18s-.08.14-.2.14h-10.86a27.88,27.88,0,0,1-2.14,3.54l.8.44Z" transform="translate(-494.82 12.56)"/><path d="M1270.12,702.74a9.05,9.05,0,0,0,2.14.2h3.64l1-1.14c.76.54,1,.72,1.7,1.3a.62.62,0,0,1,.08.18c0,.08-.08.12-.22.12h-6.18a9.36,9.36,0,0,0-2,.14Zm.76-2.56a7.47,7.47,0,0,0,1.66.2h2.54c.42-.52.54-.66,1-1.14a20,20,0,0,1,1.6,1.32.57.57,0,0,1,.08.16c0,.08-.08.12-.2.12h-5a13.07,13.07,0,0,0-1.52.1Zm.24,7.8a6.74,6.74,0,0,0,1.7.2h1.88a10.7,10.7,0,0,1,1-1.14c.68.54.88.7,1.5,1.26a.82.82,0,0,1,.12.2.15.15,0,0,1-.14.14h-4.38a10,10,0,0,0-1.54.1Zm0-2.6a7.89,7.89,0,0,0,1.68.18h2.12l1-1.16c.68.56.9.74,1.52,1.32a.45.45,0,0,1,.08.18c0,.06-.08.12-.22.12h-4.5a7.32,7.32,0,0,0-1.52.12Zm1.32,11.75c0,.16-.08.2-.22.24a3.52,3.52,0,0,1-.66.06c-.3,0-.4-.08-.44-.3.06-2.22.06-2.71.06-3.51,0-1.06,0-2.58-.06-3.54.68.38.86.5,1.48.9h2.72l.76-.82a9.25,9.25,0,0,1,1.06.82.62.62,0,0,1,.24.34c0,.12-.08.18-.64.52,0,.46,0,.72,0,1,0,.56,0,2.6.06,3.13,0,.13,0,.2-.14.24a2.61,2.61,0,0,1-.92.14c-.24,0-.3-.06-.3-.25v-.31h-3Zm0-1.79h3v-3.9h-3Zm16.42.47a1.41,1.41,0,0,0-.84.42,2,2,0,0,0-.64,1,14.54,14.54,0,0,1-4.78-3.21,16,16,0,0,1-6.56,3.49l-.12-.3a18.31,18.31,0,0,0,6-4,11.51,11.51,0,0,1-2.28-4.88h-.38a4.89,4.89,0,0,0-1,.12l-.16-.78a7.63,7.63,0,0,0,1.86.18h4.9l.78-.86c.67.46.86.6,1.46,1.06.14.12.21.2.21.28s-.27.24-1,.46a15.88,15.88,0,0,1-2.89,4.45,11.49,11.49,0,0,0,5.5,2.17Zm-11.58-8.29c1.78-1.8,2.28-3.3,2.28-6.76a12.23,12.23,0,0,0-.08-1.38,11.74,11.74,0,0,1,1.52,1h2.66c.34-.38.46-.5.8-.9.52.4.68.52,1.12.9.18.18.22.26.22.34s-.12.24-.74.56v3.64c0,.34.08.36,1.08.36.64,0,.84-.06,1-.28a12.91,12.91,0,0,0,.84-2.92l.26,0-.18,2.58v.08c0,.3,0,.32.42.52a.5.5,0,0,1,.25.42c0,.56-.54.7-2.71.7a4.47,4.47,0,0,1-1.92-.18c-.26-.16-.34-.4-.34-.92v-.06c0-.52,0-.7,0-1.24v-3.16h-2.88c-.14,2.48-.34,3.4-1,4.5a7,7,0,0,1-2.44,2.38Zm2.8.84a8.67,8.67,0,0,0,2.48,4.2,12.44,12.44,0,0,0,2.36-4.2Z" transform="translate(-494.82 12.56)"/></g></g><g id="長方形_155" data-name="長方形 155"><rect class="cls-1" x="558" y="869" width="373" height="266"/><rect class="cls-2" x="558.5" y="869.5" width="372" height="265"/></g><g id="長方形_156" data-name="長方形 156"><rect class="cls-1" y="869" width="373" height="266"/><rect class="cls-2" x="0.5" y="869.5" width="372" height="265"/></g><g id="合体_6" data-name="合体 6"><path class="cls-3" d="M971.29,1018.29V1003h-53V976h53V960.6l30.8,28.85Z" transform="translate(-494.82 12.56)"/><path class="cls-3" d="M971.79,1017.14l29.57-27.69-29.57-27.7v14.7h-53v26h53v14.69m-1,2.31v-16h-53v-28h53v-16l32,30Z" transform="translate(-494.82 12.56)"/></g><g id="植生基材注入" class="cls-4"><g class="cls-4"><path d="M627.28,1138.06l.9-1.16a18.37,18.37,0,0,1,1.48,1.32.45.45,0,0,1,.08.18c0,.06-.08.12-.16.12h-2.86v2a8.86,8.86,0,0,1,1.4,1c.54.44.72.7.72,1,0,.6-.3,1.24-.6,1.24-.14,0-.22-.12-.34-.5a5.37,5.37,0,0,0-1.2-2.38v1.66c0,1.6,0,6.39,0,9.21,0,.12,0,.18-.14.22a5.73,5.73,0,0,1-1,.12c-.12,0-.16,0-.18-.16,0-.8,0-1.44,0-1.86.1-2.5.1-2.5.12-5.78l.22-3.71c-1.16,3.6-1.7,4.76-3.26,6.89l-.22-.16a33,33,0,0,0,2.94-8.79h-1.3a5.17,5.17,0,0,0-1,.12l-.1-.74a5.72,5.72,0,0,0,1.12.16h1.5v-2.42c0-.66,0-1.06-.08-1.9,2.18.3,2.34.34,2.34.56s-.14.26-.94.54l0,3.22Zm3.26,13.55c0,.14,0,.2-.16.24s-.8.1-1,.1-.2,0-.2-.2c0-1.78.06-2.66.06-3.92,0-5.49,0-7.21-.08-8.29l.86.1c1,.12,1.28.2,1.28.4s-.1.22-.76.46v9.87h8c.52-.6.66-.78,1.18-1.32.7.62.92.82,1.59,1.48a.3.3,0,0,1,.11.18.14.14,0,0,1-.13.12H630.54Zm-.18-14.49a5.52,5.52,0,0,0-1,.12l-.12-.72a5.3,5.3,0,0,0,1.32.14h4.08a28.12,28.12,0,0,0,.28-2.86c2.1.28,2.16.28,2.16.48s-.14.24-.9.48c-.18,1.38-.18,1.38-.24,1.9h2.26c.46-.58.6-.76,1.06-1.32.8.66,1.06.86,1.84,1.52.07.08.09.12.09.16s-.07.1-.15.1h-5.16c-.12.86-.12.86-.34,2.2h2.36c.26-.36.34-.46.62-.8.5.34.64.46,1.12.8.12.12.18.2.18.28s-.16.26-.6.5c0,1,0,1.86,0,2.4,0,1.3,0,4.21.06,6.47a.2.2,0,0,1-.14.22,8.31,8.31,0,0,1-.9.06c-.12,0-.16,0-.18-.18v-.76h-4.44v.88c0,.08,0,.1-.12.12a5.62,5.62,0,0,1-.92.08c-.14,0-.2-.06-.2-.22,0-2.56.06-3.3.06-4.41,0-3,0-5.18-.08-6l1.38.6h.54c.2-1.24.2-1.24.34-2.2ZM638,1142v-2.24h-4.44V1142Zm-4.44.46V1145H638v-2.47Zm0,2.93v2.44H638v-2.44Z" transform="translate(-494.82 12.56)"/><path d="M651.1,1138.86V1136a15,15,0,0,0-.12-2c1.8.14,2.34.24,2.34.46s-.16.26-.82.58v3.84h3.82c.46-.66.6-.86,1.1-1.5.92.7,1.2.92,2.06,1.68.06.08.1.12.1.16s-.08.12-.24.12H652.5V1144h3.44c.44-.65.58-.85,1.08-1.49.86.68,1.12.9,2,1.64.06.07.1.12.1.16s-.1.15-.28.15H652.5v5.64h4.76a18.68,18.68,0,0,0,1.26-1.56c1,.72,1.26,1,2.22,1.74a.26.26,0,0,1,.1.14c0,.08-.12.14-.24.14H645a11.63,11.63,0,0,0-1.94.14l-.2-.78a9.86,9.86,0,0,0,2.12.18h6.1v-5.64h-4.26a9.16,9.16,0,0,0-1.6.12l-.16-.74a9.87,9.87,0,0,0,1.76.16h4.26v-4.71h-4.42a19.63,19.63,0,0,1-3.36,4.36l-.24-.2A21.58,21.58,0,0,0,646,1138a14.53,14.53,0,0,0,.84-2.84c1.9.6,2.28.76,2.28,1s-.22.26-.9.32c-.5,1.08-.74,1.54-1.26,2.46Z" transform="translate(-494.82 12.56)"/><path d="M674.6,1136.22v-.5l0-1.22a4.26,4.26,0,0,0-.06-.82c2.12.22,2.26.26,2.26.48s-.24.32-.8.46v1.6h1.74c.48-.6.64-.76,1.14-1.34a21.9,21.9,0,0,1,1.74,1.56.19.19,0,0,1,.07.14c0,.06-.09.1-.23.1H676v6.78h2.12a10.9,10.9,0,0,1,1.16-1.3c.78.62,1,.84,1.8,1.55a.19.19,0,0,1,.06.12c0,.08-.06.09-.22.09H675a5.2,5.2,0,0,0,1.26,1.37,11.59,11.59,0,0,0,5.16,2.16l0,.26a1.8,1.8,0,0,0-1.34,1.24,12.22,12.22,0,0,1-4.3-3.18,8.37,8.37,0,0,1-1.1-1.85h-5.28a11.49,11.49,0,0,1-2.4,2.67,17.49,17.49,0,0,1-4.58,2.74l-.14-.28a19.22,19.22,0,0,0,3.86-3,14.94,14.94,0,0,0,1.62-2.15h-3.36a7.5,7.5,0,0,0-1.46.14l-.1-.77a9.65,9.65,0,0,0,1.56.17h3.1v-6.78h-2.2a6.46,6.46,0,0,0-1.32.12l-.1-.76a6,6,0,0,0,1.42.18h2.2v-.44c0-1,0-1.16,0-2.1,1.82.14,2.22.22,2.22.46s-.2.3-.8.46v1.62Zm-.54,11.07c.44-.54.58-.7,1-1.22a11.37,11.37,0,0,1,1.52,1.4.24.24,0,0,1,.08.16c0,.08-.06.12-.24.12h-4.24v3h4.9c.48-.6.64-.78,1.16-1.34a16.68,16.68,0,0,1,1.84,1.54.35.35,0,0,1,.06.14c0,.08-.06.12-.24.12H665.3a10.13,10.13,0,0,0-1.52.12l-.1-.74a8.24,8.24,0,0,0,1.62.16h5.6v-3h-2.54a5.52,5.52,0,0,0-1.26.1l-.12-.72a6.09,6.09,0,0,0,1.38.16h2.54v-1.1c0-.5,0-.88-.08-1.65,1.88.17,2.06.21,2.06.41s-.18.26-.66.38v2Zm-5.2-8.73h5.74v-1.88h-5.74Zm0,2.4h5.74V1139h-5.74Zm0,2.5h5.74v-2h-5.74Z" transform="translate(-494.82 12.56)"/><path d="M688.1,1138.26c.4-.52.54-.68,1-1.18.66.58.86.76,1.48,1.34a.33.33,0,0,1,.08.18c0,.06-.08.12-.18.12h-2.7v1.8a16.87,16.87,0,0,1,2.24,1.18c.56.36.72.58.72,1,0,.66-.22,1.2-.48,1.2s-.24-.08-.54-.58a11.74,11.74,0,0,0-1.94-2.38c0,1.28,0,2.79,0,4.54,0,3.11,0,3.47.06,6.11,0,.16,0,.24-.16.28a5.09,5.09,0,0,1-1,.1c-.14,0-.2-.06-.2-.18v0c0-1,0-1.72.06-2.2.06-2,.06-2,.1-5.19l.12-3.56a20.22,20.22,0,0,1-4.12,6.87l-.22-.18a27.69,27.69,0,0,0,2.4-4.57,21.84,21.84,0,0,0,1.44-4.22h-2a5.59,5.59,0,0,0-1,.1l-.12-.7a5,5,0,0,0,1.16.14h2.26v-2.5c0-.54,0-1-.08-2l1,.12c1.24.14,1.44.2,1.44.4s-.14.26-1,.52v3.44Zm9.44,7.73c0,1,0,1.68.06,2.2,0,.78,0,.82,0,1.52a1.77,1.77,0,0,1-.28,1.24,3.08,3.08,0,0,1-2,.88,1.07,1.07,0,0,0-.5-.82,5.23,5.23,0,0,0-1.16-.34l-.88-.16-.94-.16,0-.32c1.7.08,2,.08,4,.12.28,0,.34-.08.34-.34l0-7.75,0-1.94a19.06,19.06,0,0,1-3.28,4.63,22.19,22.19,0,0,1-4.1,3.54l-.22-.24a26.88,26.88,0,0,0,6.94-9.33h-3.32a6,6,0,0,0-1.12.12l-.12-.72a5.61,5.61,0,0,0,1.24.14H696v-2.5a9.81,9.81,0,0,0-.14-2l.9.08c1.14.1,1.56.2,1.56.4s-.22.3-1,.56l.06,3.42h.86c.44-.62.58-.82,1-1.38.82.64,1.06.84,1.83,1.54a.32.32,0,0,1,.06.16c0,.08-.08.14-.21.14h-3.58Z" transform="translate(-494.82 12.56)"/><path d="M702.8,1138.56c2.46.82,3.3,1.38,3.3,2.16,0,.62-.26,1.2-.56,1.2s-.24-.08-.56-.62a14.2,14.2,0,0,0-1-1.26,6.79,6.79,0,0,0-1.36-1.24Zm.16,7.11a9.89,9.89,0,0,0,1.34.28c.3,0,.42-.16.88-1.16,1-2.11,2.22-5.11,3.18-7.65l.34.14-3,8.89a5,5,0,0,0-.26,1,3.85,3.85,0,0,0,.18,1,7.34,7.34,0,0,1,.26,1.66,1.79,1.79,0,0,1-.42,1.24,1.41,1.41,0,0,1-1,.52c-.26,0-.44-.24-.44-.6a15.9,15.9,0,0,1,.26-2.08,11,11,0,0,0,.1-1.14v-.36c0-.62-.34-.94-1.56-1.46Zm1-11.57c2.7.94,3.3,1.34,3.3,2.26,0,.62-.26,1.18-.56,1.18s-.3-.12-.48-.48a8.32,8.32,0,0,0-2.42-2.74Zm9.1,4.62h-2.74a6.65,6.65,0,0,0-1.48.14l-.14-.78a6.49,6.49,0,0,0,1.62.18h7.2c.5-.6.66-.8,1.16-1.38.8.62,1,.82,1.78,1.48a.38.38,0,0,1,.14.24c0,.08-.1.12-.28.12h-5.88v5H717c.5-.62.66-.82,1.2-1.4a17.33,17.33,0,0,1,1.82,1.56.34.34,0,0,1,.12.2c0,.06-.08.1-.24.1h-5.48v6.21h3.4c.56-.64.72-.84,1.28-1.5.82.7,1.08.92,1.88,1.64a.37.37,0,0,1,.1.2q0,.12-.24.12h-12a8.85,8.85,0,0,0-1.66.14l-.16-.78a8.5,8.5,0,0,0,1.82.18h4.16v-6.21h-2.9a6.41,6.41,0,0,0-1.44.15l-.14-.81a5.52,5.52,0,0,0,1.58.2h2.9Zm-1.72-4.9a18.57,18.57,0,0,1,2.9,1.3c.78.46,1,.8,1,1.38s-.34,1.24-.64,1.24-.28-.1-.54-.52a17,17,0,0,0-1.12-1.5,21.12,21.12,0,0,0-1.78-1.68Z" transform="translate(-494.82 12.56)"/><path d="M726.74,1135.36a9.47,9.47,0,0,0,1.82.2h2.76c.32-.44.42-.58.78-1l1.18,1c.16.14.22.22.22.26s-.1.2-1.32.74a14.38,14.38,0,0,0,1.14,5.38,15,15,0,0,0,4.34,5.73,11,11,0,0,0,3.61,1.82l0,.22c-1.07.22-1.39.48-1.69,1.46a12.68,12.68,0,0,1-4.56-4.24,17.77,17.77,0,0,1-2.68-6.63,15.64,15.64,0,0,1-3.42,6.69,13.87,13.87,0,0,1-5.92,4.34l-.16-.28a14.6,14.6,0,0,0,4.22-3.62,19.52,19.52,0,0,0,3.64-6.79,15.65,15.65,0,0,0,.84-4.62h-3c-.26,0-.38,0-1.62.1Z" transform="translate(-494.82 12.56)"/></g></g><g id="完成" class="cls-4"><g class="cls-4"><path d="M1231.92,1149.71c0,.14.08.3.18.32a7.17,7.17,0,0,0,1.44.1h.58l1.24,0c.66,0,.9-.1,1-.38.18-.58.72-2.88.88-3.8l.24,0v3.52a1,1,0,0,0,.1.44c0,.06,0,.06.38.1a.48.48,0,0,1,.41.48c0,.6-.77.78-3.21.78h-.8c-.76,0-1.32,0-1.68,0h-.28c-.9,0-1.34-.1-1.58-.36s-.26-.44-.26-2v-5.51h-2.74a10.46,10.46,0,0,1-.2,2,7.65,7.65,0,0,1-3.54,5,11.56,11.56,0,0,1-3.76,1.34l-.12-.32a9.52,9.52,0,0,0,3.64-2,7.72,7.72,0,0,0,2.38-4.68c0-.37.06-.58.1-1.33h-3.64a8.19,8.19,0,0,0-1.88.18l-.22-.82a20.23,20.23,0,0,0,2.1.18h12.06c.5-.6.66-.78,1.24-1.38.81.68,1.08.9,1.89,1.63a.33.33,0,0,1,.09.13.09.09,0,0,1-.09.08h-5.95Zm-3.48-13.25v-1.26a8.66,8.66,0,0,0-.06-1.42c1.12.16,2.08.32,2.22.36s.12.1.12.14,0,.14-.84.48v1.7h5.86c.32-.4.42-.52.74-.94a21.14,21.14,0,0,1,1.78,1.18c.14.12.22.2.22.26a.21.21,0,0,1-.11.16,1.66,1.66,0,0,1-.57.18l-.58.1a17.86,17.86,0,0,1-1.9,1.68l-.3-.12a13.93,13.93,0,0,0,.72-2h-12.82a6.08,6.08,0,0,1-.64,2.26c-.28.5-.68.9-1,.9s-.72-.74-.72-1.24c0-.3.08-.42.44-.64.76-.46,1.32-1.56,1.64-3.18h.28c0,.36,0,.44,0,.76s0,.38,0,.68Zm-5,3.06a12.68,12.68,0,0,0,1.64.16h7.26l1-1.3c.74.58,1,.78,1.7,1.42.1.08.14.14.14.2a.15.15,0,0,1-.16.14h-9.94c-1.1.08-1.1.08-1.4.12Z" transform="translate(-494.82 12.56)"/><path d="M1251.06,1137.76a21.17,21.17,0,0,0,1.26,6.73,16,16,0,0,0,1.82-5c1.82.44,2.16.54,2.16.76s-.2.24-.9.42a20.6,20.6,0,0,1-2.52,5.13,9.5,9.5,0,0,0,3.1,3.58c.73-1.28,1-1.82,2-3.84l.24,0-1,3.79a1.9,1.9,0,0,0-.13.6c0,.16,0,.2.26.5a.91.91,0,0,1,.24.58.58.58,0,0,1-.62.6c-.6,0-1.5-.6-2.68-1.78a12.53,12.53,0,0,1-2.18-2.9,14.72,14.72,0,0,1-2,2.06,17.54,17.54,0,0,1-4.2,2.74l-.16-.26a19.92,19.92,0,0,0,3.66-3.14,17.69,17.69,0,0,0,2.1-2.56,25.79,25.79,0,0,1-1.78-8h-6.32c0,1.78,0,2.42-.1,3.62h3.44l.78-.88c.54.38.7.5,1.2.88.18.18.22.24.22.3s-.2.28-.74.54a27,27,0,0,1-.72,5.35,1.68,1.68,0,0,1-.86,1,5,5,0,0,1-1.5.36c-.2-.74-.24-.84-.46-1a3.62,3.62,0,0,0-1.58-.5l0-.3c1.46.16,2.36.24,2.68.24s.46-.12.62-.78a31.2,31.2,0,0,0,.44-4.71h-3.58a25.2,25.2,0,0,1-.48,4.09,14.43,14.43,0,0,1-1.46,3.9,10.93,10.93,0,0,1-1.4,2l-.26-.16a13.7,13.7,0,0,0,1.76-4.74,43.22,43.22,0,0,0,.54-8.07,25.86,25.86,0,0,0-.1-2.62,14,14,0,0,1,1.68,1.08h6.16c-.06-.64-.08-1-.1-1.52-.06-1.44-.06-1.62-.14-2.3l.9.1c1.08.1,1.34.16,1.34.34s-.12.24-.7.5c0,.56,0,1,0,1.28,0,.6,0,1,0,1.6h3.78c.52-.62.68-.8,1.18-1.38a22.23,22.23,0,0,1,1.76,1.56.21.21,0,0,1,.08.16c0,.06-.1.12-.18.12Zm1.06-3.74a8.89,8.89,0,0,1,2.56.72,1.17,1.17,0,0,1,.6,1.14c0,.42-.18.76-.42.76s-.26-.08-.46-.34a8.61,8.61,0,0,0-2.36-2.08Z" transform="translate(-494.82 12.56)"/></g></g><g id="合体_7" data-name="合体 7"><path class="cls-3" d="M631,798.2h26.31V756.44h48V798.2h26.31l-50.31,24.19Z" transform="translate(-494.82 12.56)"/><path class="cls-3" d="M633.21,798.7l48.11,23.14,48.11-23.14H704.82V756.94h-47V798.7H633.21m-4.39-1h28V755.94h49V797.7h28L681.32,823Z" transform="translate(-494.82 12.56)"/></g></g></svg>