<svg xmlns="http://www.w3.org/2000/svg" viewBox="0 0 518.45 92.17"><defs><style>.cls-1{fill:#43962a;}.cls-2{fill:#71976b;}</style></defs><g id="レイヤー_2" data-name="レイヤー 2"><g id="レイヤー_3" data-name="レイヤー 3"><polygon class="cls-1" points="41.21 0 20.61 35.69 61.82 35.69 41.21 0"/><polygon class="cls-1" points="20.61 35.69 0 71.38 41.21 71.38 20.61 35.69"/><polygon class="cls-1" points="61.82 35.69 41.21 71.38 82.42 71.38 61.82 35.69"/><path class="cls-2" d="M8.06,86.17A2.69,2.69,0,0,0,8.6,87.7a3,3,0,0,0,2.42,1c1.59,0,2.54-.7,2.54-1.86a1.54,1.54,0,0,0-.87-1.44,16.49,16.49,0,0,0-3.1-.85,8,8,0,0,1-3.33-1.2,4.65,4.65,0,0,1-2-4c0-3.19,2.56-5.19,6.63-5.19,2.63,0,4.63.81,5.75,2.36a5.84,5.84,0,0,1,1,2.47l-4.38.48c-.25-1.34-1-1.9-2.56-1.9-1.26,0-2.19.68-2.19,1.63a1.42,1.42,0,0,0,1,1.32,11.65,11.65,0,0,0,2.85.68,10.35,10.35,0,0,1,3.35,1.18,4.64,4.64,0,0,1,2.23,4.22,5.17,5.17,0,0,1-1.45,3.8,7.56,7.56,0,0,1-5.43,1.76,9.82,9.82,0,0,1-4.61-1,4.87,4.87,0,0,1-2.23-2.64,7.79,7.79,0,0,1-.46-1.92Z"/><path class="cls-2" d="M31.27,91.77a16.87,16.87,0,0,0-.5-2.23l-.55-1.75H24.33l-.56,1.75a12.5,12.5,0,0,0-.52,2.23H18.42a20.75,20.75,0,0,0,1-2.52l4.46-12.44a12.39,12.39,0,0,0,.66-2.23h5.4a15.94,15.94,0,0,0,.7,2.23l4.48,12.44c.39,1.1.73,1.94,1,2.52Zm-4-13.65-1.92,6.19H29.2Z"/><path class="cls-2" d="M46.89,83a26.41,26.41,0,0,1,1.49,2.46c-.08-.95-.12-1.9-.12-3.06V77.72a21.52,21.52,0,0,0-.17-3.14h4.4a23.23,23.23,0,0,0-.16,3.14v11a26.19,26.19,0,0,0,.16,3.08H48a22.44,22.44,0,0,0-1.55-2.62L42.6,83.38a23.16,23.16,0,0,1-1.49-2.54,30.62,30.62,0,0,1,.14,3.08v4.63a23.13,23.13,0,0,0,.17,3.22H37a21.91,21.91,0,0,0,.16-3.24V77.66A23.82,23.82,0,0,0,37,74.58H41.5A13.74,13.74,0,0,0,43,77.17Z"/><path class="cls-2" d="M68.68,88.71a32.64,32.64,0,0,0,2.19,3.06H65.49a22.92,22.92,0,0,0-1.42-2.62L60.87,84l-2.09,2.09v2.6A22.2,22.2,0,0,0,59,91.77H54.57a24.1,24.1,0,0,0,.16-3.06V77.64a23.3,23.3,0,0,0-.16-3.06H59a22,22,0,0,0-.17,3.06V81.3l4.11-4.4a12.61,12.61,0,0,0,1.8-2.32h5.58l-.81.83L68,76.86,63.7,81.38Z"/><path class="cls-2" d="M76.37,74.58a18.37,18.37,0,0,0-.17,3.06V88.71a19.14,19.14,0,0,0,.17,3.06H71.82A18.9,18.9,0,0,0,72,88.71V77.64a18.52,18.52,0,0,0-.17-3.06Z"/><path class="cls-2" d="M94,56.82a60.6,60.6,0,0,0,8.06.4h32.05a62.6,62.6,0,0,0,8-.4V65.3a45.43,45.43,0,0,0-7.73-.4h-32a69.86,69.86,0,0,0-8.32.4Zm3.6-39.37a46.62,46.62,0,0,0,7.14.35h26.36a51.59,51.59,0,0,0,7.36-.35v8.31a54.08,54.08,0,0,0-7.36-.34H104.81a46.78,46.78,0,0,0-7.25.34Zm3.49,18.93a43.4,43.4,0,0,0,6.44.35h20.94a53.85,53.85,0,0,0,6.55-.35v8.49a57,57,0,0,0-6.49-.35H107.65a42.73,42.73,0,0,0-6.6.35Z"/><path class="cls-2" d="M156.94,28.71a48.55,48.55,0,0,1-5.74,6.75,32.86,32.86,0,0,0-5-5.42,41.8,41.8,0,0,0,9.56-12.59,15,15,0,0,0,1.29-3.69l7.52,1-.92,2.07c-.37.75-.43.93-.69,1.5h24.1a50.84,50.84,0,0,0,6.66-.34v7.5c-1.77-.17-3.92-.29-6.66-.29H159.25c-.64,1-.91,1.45-1.5,2.31,1.29.06,2.25.12,2.9.12H183.9a46,46,0,0,0,5.9-.29V34a40.86,40.86,0,0,0-5.9-.29H162.1a44.39,44.39,0,0,0-5.16.23Zm-1.07,14a58.2,58.2,0,0,0-6.45.29V36a21.75,21.75,0,0,0,4.41.29h28.08a51.36,51.36,0,0,0,6.34-.23,45.1,45.1,0,0,0-.27,5.48,59.68,59.68,0,0,0,1.29,13.86c.53,2.13.8,2.82,1.61,3.81.7-1.1,1-3.76,1.07-8A17.54,17.54,0,0,0,197.11,55c-.49,5.43-1.08,8.25-2.26,10.51a4.61,4.61,0,0,1-4,2.77c-2.57,0-5.31-2.77-6.92-7.05-1.78-4.73-2.58-10.1-2.63-18.53H171l6.5,3.18c-.49.58-.92,1.21-2.1,2.94-1.34,2-2.47,3.52-3.7,5.08,3.22,2.66,5.53,4.74,8.8,7.85l-4.83,5.78A119.71,119.71,0,0,0,166.77,59c-4.14,3.7-7.84,6.12-14.82,9.64a26.79,26.79,0,0,0-4.62-6.35c6.66-2.88,10.31-4.9,14-7.91a96.9,96.9,0,0,0-8.86-6.23l4.68-4.62a105.7,105.7,0,0,1,9.07,6.12,26.4,26.4,0,0,0,4.4-6.93Z"/><path class="cls-2" d="M214.23,33.56c2,0,3-.06,3.71-.12-.33,4-.65,7.33-.76,8.37a47.42,47.42,0,0,1-3.43,13c4.13,4.1,8.48,5.31,19.27,5.31,6.77,0,12.73-.23,17.94-.75A29.71,29.71,0,0,0,249.35,67c-3.81.06-14,.17-16.22.17-11.6,0-17.4-1.67-22.44-6.52a40.5,40.5,0,0,1-6.77,7.91,22,22,0,0,0-4.4-6.53,32.87,32.87,0,0,0,6.55-7.15,54.44,54.44,0,0,1-3-5.43c-1.45-2.94-1.45-2.94-2-4.1l5.53-3.4a37.23,37.23,0,0,0,2.69,6.63,40.57,40.57,0,0,0,1.93-8.48h-5.32c-1.5,0-2.9.06-4.08.17V33.5a56.42,56.42,0,0,0,7.36-10.1h-4.56a25,25,0,0,0-3.66.23v-7.1a26.77,26.77,0,0,0,3.92.23H211a18.83,18.83,0,0,0,3.81-.23l3.11,4.5c-.37.52-1.18,1.91-2.52,4.27-.91,1.56-1.24,2.08-5.32,8.26Zm14.44-10.34h-6a35.3,35.3,0,0,0-3.75.18V17.57a29.43,29.43,0,0,0,4.24.23h5.47a17.25,17.25,0,0,0-.26-3.52h7.08a18.21,18.21,0,0,0-.32,3.52h7.73a30,30,0,0,0,4.14-.23,36.21,36.21,0,0,0-.16,3.69v4.16a19.33,19.33,0,0,0,3.49-.35v6.58a21.33,21.33,0,0,0-3.49-.23v4.1A34.34,34.34,0,0,0,247,39c-1.29-.12-2.36-.17-3.65-.17h-8.22v2.71h8.22a33,33,0,0,0,4.4-.23v6c-1.18-.11-2.52-.17-4.4-.17h-8.22v2.65H245a25.49,25.49,0,0,0,4.72-.28v6.11c-1.34-.11-2.79-.17-4.72-.17h-9.83a28.51,28.51,0,0,0,.27,3.47h-7.09a19.55,19.55,0,0,0,.32-3.47h-7.08a43.67,43.67,0,0,0-4.51.17V49.6a32.82,32.82,0,0,0,4.56.23h7V47.18h-5.79a31,31,0,0,0-4.14.23V41.35a29.47,29.47,0,0,0,4.14.23h5.79V38.87h-6.06a28.24,28.24,0,0,0-3.33.17V33.38a19.85,19.85,0,0,0,3.7.23h5.69V31.07h-7.89a29.9,29.9,0,0,0-4.4.18V25.53a26.71,26.71,0,0,0,4.67.23h7.62Zm11.87,2.54V23.22h-5.37v2.54Zm-5.37,7.85h5.37V31.07h-5.37Z"/><path class="cls-2" d="M254.28,23.86a22.37,22.37,0,0,0,4.35.29h11.49a26.51,26.51,0,0,0,4.35-.23v6.75a24.94,24.94,0,0,0-4.13-.17H258.63a28.9,28.9,0,0,0-4.35.23Zm20.78,14.49a17.92,17.92,0,0,0,3.28.23,31.49,31.49,0,0,0-5.1-4.33v4.67a18.3,18.3,0,0,0-3.28-.17H259.44a26.27,26.27,0,0,0-3.38.17v-6a24.56,24.56,0,0,0,3.38.17H270a16.25,16.25,0,0,0,3.28-.17v1.16c4-3.29,5.21-6.82,5.21-14.55a19.45,19.45,0,0,0-.27-3.52,31.48,31.48,0,0,0,4.24.23h9.07A34,34,0,0,0,296,16c-.11,1.27-.16,2.6-.16,4.56v8.37c0,.69.32.86,1.4.86,1.82,0,1.82,0,2-6.75a24.66,24.66,0,0,0,5.42,2.37c-.32,5.42-.7,7.56-1.66,8.94s-2.31,1.79-6.66,1.79c-5.75,0-6.82-.63-6.82-4V22.94h-4.78c-.22,5.42-1,8.6-3,12.06A16.8,16.8,0,0,1,279,38.58h15.57a23.22,23.22,0,0,0,3.66-.18l3.33,3.47c-.33.69-.33.69-1.08,2.48a43.89,43.89,0,0,1-7,12.35,39,39,0,0,0,11.38,4.16,36.68,36.68,0,0,0-3.16,7.39c-6.29-2.14-9.94-3.93-13.37-6.47A40.84,40.84,0,0,1,276,68.42a28.17,28.17,0,0,0-2.63-5.14,38.5,38.5,0,0,0,.16,4.22h-6.28V65.71h-5.1v2.6h-6.5c.16-1.91.27-3.76.27-5.72V53.76a38,38,0,0,0-.22-4.45,39.15,39.15,0,0,0,4.08.18h10.26a15.63,15.63,0,0,0,3.44-.18,39.41,39.41,0,0,0-.11,4v7.9A33.42,33.42,0,0,0,282.9,57a31.81,31.81,0,0,1-2.68-3.11c-3.55-4.8-3.55-4.8-4.14-5.49l5.53-3.17h-2.25a29.42,29.42,0,0,0-4.3.23ZM256,15.72a34.23,34.23,0,0,0,4.67.23h8.05a34.49,34.49,0,0,0,4.68-.23v6.06c-1.51-.11-2.53-.17-4.68-.17h-8.05c-2,0-3.38.06-4.67.17Zm.11,25.4a26.27,26.27,0,0,0,3.38.17H270a23,23,0,0,0,3.28-.17v6a18.58,18.58,0,0,0-3.38-.17H259.38a18.15,18.15,0,0,0-3.32.17Zm6.06,18.7h5.16V55.09h-5.16Zm20.14-14.6A24.78,24.78,0,0,0,288,52.66a27.13,27.13,0,0,0,4.84-7.44Z"/><path class="cls-2" d="M343.79,36.67h7.14a42.65,42.65,0,0,0,6-.34V44a46.72,46.72,0,0,0-6.07-.34h-5.26a36.86,36.86,0,0,0,12.94,13.45,26.64,26.64,0,0,0-3.87,7.44,40.92,40.92,0,0,1-11.17-14.14c.11,1.91.16,3.87.16,5.43v5.77a50.34,50.34,0,0,0,.38,6.93h-7.3a66.09,66.09,0,0,0,.32-6.93V56.36c0-1.62.05-3.47.16-5.72a39,39,0,0,1-12,14,28,28,0,0,0-3.86-6.69,35.59,35.59,0,0,0,8-6.47A38.71,38.71,0,0,0,335,43.66h-3.22a40.29,40.29,0,0,0-6.13.4V40.54a39.07,39.07,0,0,0-2,6.7,27.35,27.35,0,0,1-2.9-6.24c.11,1.73.17,4.45.17,6.81V61.26a66,66,0,0,0,.32,7.28h-7.31a66.4,66.4,0,0,0,.33-7.28V51.05c0-1.33.1-3.81.27-6.53a39.27,39.27,0,0,1-5,11.55A32.16,32.16,0,0,0,307,48c2.63-3.57,5.31-10.27,6.66-16.45H312a14.58,14.58,0,0,0-3.55.29V24.55a14.28,14.28,0,0,0,3.55.29h2.25V20.63a41,41,0,0,0-.32-6.07h7.36a43.24,43.24,0,0,0-.32,6v4.27h1.18a12.21,12.21,0,0,0,2.68-.23v5.14a39.44,39.44,0,0,0,3.71-13.4l6.39,1.74c-.22.69-.38,1.44-.81,3.29-.21.92-.27,1.21-.48,2.19h3.49V20.34a41,41,0,0,0-.32-5.66h7.35a40.07,40.07,0,0,0-.32,5.6v3.29h5.64a40,40,0,0,0,6-.35v7.62a43.64,43.64,0,0,0-6-.34h-5.58ZM331.44,30.5a36.08,36.08,0,0,1-2.68,5.88,23.83,23.83,0,0,0-5-4.73c-.75-.06-1.07-.06-1.56-.06h-1a30.24,30.24,0,0,0,4.51,8.2V36.27a28.48,28.48,0,0,0,6.13.4h5.26V30.5Z"/><path class="cls-2" d="M405.21,24a28.75,28.75,0,0,0,5.21-.29v7.51a50.07,50.07,0,0,0-6.6-.35h-7.09c.54,9.53,1.56,15.82,3.44,20.78,1.28,3.29,3.33,6.81,4,6.81.48,0,1.18-3.34,1.77-8.71a25.18,25.18,0,0,0,5.8,3.75c-.75,5.71-1.61,8.95-3.06,11.37-1.07,1.79-2.52,2.83-4.14,2.83-1.93,0-4.45-1.73-6.38-4.33A40.17,40.17,0,0,1,392.81,52c-1.67-5.83-2.58-12.06-3.06-21.07h-21a59,59,0,0,0-6.6.35V23.69a51.62,51.62,0,0,0,6.6.34h20.73c-.05-2.48-.05-2.48-.11-4.56,0-1.44-.16-3.12-.27-4.15h7.58a31.27,31.27,0,0,0-.22,4.09c0,.41,0,.41.05,4.62h6.66a33.7,33.7,0,0,0-5.37-5.25l5-3.52a49.77,49.77,0,0,1,5.9,5.6L404.41,24ZM369.67,43.89c-2,0-4,.11-5.64.23V37a48.7,48.7,0,0,0,5.8.29h12.56a48.37,48.37,0,0,0,5.75-.29v7.1c-1.67-.17-3.6-.23-5.64-.23h-3v12c3.76-.75,5.8-1.27,10.58-2.54v7c-9.93,2.54-16.43,3.93-23.3,5a29.38,29.38,0,0,0-3.55.64l-1.07-7.74a76.85,76.85,0,0,0,10.42-1.15V43.89Z"/><path class="cls-2" d="M426.1,34.36A56.92,56.92,0,0,1,418,38.87a25.32,25.32,0,0,0-3.55-7.16,44.85,44.85,0,0,0,12.95-7.27,34.88,34.88,0,0,0,8.75-9.53h7.46a33.67,33.67,0,0,0,9.08,9.29A49.6,49.6,0,0,0,466,31.3,35.66,35.66,0,0,0,462.66,39a49.54,49.54,0,0,1-8.59-4.73v3.92a41.94,41.94,0,0,0-5-.23h-18.2a42.9,42.9,0,0,0-4.78.23ZM423.3,49a48.08,48.08,0,0,0-6.39.34V41.64c1.83.17,4,.29,6.39.29H457c2.58,0,4.62-.12,6.39-.29v7.67A48.5,48.5,0,0,0,457,49H438.82a71.83,71.83,0,0,1-5.15,10.22c10.79-.58,10.79-.58,15.35-1.16-1.71-2.08-2.57-3.12-5.15-6l6.44-2.89A120.62,120.62,0,0,1,462.5,64.55l-6.28,4.28c-1.5-2.54-2-3.29-2.85-4.68-5.15.75-5.26.75-8.21,1-2.63.29-18.37,1.79-20.41,1.9a58.71,58.71,0,0,0-5.9.7l-.92-8.26c1.62.12,2.42.12,3.76.12.54,0,1.83,0,3.82-.06A75.71,75.71,0,0,0,430.77,49Zm26.21-17.84A43.57,43.57,0,0,1,440,21.55a42.53,42.53,0,0,1-9.45,9.58Z"/><path class="cls-2" d="M483.49,62.42a45,45,0,0,0,.27,6h-7.52a45.06,45.06,0,0,0,.33-6.17V49a35.42,35.42,0,0,1-5.43,4.27,29.1,29.1,0,0,0-3.06-7.1,37.42,37.42,0,0,0,8.86-7.22,30.11,30.11,0,0,0,5.64-8.48h-8.11a34.56,34.56,0,0,0-4.62.23V23.22a27.42,27.42,0,0,0,4.19.23h2.58V18.89a29.5,29.5,0,0,0-.32-4.38h7.46a26.19,26.19,0,0,0-.32,4.44v4.5h1.88a18.21,18.21,0,0,0,3.11-.17l3,3.46c-.54,1-.75,1.51-1.24,2.6a46.72,46.72,0,0,1-5.1,9.58,29.37,29.37,0,0,0,8.54,7.22A37.39,37.39,0,0,0,490.2,53a28.24,28.24,0,0,1-6.71-6.18Zm23.25-3.35h5.37a49,49,0,0,0,6.34-.29v7.91a57.61,57.61,0,0,0-6.28-.35h-18a53,53,0,0,0-6.12.35V58.78a49.53,49.53,0,0,0,6.23.29h5.2V37.31h-3.43a51.5,51.5,0,0,0-5.26.29V29.8a42,42,0,0,0,5.26.29h3.43V21a58.61,58.61,0,0,0-.32-6.41h7.89a48.5,48.5,0,0,0-.32,6.41v9.06h4.94A31.83,31.83,0,0,0,517,29.8v7.8a51.89,51.89,0,0,0-5.32-.29h-4.94Z"/></g></g></svg>