<svg id="レイヤー_1" data-name="レイヤー 1" xmlns="http://www.w3.org/2000/svg" viewBox="0 0 946.31 349.49"><defs><style>.cls-1{fill:#a3a3a3;}.cls-2{fill:none;stroke:#707070;}.cls-3{isolation:isolate;}.cls-4{fill:#71976b;}</style></defs><g id="グループ_15" data-name="グループ 15"><g id="グループ_12" data-name="グループ 12"><g id="長方形_137" data-name="長方形 137"><rect class="cls-1" x="16.31" width="352" height="266"/><rect class="cls-2" x="16.81" y="0.5" width="351" height="265"/></g><g id="道をつくるために山を削ってできた法面_このままにしておくと見た目が良くないばかりでなく_風化して表土が落ちてくる可能性があります_" data-name="道をつくるために山を削ってできた法面 このままにしておくと見た目が良くないばかりでなく 風化して表土が落ちてくる可能性があります " class="cls-3"><g class="cls-3"><path d="M543.13,650.69a8.31,8.31,0,0,0,1.23.13h1.06a7.57,7.57,0,0,1,.61-.66,12.14,12.14,0,0,1,1,.74c.08.06.11.11.11.16a.18.18,0,0,1,0,.11,1,1,0,0,1-.21.17l-.27.23v3.87a2.12,2.12,0,0,0,1,1.27,11,11,0,0,0,4.31.51c1.46,0,4-.13,6.34-.3v.14a1.35,1.35,0,0,0-.72.53c0,.06-.11.27-.24.65-1.49,0-2.82,0-5,0-2.94,0-4-.24-5.09-1.11a3.69,3.69,0,0,1-1.14-1.81,20.47,20.47,0,0,1-1.79,2.34c-.08.67-.11.75-.24.75a.27.27,0,0,1-.19-.13,5.91,5.91,0,0,1-.34-.7c-.16-.34-.2-.43-.4-.8a15.2,15.2,0,0,0,2.31-1.35v-4.29h-1.14a7.74,7.74,0,0,0-1.07.1Zm.61-6.16a13.78,13.78,0,0,1,2.24,1.63c.45.37.57.59.57,1s-.35,1.17-.6,1.17-.28-.13-.64-1a8.86,8.86,0,0,0-1.73-2.6Zm9.2,2.19a10.43,10.43,0,0,0,.95-2.66l1.69.47a.21.21,0,0,1,.16.19c0,.14-.09.17-.77.3a10.13,10.13,0,0,1-1.66,1.7h2.32c.32-.45.43-.59.82-1.09.62.48.81.64,1.44,1.15.09.08.14.15.14.19s0,.12-.21.12h-4.67a12,12,0,0,1-1.44,1.6h3c.29-.27.37-.37.69-.67.42.31.55.43.93.75.1.09.14.14.14.17s-.25.28-.48.37v3.19c0,.81,0,.94.08,3.49,0,.14,0,.19-.12.24a1.74,1.74,0,0,1-.69.12c-.24,0-.31,0-.31-.22v-.32h-5.13v.32c0,.13-.07.18-.15.21l-.72.06a.19.19,0,0,1-.21-.19v-.08c0-1.49,0-2.26,0-3.12,0-2.35,0-4.13-.08-5a8.61,8.61,0,0,1,1.28.69h1.35a15.43,15.43,0,0,0,.48-1.6h-3.36a10,10,0,0,0-1.22.09l-.18-.56a5.88,5.88,0,0,0,.71.07l.69,0h2.27c-.11-.08-.15-.15-.23-.42a5.06,5.06,0,0,0-1-2.11l.19-.13a9.54,9.54,0,0,1,1.41,1.06.88.88,0,0,1,.4.73,1.22,1.22,0,0,1-.4.87Zm2,4.1v-1.76h-5.13v1.76Zm-5.13.36v1.91H555v-1.91Zm0,2.28v2H555v-2Z" transform="translate(-488.65 -363.54)"/><path d="M560.15,647a2.64,2.64,0,0,0,2,.75,8.72,8.72,0,0,0,1.71-.2,4.41,4.41,0,0,0,.56-1.64c0-.43-.31-.69-1.14-.89a1.23,1.23,0,0,1,.72-.18,3.52,3.52,0,0,1,1.25.27c.4.16.58.34.58.53s-.07.22-.26.46l-.46.66-.4.63a5.32,5.32,0,0,0,2.3-1,.45.45,0,0,1,.31-.11c.62,0,1.07.22,1.07.53s-.21.35-.69.51a25.44,25.44,0,0,1-3.49.91c-.29.4-.48.69-.85,1.25s-.56.85-.86,1.28a4.34,4.34,0,0,1,2.06-.64,1.77,1.77,0,0,1,1.79,1.6l1.57-.78c1.59-.8,2-1.06,2-1.35s-.27-.56-.73-.75a.76.76,0,0,1,.36-.1,2.25,2.25,0,0,1,1.81,1.62c0,.29-.13.4-.57.5a26,26,0,0,0-4.29,1.64c0,.52,0,.61,0,1.3a4.45,4.45,0,0,1-.13,1.38.5.5,0,0,1-.44.3.48.48,0,0,1-.52-.48,1.37,1.37,0,0,1,0-.27,14.84,14.84,0,0,0,.11-1.71,8.13,8.13,0,0,0-1.87,1.26,2.13,2.13,0,0,0-.78,1.49c0,.86.88,1.28,2.67,1.28a11.54,11.54,0,0,0,3.22-.45,1.25,1.25,0,0,1,.3,0c.5,0,1.12.45,1.12.81,0,.2-.18.36-.5.43a17.52,17.52,0,0,1-2.86.22,8.36,8.36,0,0,1-3.25-.46,1.76,1.76,0,0,1-1.18-1.7,3,3,0,0,1,1.15-2.19,11.65,11.65,0,0,1,2-1.43,2.6,2.6,0,0,0-.22-1.26.92.92,0,0,0-.82-.48c-1,0-2.32.85-3.47,2.32-.31.42-.43.51-.59.51s-.44-.33-.44-.85c0-.33,0-.35.47-.72a13,13,0,0,0,3-3.44,6.21,6.21,0,0,1-1.08.1,2.57,2.57,0,0,1-2.38-1.24Z" transform="translate(-488.65 -363.54)"/><path d="M578.68,656.48a13.51,13.51,0,0,0,3.54-1.34,5.13,5.13,0,0,0,2.95-4.31,2.68,2.68,0,0,0-2.93-2.69,11.51,11.51,0,0,0-6.44,2.68.93.93,0,0,1-.61.27,2.46,2.46,0,0,1-1.92-1.84,1,1,0,0,1,.13-.4,1.32,1.32,0,0,0,.45.59,1,1,0,0,0,.66.26,5.43,5.43,0,0,0,1.93-.58,14.4,14.4,0,0,1,5.86-1.54c2.43,0,4.1,1.43,4.1,3.52s-1.35,3.7-3.68,4.69a12.32,12.32,0,0,1-4,.93Z" transform="translate(-488.65 -363.54)"/><path d="M593.28,644.57a3.34,3.34,0,0,1,1.77.85c.26.26.36.42.36.64s-.08.31-.93,1-2.44,2.2-3,2.77-.77,1-.77,1.3a1.35,1.35,0,0,0,.48.83c.23.24.23.24,1.12,1.06a13.94,13.94,0,0,1,2.95,3.26,2,2,0,0,1,.24,1.06c0,.61-.21,1-.54,1s-.28-.08-.55-.66a15.16,15.16,0,0,0-1.34-2.25,31.29,31.29,0,0,0-2.34-2.9,2.09,2.09,0,0,1-.61-1.34c0-.52.26-.95,1.23-2.15,1.94-2.35,2.42-3,2.42-3.41s-.21-.51-.88-.94A.71.71,0,0,1,593.28,644.57Z" transform="translate(-488.65 -363.54)"/><path d="M606.35,646.37c-.62.19-2.13.78-3.23,1.26a1.78,1.78,0,0,1-.66.21c-.29,0-.61-.22-.91-.67a2.3,2.3,0,0,1-.45-1.19.65.65,0,0,1,.14-.41c.24.75.68,1.16,1.2,1.16a17.81,17.81,0,0,0,3-.68,2,2,0,0,0,1-.5.4.4,0,0,1,.23-.08c.2,0,.46.16.86.56s.48.53.48.72-.08.21-.27.3a4.3,4.3,0,0,0-1.33,1.08c-1,1-1.6,1.6-2.35,2.4-1.54,1.65-1.54,1.65-1.88,2l0,0a8,8,0,0,1,4.35-1.52c2,0,3.43,1.2,3.43,3,0,2.29-2.13,4-5,4-1.57,0-2.58-.62-2.58-1.6,0-.78.74-1.36,1.73-1.36a2.93,2.93,0,0,1,2,.79,3.16,3.16,0,0,1,.71,1,3.15,3.15,0,0,0,1.93-3,2.21,2.21,0,0,0-1-2,3.55,3.55,0,0,0-1.58-.32c-1.57,0-3.76,1.28-5.09,3-.27.33-.39.43-.55.43s-.53-.56-.53-1a.78.78,0,0,1,.34-.56,14.24,14.24,0,0,0,2.23-2.23c2-2.19,2.56-2.89,3.82-4.53.13-.17.13-.17.16-.25s0,0,0,0h-.06l-.08,0Zm-2.47,9.18c-.6,0-1,.32-1,.82s.7,1,1.82,1a4,4,0,0,0,1.14-.15A2.11,2.11,0,0,0,603.88,655.55Z" transform="translate(-488.65 -363.54)"/><path d="M612.65,648.16a2.2,2.2,0,0,0,1.76.88,7.68,7.68,0,0,0,2-.3A11.68,11.68,0,0,0,617,646c0-.5-.24-.7-1.14-1a.87.87,0,0,1,.5-.14,4.05,4.05,0,0,1,1.37.3c.48.18.72.4.72.64s0,.11-.19.39a12.87,12.87,0,0,0-1,2.29,5.68,5.68,0,0,0,1.86-1c.25-.24.32-.27.45-.27a3.2,3.2,0,0,1,.85.17c.17.07.25.16.25.29s-.25.48-.93.79a18.39,18.39,0,0,1-2.8.92c-.19.55-.19.55-.67,2L615.1,655c-.64,1.9-.85,2.3-1.18,2.3-.17,0-.28-.09-.37-.32a2.4,2.4,0,0,1-.23-.93c0-.25,0-.3.35-.78a22.62,22.62,0,0,0,2.52-5.73,8.39,8.39,0,0,1-1.54.16,2.34,2.34,0,0,1-2.19-1.44Zm6.39,5.52c0,.24,0,.43,0,.5a2,2,0,0,0,1.22,1.93,4.39,4.39,0,0,0,1.71.31,3.9,3.9,0,0,0,1.54-.24.67.67,0,0,1,.27-.07,1.86,1.86,0,0,1,.82.39.62.62,0,0,1,.28.45c0,.35-.62.52-1.89.52a7.09,7.09,0,0,1-3-.51,2.44,2.44,0,0,1-1.36-2.32,3.1,3.1,0,0,1,.15-1Zm.43-3a7.32,7.32,0,0,1,3.71-1.07,1.9,1.9,0,0,1,1,.29.52.52,0,0,1,.26.44c0,.26-.15.36-.61.37a2.27,2.27,0,0,0-1.23.32,7.72,7.72,0,0,0-.88.55l-.56.33-.1-.14c.19-.19.19-.19.77-.72.14-.13.29-.26.78-.75a8.32,8.32,0,0,0-3.06.59Z" transform="translate(-488.65 -363.54)"/><path d="M628.65,646.27a3.86,3.86,0,0,1,1.23,1.31,8.4,8.4,0,0,1,.5,1.68,8.44,8.44,0,0,1,3.35-1,7.94,7.94,0,0,0,.3-1.87c0-.4-.18-.53-.75-.53H633l-.05-.17a2.7,2.7,0,0,1,1-.27c.61,0,1.26.51,1.26,1a8.58,8.58,0,0,1-.48,1.86c2.66.11,4.49,1.82,4.49,4.22a4.84,4.84,0,0,1-2.92,4.29,8.38,8.38,0,0,1-3.13.93l-.07-.22a8.06,8.06,0,0,0,3.11-1.6,4.8,4.8,0,0,0,1.76-3.67,3.42,3.42,0,0,0-1.38-2.88,3.57,3.57,0,0,0-2-.62,20.25,20.25,0,0,1-2.69,5,7.62,7.62,0,0,0,.58.8c.46.58.49.64.49.83a.37.37,0,0,1-.38.36c-.37,0-.87-.44-1.38-1.17a6.4,6.4,0,0,1-1.23,1.18,2.18,2.18,0,0,1-1.28.58c-.37,0-.55-.21-.7-.82a2.64,2.64,0,0,0-.49-1,1.52,1.52,0,0,1-.36-1c0-1.27.91-2.63,2.51-3.73-.29-1.83-.46-2.34-1.22-3.27Zm-.06,5.51a3.74,3.74,0,0,0-.55,1.89c0,.72.45,1.53.84,1.53a4.22,4.22,0,0,0,1.93-1.37,15.15,15.15,0,0,1-1-3.46A5,5,0,0,0,628.59,651.78Zm2.89,1.21a14.93,14.93,0,0,0,2.1-4.25,6.34,6.34,0,0,0-3.09,1.15A15.13,15.13,0,0,0,631.48,653Z" transform="translate(-488.65 -363.54)"/><path d="M644.78,651.65c0,.14-.27,1.15-.72,3a6.41,6.41,0,0,0-.27,1.69,2.33,2.33,0,0,1,0,.69.4.4,0,0,1-.39.28c-.27,0-.51-.23-.68-.66a9.31,9.31,0,0,1-.56-3.41,14.22,14.22,0,0,1,.12-1.71,28.36,28.36,0,0,1,.56-3A6.88,6.88,0,0,0,643,647a2.82,2.82,0,0,0-.45-1.5c.35,0,.64.22,1.07.78a2.18,2.18,0,0,1,.6,1.27c0,.25,0,.32-.34,1a13.56,13.56,0,0,0-.86,2.54,8.5,8.5,0,0,0-.21,2,6.14,6.14,0,0,0,.3,2.11,14.14,14.14,0,0,0,.58-1.36l.85-2.24Zm2,.8a4.68,4.68,0,0,0,0,.67c0,1.76,1,2.48,3.49,2.48a7.57,7.57,0,0,0,1.36-.11,2.62,2.62,0,0,0,.85-.26.75.75,0,0,1,.24,0,1.24,1.24,0,0,1,1,.94c0,.19-.13.32-.36.4a8,8,0,0,1-2,.18c-2,0-3.42-.34-4.14-1a2.65,2.65,0,0,1-.87-2.08,4.55,4.55,0,0,1,.19-1.27Zm0-5.09a2.49,2.49,0,0,0,1.49.43,8.44,8.44,0,0,0,3.22-.72c.21-.11.24-.13.35-.13a1.15,1.15,0,0,1,.56.23c.34.19.5.38.5.59s-.11.3-.45.37a8.89,8.89,0,0,0-2.27.56,17,17,0,0,0-2.07,1.13l-.16-.16c.72-.6,1.27-1,1.52-1.24l-.65,0a2.81,2.81,0,0,1-2.18-.9Z" transform="translate(-488.65 -363.54)"/><path d="M657.39,657v1.07c0,.23-.12.27-.6.31h-.33c-.18,0-.24-.06-.24-.22.06-2,.08-3.43.08-5.89,0-2.29,0-3.62-.07-4.71,1.54.23,1.73.29,1.73.45s-.09.21-.57.37v8.24h4.37V646.46c0-.48,0-1.42,0-1.87a7.56,7.56,0,0,1,1.76.27c.1,0,.16.11.16.18s-.08.16-.7.35l0,11.22h4.66v-7.35a9.29,9.29,0,0,0-.13-1.64l.83.11c.82.08,1.07.16,1.07.32s-.16.25-.65.43l0,4.64c0,.91,0,1.65.06,5,0,.22-.11.27-.59.3a1.11,1.11,0,0,0-.29,0h0c-.18,0-.24-.07-.24-.23V657Z" transform="translate(-488.65 -363.54)"/><path d="M671.82,647a2.63,2.63,0,0,0,2,.75,8.64,8.64,0,0,0,1.71-.2,4.41,4.41,0,0,0,.56-1.64c0-.43-.3-.69-1.13-.89a1.21,1.21,0,0,1,.72-.18,3.57,3.57,0,0,1,1.25.27c.4.16.57.34.57.53s-.06.22-.25.46-.34.48-.47.66l-.4.63a5.31,5.31,0,0,0,2.31-1,.43.43,0,0,1,.3-.11c.62,0,1.07.22,1.07.53s-.21.35-.69.51a25.08,25.08,0,0,1-3.49.91c-.28.4-.48.69-.84,1.25s-.56.85-.87,1.28a4.4,4.4,0,0,1,2.07-.64,1.77,1.77,0,0,1,1.79,1.6l1.57-.78c1.58-.8,2-1.06,2-1.35s-.28-.56-.74-.75a.82.82,0,0,1,.37-.1,2.26,2.26,0,0,1,1.81,1.62c0,.29-.13.4-.58.5a26,26,0,0,0-4.29,1.64c0,.52,0,.61,0,1.3a4.45,4.45,0,0,1-.13,1.38.52.52,0,0,1-.45.3.48.48,0,0,1-.51-.48,1.37,1.37,0,0,1,0-.27c.06-.46.09-1,.11-1.71a8.25,8.25,0,0,0-1.88,1.26,2.17,2.17,0,0,0-.78,1.49c0,.86.88,1.28,2.67,1.28a11.54,11.54,0,0,0,3.22-.45,1.25,1.25,0,0,1,.3,0c.5,0,1.13.45,1.13.81,0,.2-.18.36-.5.43a17.65,17.65,0,0,1-2.87.22,8.39,8.39,0,0,1-3.25-.46,1.77,1.77,0,0,1-1.18-1.7,3.05,3.05,0,0,1,1.15-2.19,11.84,11.84,0,0,1,2-1.43,2.7,2.7,0,0,0-.23-1.26.9.9,0,0,0-.81-.48c-1.06,0-2.32.85-3.48,2.32-.3.42-.43.51-.59.51s-.43-.33-.43-.85c0-.33,0-.35.46-.72a12.83,12.83,0,0,0,3-3.44,6.19,6.19,0,0,1-1.07.1,2.59,2.59,0,0,1-2.39-1.24Z" transform="translate(-488.65 -363.54)"/><path d="M685.82,644.75a8.11,8.11,0,0,1,1.74,1.46c.36.41.47.62.47.88,0,.51-.26,1-.5,1s-.22-.09-.32-.38-.05-.14-.62-1.43a6,6,0,0,0-.91-1.42Zm5.94,3.91a2.83,2.83,0,0,1,.48-.55,6.17,6.17,0,0,1,1,.69c.09.08.14.13.14.18s-.13.19-.46.44v5.11c0,2.27,0,2.27,0,2.75a.84.84,0,0,1-.47.77,3.77,3.77,0,0,1-1.37.37c-.1-.74-.1-.75-1.62-1.1v-.21l1.23,0,.82,0c.19,0,.29-.08.29-.24v-2.76h-4.6v3.91c0,.18-.06.22-.21.26a3.23,3.23,0,0,1-.73.09c-.15,0-.23-.06-.23-.17v0c.07-2,.08-4.08.08-8,0-.49,0-.91,0-2.19a6,6,0,0,1,1.34.66H689v-3.38c0-.32,0-.58-.07-1.15l.87.11c.64.08.94.19.94.3s-.11.19-.7.43v3.69Zm0,2.52V649h-4.6v2.16Zm-4.6.37v2.28h4.6v-2.28Zm3.28-3.26a16.83,16.83,0,0,0,1.57-3.64c1.39.47,1.7.6,1.7.72s-.27.23-.8.24a17.74,17.74,0,0,1-2.27,2.81Zm4.12-2.93c1.16.13,1.73.25,1.73.4s-.1.17-.63.4c0,2.58,0,2.58,0,5.36,0,1.41,0,2,0,3.35,0,.17,0,.24-.16.28a2.8,2.8,0,0,1-.7.1c-.18,0-.26-.06-.27-.24,0-1.82.06-7.19.06-8.31l0-.83Zm2.77.24c0-.26,0-.31,0-1.33l.87.13c.83.11,1,.16,1,.33s0,.18-.67.37v7.28c0,1,0,2.61,0,4.78,0,.54-.1.72-.34.89a4.35,4.35,0,0,1-1.37.5c-.16-.59-.18-.63-.32-.76a2.5,2.5,0,0,0-.82-.32l-.53-.09-.51-.1V657c.54,0,.54,0,1.42.06l1,0c.27,0,.32,0,.32-.26Z" transform="translate(-488.65 -363.54)"/><path d="M705.74,657.09a9.28,9.28,0,0,0,4.43-1.94,3.32,3.32,0,0,0,1.35-2.59,2.23,2.23,0,0,0-2.39-2.32,9.37,9.37,0,0,0-5.31,2.18,1.08,1.08,0,0,1-.64.3c-.59,0-1.55-1.15-1.55-1.89a.74.74,0,0,1,.11-.32c.26.58.61.88,1,.88a5.42,5.42,0,0,0,1.41-.45,20.45,20.45,0,0,1,3.65-1.13,6.52,6.52,0,0,1,1.25-.1c2.1,0,3.57,1.28,3.57,3.11a3.77,3.77,0,0,1-1.73,3,10.58,10.58,0,0,1-5.07,1.56Z" transform="translate(-488.65 -363.54)"/><path d="M714.72,647.92a.89.89,0,0,0,.72.27c.44,0,.84-.08,4.43-.94.67-.16,1.54-.36,2.59-.56a16.19,16.19,0,0,0,2.16-.52,2.19,2.19,0,0,1,.56-.12,2.12,2.12,0,0,1,.87.33c.32.21.46.39.46.61s-.19.4-.49.4h-.29a1.91,1.91,0,0,0-.45,0,5.67,5.67,0,0,0-5.38,5.3,3.25,3.25,0,0,0,2.11,3.15,5,5,0,0,0,1.64.39.83.83,0,0,1,.67.25,1.4,1.4,0,0,1,.48.77c0,.27-.24.45-.59.45A6.56,6.56,0,0,1,721,656.5a4.24,4.24,0,0,1-1.86-3.59,5.94,5.94,0,0,1,1.75-3.9,8.21,8.21,0,0,1,2.6-1.83,26.46,26.46,0,0,0-4.59,1.11,18,18,0,0,0-2.56,1,1.08,1.08,0,0,1-.64.23,1.77,1.77,0,0,1-1.23-.95,2.22,2.22,0,0,1-.42-1.07.61.61,0,0,1,.18-.42A1.68,1.68,0,0,0,714.72,647.92Z" transform="translate(-488.65 -363.54)"/><path d="M728.89,648a.91.91,0,0,0,.72.27c.45,0,.85-.08,4.45-.94.58-.15,1.49-.36,2.59-.56a18.4,18.4,0,0,0,2.17-.53,1.89,1.89,0,0,1,.56-.13,2,2,0,0,1,.86.34c.32.19.46.4.46.6s-.19.41-.49.41a1.9,1.9,0,0,1-.31,0,2.27,2.27,0,0,0-.44,0,5.68,5.68,0,0,0-5.38,5.34,3.23,3.23,0,0,0,2.13,3.12,4.73,4.73,0,0,0,1.61.39.84.84,0,0,1,.68.25,1.35,1.35,0,0,1,.48.77c0,.26-.24.45-.58.45a6.63,6.63,0,0,1-3.27-1.15,4.27,4.27,0,0,1-1.85-3.59,6,6,0,0,1,1.74-3.9,8.19,8.19,0,0,1,2.61-1.84,27.26,27.26,0,0,0-7.15,2.14,1.1,1.1,0,0,1-.64.23,1.77,1.77,0,0,1-1.24-1,2.29,2.29,0,0,1-.41-1.07.7.7,0,0,1,.17-.43A1.81,1.81,0,0,0,728.89,648Zm9.51,1.44a8.53,8.53,0,0,1,1.42,1c.58.53.8.9.8,1.28s-.22.67-.49.67-.21,0-.71-1a7.4,7.4,0,0,0-1.23-1.69Zm1.65-.93a8.35,8.35,0,0,1,1.53.91c.61.47.82.8.82,1.24s-.16.65-.4.65-.24-.08-.37-.3a7.44,7.44,0,0,0-1.76-2.27Z" transform="translate(-488.65 -363.54)"/><path d="M744,647.29a3.16,3.16,0,0,0,2.13.73,8.84,8.84,0,0,0,2.63-.48,6.68,6.68,0,0,0-1.38-1.8,2.7,2.7,0,0,0-1.23-.33c.11-.28.2-.32.64-.42a2.87,2.87,0,0,1,.73-.08,1.89,1.89,0,0,1,1.09.21c.15.13.16.17.19.62s0,.32.66,1.59a5.32,5.32,0,0,0,2.29-1.19.71.71,0,0,1,.51-.16c.63,0,1,.15,1,.42s-.21.35-1,.7c-.26.11-1,.39-2.36.8l.35.6.79,1.31a12.19,12.19,0,0,0,2-.88,6,6,0,0,0-.83-.76l.11-.15a3.35,3.35,0,0,0,1.35.44l.29,0H754a.4.4,0,0,1,.44.4c0,.38-.93.88-3.11,1.64.5.85.58,1,.72,1.25.37.66.37.66.74,1.27a1.52,1.52,0,0,1,.27.86c0,.63-.21,1-.53,1-.14,0-.19,0-.45-.24a6.4,6.4,0,0,0-3.71-1.1,4.34,4.34,0,0,0-2,.45,1.43,1.43,0,0,0-1,1.29c0,1,1.05,1.52,3,1.52a8.07,8.07,0,0,0,2-.22l.19,0c.48,0,1.06.45,1.06.84a.34.34,0,0,1-.24.31,8,8,0,0,1-2.19.24,8.53,8.53,0,0,1-3.08-.48,2.31,2.31,0,0,1-1.55-2c0-1.44,1.7-2.4,4.23-2.4a13.64,13.64,0,0,1,3,.35,15,15,0,0,0-1.2-2.72,11.53,11.53,0,0,1-3.4.61,2.77,2.77,0,0,1-1.67-.46,2.37,2.37,0,0,1-.77-1l.19-.15a2.09,2.09,0,0,0,1.89.95,12.43,12.43,0,0,0,3.43-.61c-.34-.63-.75-1.35-1.12-1.92a10.58,10.58,0,0,1-3,.51,3.09,3.09,0,0,1-2.34-1.17Z" transform="translate(-488.65 -363.54)"/><path d="M756.81,648.16a2.2,2.2,0,0,0,1.76.88,7.81,7.81,0,0,0,2-.3,11.55,11.55,0,0,0,.54-2.71c0-.5-.24-.7-1.14-1a.87.87,0,0,1,.5-.14,4.1,4.1,0,0,1,1.38.3c.48.18.72.4.72.64s0,.11-.2.39a13.71,13.71,0,0,0-1,2.29,5.57,5.57,0,0,0,1.86-1c.26-.24.32-.27.45-.27a3.2,3.2,0,0,1,.85.17c.17.07.25.16.25.29s-.25.48-.93.79a18.39,18.39,0,0,1-2.8.92c-.19.55-.19.55-.67,2l-1.2,3.57c-.64,1.9-.85,2.3-1.18,2.3-.16,0-.28-.09-.37-.32a2.4,2.4,0,0,1-.23-.93c0-.25,0-.3.36-.78a23.08,23.08,0,0,0,2.51-5.73,8.39,8.39,0,0,1-1.54.16,2.35,2.35,0,0,1-2.19-1.44Zm6.39,5.52c0,.24,0,.43,0,.5a2,2,0,0,0,1.22,1.93,4.39,4.39,0,0,0,1.71.31,3.87,3.87,0,0,0,1.54-.24.71.71,0,0,1,.27-.07,1.86,1.86,0,0,1,.82.39.62.62,0,0,1,.28.45c0,.35-.62.52-1.88.52a7.11,7.11,0,0,1-3-.51,2.44,2.44,0,0,1-1.36-2.32,3.39,3.39,0,0,1,.15-1Zm.43-3a7.35,7.35,0,0,1,3.71-1.07,1.9,1.9,0,0,1,1,.29.52.52,0,0,1,.26.44c0,.26-.15.36-.61.37a2.3,2.3,0,0,0-1.23.32,7.72,7.72,0,0,0-.88.55l-.56.33-.1-.14c.19-.19.19-.19.77-.72.14-.13.29-.26.78-.75a8.24,8.24,0,0,0-3,.59Z" transform="translate(-488.65 -363.54)"/><path d="M770.91,647.89a6.71,6.71,0,0,1,2,.93,1,1,0,0,1,.5.88c0,.48-.24.94-.48.94s-.19-.08-.35-.34a12,12,0,0,0-1.78-2.24Zm.05,5.82c.64.13,1,.21,1.15.21s.35-.19,1-1.74c.6-1.33.61-1.36,1.72-3.73.51-1.09.51-1.09.75-1.65l.22.06L773.36,654a3.74,3.74,0,0,0-.23.89,2,2,0,0,0,.13.59,5.25,5.25,0,0,1,.29,1.54,1.37,1.37,0,0,1-1.22,1.36.3.3,0,0,1-.32-.32,3.1,3.1,0,0,1,.07-.53,9.82,9.82,0,0,0,.24-2c0-.87-.32-1.22-1.4-1.55Zm1-9.15c2,.72,2.48,1.09,2.48,1.71,0,.43-.22.86-.43.86s-.21-.08-.37-.28a13.2,13.2,0,0,0-1.79-2.13Zm11,6.91c.48-.49.62-.65,1-1.1.66.48.85.64,1.49,1.18.08.08.11.13.11.18s-.06.11-.16.11H780a35.49,35.49,0,0,1-2.73,4.64c4.21-.24,4.21-.24,5.47-.37a27.93,27.93,0,0,0-2-2.8l.15-.11a27,27,0,0,1,2.78,2.43c.69.74.86,1,.86,1.4,0,.57-.27,1.21-.52,1.21s-.28-.11-.88-1.36c-.07-.13-.12-.22-.21-.41a36.52,36.52,0,0,1-3.78.73l-3.52.59c-.1.58-.16.73-.27.73s-.29-.42-.59-2h.67c.3,0,.3,0,1.39,0,.32-.65.46-1,1-2.27a13.78,13.78,0,0,0,.81-2.4h-2.56a8.47,8.47,0,0,0-1.29.1l-.12-.6a6.67,6.67,0,0,0,1.41.13H779v-3.39h-2a6.22,6.22,0,0,0-.91.06l-.13-.54a5.09,5.09,0,0,0,1.06.11h2V646a11.15,11.15,0,0,0-.11-1.71c1.61.16,1.92.22,1.92.41s0,.15-.72.42v2.59h2.33c.44-.5.56-.66,1-1.1.67.49.87.67,1.49,1.2.06.08.1.13.1.16s-.08.11-.18.11h-4.72v3.39Z" transform="translate(-488.65 -363.54)"/><path d="M794.72,645.39a15.55,15.55,0,0,1-1.76,3h5.95c.27-.33.37-.45.66-.78.49.33.64.45,1.07.78.11.1.16.15.16.19s-.14.24-.51.48c0,6.29,0,6.29,0,9.3a.22.22,0,0,1-.09.21,3.2,3.2,0,0,1-.89.1c-.16,0-.22,0-.22-.18v-.77H788.94v.77a.18.18,0,0,1-.16.18,3.66,3.66,0,0,1-.67.06c-.31,0-.35,0-.35-.17v-.07c.06-4.43.06-4.86.06-5.49,0-4.61,0-4.61-.06-5.39a12.9,12.9,0,0,1,1.42.78h3.33a14.43,14.43,0,0,0,.67-3h-4.24a20.11,20.11,0,0,0-2.08.08l-.11-.61a10.65,10.65,0,0,0,2.19.16h9.88c.43-.54.57-.7,1-1.21.73.57,1,.75,1.65,1.37,0,.05.06.08.06.11s-.06.1-.19.1Zm-5.78,3.33v8.6h2.45v-8.6Zm6.44,2.45v-2.45h-3v2.45Zm-3,3h3v-2.59h-3Zm0,3.19h3V654.5h-3Zm4,0h2.69v-8.6h-2.69Z" transform="translate(-488.65 -363.54)"/></g><g class="cls-3"><path d="M489.18,679.43c0,.36-.05.5-.05.72,0,1.91,1.2,2.8,3.78,2.8a10.9,10.9,0,0,0,3.54-.57.57.57,0,0,1,.27-.07,2,2,0,0,1,.88.32.78.78,0,0,1,.35.56c0,.24-.18.42-.51.5a18.6,18.6,0,0,1-3.73.32,6.5,6.5,0,0,1-3.73-.77,3.07,3.07,0,0,1-1.33-2.53,4.18,4.18,0,0,1,.26-1.34Zm.49-6.32a3.79,3.79,0,0,0,2.45.7,12.4,12.4,0,0,0,3.33-.48,1.66,1.66,0,0,1,.29-.06,1.09,1.09,0,0,1,1,.83c0,.28-.09.32-1.17.56a13.6,13.6,0,0,0-2.33.79c-.39.14-.39.14-1.32.54-.32.13-.32.15-.62.26l-.11-.24c.49-.29.75-.45,1.17-.68,1.08-.59,1.08-.59,1.34-.75-.35,0-.91,0-1.2,0a4.27,4.27,0,0,1-1.82-.43,4.1,4.1,0,0,1-1.13-.93Z" transform="translate(-488.65 -363.54)"/><path d="M506.91,684.22a7.21,7.21,0,0,0,3.74-2.23,5.65,5.65,0,0,0,1.43-3.85,4,4,0,0,0-1.81-3.54,5.22,5.22,0,0,0-2.77-.74,4,4,0,0,0-.56,0,2.15,2.15,0,0,1,.5,1.33,13.11,13.11,0,0,1-2.12,5.54c-1,1.6-1.79,2.39-2.38,2.39a1,1,0,0,1-.71-.34,3.31,3.31,0,0,1-.44-1,10.18,10.18,0,0,0-.71-1.51,3.12,3.12,0,0,1-.37-1.45,5,5,0,0,1,1.44-3.17,7.76,7.76,0,0,1,5.51-2.24,6,6,0,0,1,4.13,1.47,4.9,4.9,0,0,1,1.54,3.76,5.51,5.51,0,0,1-3.19,4.85,9.47,9.47,0,0,1-3.12,1Zm-5.27-5a3.73,3.73,0,0,0,.64,2.11c.23.29.43.47.61.47.35,0,1.12-.87,1.91-2.11a12.46,12.46,0,0,0,2-5,1.76,1.76,0,0,0-.23-.8C503.82,674.46,501.64,676.78,501.64,679.24Z" transform="translate(-488.65 -363.54)"/><path d="M516.11,674.28a3.28,3.28,0,0,0,2.57.86A13.83,13.83,0,0,0,521,675c-.06-2.45-.17-2.67-1.39-2.85.22-.22.35-.25.8-.25a4.65,4.65,0,0,1,1.34.2c.39.13.55.29.55.53s0,.1-.21.55a5.26,5.26,0,0,0-.29,1.69,8,8,0,0,0,3-.94.49.49,0,0,1,.19-.07,2,2,0,0,1,.83.28.48.48,0,0,1,.28.38c0,.23-.26.35-1.25.59a26,26,0,0,1-3.06.56c0,.42,0,.66,0,1s0,.75,0,1.45a12.63,12.63,0,0,0,1.83-.43,2.5,2.5,0,0,0,.8-.4.36.36,0,0,1,.24-.06,1.81,1.81,0,0,1,.81.24.31.31,0,0,1,.19.3c0,.29-.22.42-1.23.69a16.45,16.45,0,0,1-2.61.46c0,.63,0,.89.05,1.45s0,.84.1,1.24a8.41,8.41,0,0,1,3.52,1.38,1.39,1.39,0,0,1,.46,1.06c0,.33-.14.56-.35.56s-.22-.05-.64-.45a8.8,8.8,0,0,0-1.34-1,6,6,0,0,0-1.61-.68,5.85,5.85,0,0,1,0,.71,1.58,1.58,0,0,1-.54,1.34,3.59,3.59,0,0,1-2.15.6c-1.6,0-2.7-.71-2.7-1.72s1.49-1.93,3.62-1.93h.8c0-.77,0-.88,0-1.1V679c-.64,0-.94,0-1.18,0a4.38,4.38,0,0,1-2.13-.35,1.38,1.38,0,0,1-.72-1.22,4,4,0,0,1,0-.44h.24c0,.5.09.72.34.91a3.28,3.28,0,0,0,1.87.36,13.44,13.44,0,0,0,1.55-.12v-1.12l0-1.16v-.2c-.88.08-1.52.12-2.07.12a3,3,0,0,1-3-1.38Zm3.55,7.87a5,5,0,0,0-1.74.31q-.87.33-.87,1c0,.58.66.91,1.75.91a2.63,2.63,0,0,0,1.82-.58,1.21,1.21,0,0,0,.35-.83,5.93,5.93,0,0,0,0-.61v0A9.51,9.51,0,0,0,519.66,682.15Z" transform="translate(-488.65 -363.54)"/><path d="M529.43,674.28a3.3,3.3,0,0,0,2.58.86,13.91,13.91,0,0,0,2.29-.19c-.06-2.45-.18-2.67-1.39-2.85.22-.22.35-.25.8-.25a4.71,4.71,0,0,1,1.34.2c.39.13.55.29.55.53s0,.1-.21.55a5.26,5.26,0,0,0-.29,1.69,8,8,0,0,0,3-.94.49.49,0,0,1,.19-.07,2,2,0,0,1,.83.28.47.47,0,0,1,.27.38c0,.23-.25.35-1.24.59a26,26,0,0,1-3.06.56c0,.42,0,.66,0,1s0,.75,0,1.45a12.18,12.18,0,0,0,1.82-.43,2.31,2.31,0,0,0,.8-.4.39.39,0,0,1,.24-.06,1.81,1.81,0,0,1,.82.24.31.31,0,0,1,.19.3c0,.29-.22.42-1.23.69a16.45,16.45,0,0,1-2.61.46c0,.63,0,.89,0,1.45s.05.84.1,1.24a8.41,8.41,0,0,1,3.52,1.38,1.39,1.39,0,0,1,.46,1.06c0,.33-.14.56-.35.56s-.23-.05-.64-.45a8.45,8.45,0,0,0-1.35-1,5.76,5.76,0,0,0-1.6-.68c0,.36.05.52.05.71a1.58,1.58,0,0,1-.54,1.34,3.59,3.59,0,0,1-2.15.6c-1.6,0-2.7-.71-2.7-1.72s1.49-1.93,3.61-1.93h.8c0-.77,0-.88,0-1.1V679c-.64,0-1,0-1.19,0a4.34,4.34,0,0,1-2.12-.35,1.39,1.39,0,0,1-.73-1.22c0-.11,0-.27,0-.44h.24c0,.5.09.72.33.91a3.34,3.34,0,0,0,1.88.36,13.6,13.6,0,0,0,1.55-.12v-1.12l0-1.16v-.2c-.88.08-1.52.12-2.07.12a3.06,3.06,0,0,1-3-1.38Zm3.56,7.87a5.05,5.05,0,0,0-1.75.31c-.57.22-.86.54-.86,1,0,.58.66.91,1.74.91a2.66,2.66,0,0,0,1.83-.58,1.21,1.21,0,0,0,.35-.83,5.93,5.93,0,0,0,0-.61v0A9.51,9.51,0,0,0,533,682.15Z" transform="translate(-488.65 -363.54)"/><path d="M545.5,678.65c0,.14-.27,1.15-.72,3a6.41,6.41,0,0,0-.27,1.69,2.33,2.33,0,0,1,0,.69.4.4,0,0,1-.39.28c-.27,0-.51-.23-.68-.66a9.31,9.31,0,0,1-.56-3.41,14.22,14.22,0,0,1,.12-1.71,28.36,28.36,0,0,1,.56-3,7.58,7.58,0,0,0,.23-1.49,2.82,2.82,0,0,0-.45-1.5c.35,0,.64.22,1.07.78a2.18,2.18,0,0,1,.6,1.27c0,.25,0,.32-.34,1a14.35,14.35,0,0,0-.87,2.54,9.07,9.07,0,0,0-.2,2,6.14,6.14,0,0,0,.3,2.11,14.14,14.14,0,0,0,.58-1.36l.85-2.24Zm2,.8a4.68,4.68,0,0,0,0,.67c0,1.76,1,2.48,3.49,2.48a7.57,7.57,0,0,0,1.36-.11,2.62,2.62,0,0,0,.85-.26.75.75,0,0,1,.24,0,1.24,1.24,0,0,1,1,.94c0,.19-.13.32-.36.4a8,8,0,0,1-2,.18c-2,0-3.42-.34-4.14-1a2.65,2.65,0,0,1-.87-2.08,4.55,4.55,0,0,1,.19-1.27Zm0-5.09a2.49,2.49,0,0,0,1.49.43,8.44,8.44,0,0,0,3.22-.72c.21-.11.24-.13.35-.13a1.15,1.15,0,0,1,.56.23c.34.19.5.38.5.59s-.11.3-.45.37a8.89,8.89,0,0,0-2.27.56,17,17,0,0,0-2.07,1.13l-.16-.16c.72-.6,1.27-1,1.52-1.24l-.65,0a2.81,2.81,0,0,1-2.18-.9Z" transform="translate(-488.65 -363.54)"/><path d="M567.07,681.66a7.36,7.36,0,0,1-5.62,3.31,2.9,2.9,0,0,1-2.65-1.36,5.45,5.45,0,0,1-.45-2.7c0-.88,0-2.41.13-3.86.09-1.73.11-2.18.11-2.76,0-1.37-.16-1.64-1.3-2.12a.64.64,0,0,1,.45-.16,4,4,0,0,1,1.44.36c.61.29.93.61.93,1a1.65,1.65,0,0,1-.15.57,50.23,50.23,0,0,0-.83,7.69,2.28,2.28,0,0,0,.64,1.92,2.38,2.38,0,0,0,1.43.43,8.32,8.32,0,0,0,3.65-1,10,10,0,0,0,2-1.43Z" transform="translate(-488.65 -363.54)"/><path d="M568.38,674.92a.89.89,0,0,0,.72.27c.45,0,.85-.08,4.43-.94.68-.16,1.54-.36,2.6-.56a16.63,16.63,0,0,0,2.16-.52,1.31,1.31,0,0,1,1.42.21c.32.21.47.39.47.61s-.2.4-.5.4h-.29a1.91,1.91,0,0,0-.45,0,5.68,5.68,0,0,0-5.38,5.3,3.24,3.24,0,0,0,2.12,3.15,5,5,0,0,0,1.63.39.83.83,0,0,1,.67.25,1.4,1.4,0,0,1,.48.77c0,.27-.24.45-.59.45a6.63,6.63,0,0,1-3.25-1.15,4.24,4.24,0,0,1-1.86-3.59,5.94,5.94,0,0,1,1.75-3.9,8.15,8.15,0,0,1,2.61-1.83,26.33,26.33,0,0,0-4.6,1.11,19,19,0,0,0-2.56,1,1.08,1.08,0,0,1-.64.23,1.77,1.77,0,0,1-1.23-.95,2.22,2.22,0,0,1-.42-1.07.66.66,0,0,1,.18-.42A1.68,1.68,0,0,0,568.38,674.92Z" transform="translate(-488.65 -363.54)"/><path d="M582.35,675.54a2.66,2.66,0,0,0,1.9.82,7,7,0,0,0,1.6-.21c0-.46,0-1.18,0-1.47,0-1.68-.19-2-1.3-2.21a.89.89,0,0,1,.69-.22,3.75,3.75,0,0,1,1.65.4.64.64,0,0,1,.35.51c0,.09,0,.09-.18.41a6.26,6.26,0,0,0-.49,2.39,4.59,4.59,0,0,0,1.74-.93.83.83,0,0,1,.39-.16,2.07,2.07,0,0,1,.61.15.39.39,0,0,1,.27.35c0,.22-.15.35-.72.62a11.28,11.28,0,0,1-2.34.79c0,.22,0,.22,0,.8,0,.43,0,1.13-.06,2.09a11.83,11.83,0,0,1,4.24-.88c2.19,0,3.57,1,3.57,2.74a2.73,2.73,0,0,1-2.74,2.79c-1.47,0-2.53-1-3.09-2.84l.24-.08a4.92,4.92,0,0,0,1,1.39,2.14,2.14,0,0,0,1.52.61,2,2,0,0,0,2-2.19c0-1.23-.84-1.91-2.37-1.91a10.38,10.38,0,0,0-4.34,1.16c0,1.69,0,1.69,0,2.17,0,.31,0,.48,0,.61a1.83,1.83,0,0,1-.21,1,1,1,0,0,1-.77.59c-.22,0-.22,0-1.2-.86a6.19,6.19,0,0,0-1.07-.73.77.77,0,0,1-.53-.67,1.39,1.39,0,0,1,.48-.89,8.06,8.06,0,0,1,2.55-1.65c0-.23,0-.47,0-.77,0-.72,0-.72.08-2.31a7.58,7.58,0,0,1-1.25.12,2.65,2.65,0,0,1-2.38-1.32Zm1.76,6.49a1.4,1.4,0,0,0-.48.76c0,.16.21.34.64.5a3.46,3.46,0,0,0,1,.26c.19,0,.27-.12.29-.4.08-1.44.11-2.23.11-2.32A6.41,6.41,0,0,0,584.11,682Zm7.14-8.1a5.25,5.25,0,0,1,2.35.57,1.85,1.85,0,0,1,1.12,1.41.44.44,0,0,1-.48.47.77.77,0,0,1-.24,0,2.23,2.23,0,0,0-.34,0,10.51,10.51,0,0,0-2,.43l-.09-.16a10.76,10.76,0,0,0,1.74-1,2.36,2.36,0,0,0-1-1,4,4,0,0,0-1.1-.42Z" transform="translate(-488.65 -363.54)"/><path d="M601.49,671.57a3.41,3.41,0,0,1,1.77.85c.26.26.35.42.35.64s-.08.31-.92,1-2.44,2.2-3,2.77-.77,1-.77,1.3a1.35,1.35,0,0,0,.48.83c.23.24.23.24,1.12,1.06a14.19,14.19,0,0,1,2.95,3.26,2.15,2.15,0,0,1,.24,1.06c0,.61-.21,1-.55,1s-.27-.08-.54-.66a15.16,15.16,0,0,0-1.34-2.25,31.29,31.29,0,0,0-2.34-2.9,2.09,2.09,0,0,1-.61-1.34c0-.52.26-.95,1.23-2.15,1.94-2.35,2.42-3,2.42-3.41s-.21-.51-.88-.94A.71.71,0,0,1,601.49,671.57Z" transform="translate(-488.65 -363.54)"/><path d="M610.35,671.88a5.24,5.24,0,0,1,1.62.3c.32.13.44.29.44.51v0c0,.12,0,.12-.12.41a12.2,12.2,0,0,0-.36,3.25c0,1,.13,1.19.63,1.19a6,6,0,0,0,2.14-.82,1.46,1.46,0,0,1,.66-.19.78.78,0,0,1,.77.67.52.52,0,0,1-.34.48,9.75,9.75,0,0,1-1.07.34,10.79,10.79,0,0,0-4,1.79,2.57,2.57,0,0,0-1.25,2c0,1.15.91,1.74,2.69,1.74a18.78,18.78,0,0,0,3.71-.46,1.68,1.68,0,0,1,.32,0,.91.91,0,0,1,.87.79c0,.28-.18.43-.69.52a24.25,24.25,0,0,1-3.08.21,8.2,8.2,0,0,1-2.72-.37,2.53,2.53,0,0,1-1.74-2.37,3.6,3.6,0,0,1,1.57-2.69,10.73,10.73,0,0,1,2-1.28,1,1,0,0,1-.77-.24c-.24-.17-.38-.52-.46-1.21,0-.39-.07-.74-.12-1.94,0-1.36-.06-1.6-.19-1.84s-.48-.46-1.15-.58A.87.87,0,0,1,610.35,671.88Z" transform="translate(-488.65 -363.54)"/><path d="M628.67,684c0,.31,0,.34.06.39a5.61,5.61,0,0,0,1.7.11h.22c.44,0,.76,0,.93,0h.12c.59,0,.8-.09.92-.41s.26-.9.77-2.9l.21,0-.11,2.61v.16c0,.23,0,.32.24.39s.37.17.37.39-.24.45-.63.53a16.81,16.81,0,0,1-2.57.13h-1.77c-1.24,0-1.6-.23-1.6-1.08v-.69c0-.38,0-.67,0-.75v-2.35H626a5.6,5.6,0,0,1-1.42,3.14,6.64,6.64,0,0,1-3.28,1.82c-.48.11-.85.19-1.72.32l-.06-.29a8.46,8.46,0,0,0,2.67-1,5.24,5.24,0,0,0,2.68-4H623.6V681c0,.27-.13.32-.85.32-.34,0-.39,0-.39-.24.08-2.21.12-3.52.12-5.66,0-2.34,0-3.17-.1-4.12a7.57,7.57,0,0,1,1.34.85H630a6.17,6.17,0,0,1,.7-.74c.39.29.52.4.9.72.15.13.19.21.19.28s-.08.17-.51.43v1.78c0,2.88,0,5.21.07,6.38,0,.24-.17.29-.84.29-.29,0-.35,0-.37-.21v-.59h-1.5Zm1.5-11.44H623.6v2.24h6.57Zm-6.57,2.61v2.24h6.57v-2.24Zm0,2.61v2.38h6.57v-2.38Z" transform="translate(-488.65 -363.54)"/><path d="M635.92,675.16a2.19,2.19,0,0,0,1.76.88,7.8,7.8,0,0,0,2-.3,11.55,11.55,0,0,0,.54-2.71c0-.5-.24-.7-1.13-1a.82.82,0,0,1,.49-.14,4.1,4.1,0,0,1,1.38.3c.48.18.72.4.72.64s0,.11-.19.39a12.87,12.87,0,0,0-1,2.29,5.61,5.61,0,0,0,1.85-1c.26-.24.32-.27.45-.27a3.2,3.2,0,0,1,.85.17c.18.07.26.16.26.29s-.26.48-.93.79a18.39,18.39,0,0,1-2.8.92c-.2.55-.2.55-.68,2l-1.2,3.57c-.64,1.9-.84,2.3-1.18,2.3-.16,0-.27-.09-.37-.32a2.39,2.39,0,0,1-.22-.93c0-.25,0-.3.35-.78a23.08,23.08,0,0,0,2.51-5.73,8.38,8.38,0,0,1-1.53.16,2.35,2.35,0,0,1-2.2-1.44Zm6.38,5.52c0,.24,0,.43,0,.5a2,2,0,0,0,1.21,1.93,4.39,4.39,0,0,0,1.71.31,3.87,3.87,0,0,0,1.54-.24.71.71,0,0,1,.27-.07,1.81,1.81,0,0,1,.82.39c.19.16.29.3.29.45,0,.35-.63.52-1.89.52a7.06,7.06,0,0,1-3-.51,2.42,2.42,0,0,1-1.36-2.32,3.36,3.36,0,0,1,.14-1Zm.43-3a7.39,7.39,0,0,1,3.72-1.07,2,2,0,0,1,1,.29.51.51,0,0,1,.25.44c0,.26-.14.36-.61.37a2.3,2.3,0,0,0-1.23.32,7.72,7.72,0,0,0-.88.55,6.16,6.16,0,0,1-.56.33l-.1-.14.77-.72c.15-.13.29-.26.79-.75a8.25,8.25,0,0,0-3.06.59Z" transform="translate(-488.65 -363.54)"/><path d="M652.59,685.34c0,.13-.08.18-.18.19a5.49,5.49,0,0,1-.77.07.27.27,0,0,1-.3-.2c.08-2.85.1-4.75.1-7.87,0-2.69,0-4.15-.1-5.92a14.24,14.24,0,0,1,1.47.91h7c.32-.32.32-.32.72-.75.42.32.55.43,1,.75.11.09.16.16.16.21s-.1.19-.52.48c0,9.6,0,9.6.1,12,0,.14-.06.19-.14.24a2.89,2.89,0,0,1-.84.08c-.14,0-.19-.05-.24-.19V684.3h-7.39ZM660,672.89h-7.39v3.33H660Zm-7.39,3.69v3.3H660v-3.3Zm0,3.69v3.66H660v-3.66Z" transform="translate(-488.65 -363.54)"/><path d="M667.1,682.19a8.33,8.33,0,0,0,2.48,1.08c.35,0,.63-.33,1-1.34a12.29,12.29,0,0,0,1-4.29c0-.67-.15-1.1-.44-1.3a1.2,1.2,0,0,0-.72-.16,5.81,5.81,0,0,0-1.66.32c-.23.56-.23.56-.93,2.18-.08.19-.4.94-.94,2.24-.64,1.51-1.17,2.66-1.43,3.11-.11.21-.24.3-.38.3-.29,0-.47-.41-.47-1.1a1.08,1.08,0,0,1,.37-.9c.72-.88,1.41-2.19,2.95-5.57a10.62,10.62,0,0,0-2.08.83.81.81,0,0,1-.47.18,1.21,1.21,0,0,1-.7-.48,2.54,2.54,0,0,1-.53-1.22,1.11,1.11,0,0,1,.09-.35c.34.66.63.88,1.22.88a16.64,16.64,0,0,0,2.72-.56,9,9,0,0,0,.66-2.62c0-.5-.32-.79-1.23-1.08a.65.65,0,0,1,.46-.17,4.81,4.81,0,0,1,1.09.2c.72.21,1.12.52,1.12.85,0,.11,0,.18-.22.47a15,15,0,0,0-1,2.16,5.85,5.85,0,0,1,1.39-.18c1.38,0,2,.82,2,2.5a10.22,10.22,0,0,1-1.75,5.73,2.31,2.31,0,0,1-1.53.72c-.28,0-.41-.11-.44-.37,0-.42-.09-.5-1.77-1.87Zm7.06-6.45a5.49,5.49,0,0,1,2.93,1.92,3.74,3.74,0,0,1,.91,2.25c0,.56-.24.88-.64.88a.61.61,0,0,1-.37-.11,1,1,0,0,0-.65-.17,14.74,14.74,0,0,0-2,.14l-.06-.21a21.2,21.2,0,0,0,2.45-.82A4.8,4.8,0,0,0,674,676Zm.54-3.21a6.53,6.53,0,0,1,1.43,1c.57.51.8.88.8,1.26s-.23.67-.5.67-.21,0-.7-1a7.65,7.65,0,0,0-1.23-1.68Zm1.65-.92a6.65,6.65,0,0,1,1.54.91c.61.46.81.78.81,1.23s-.16.66-.4.66-.24-.08-.36-.31a8.26,8.26,0,0,0-1.76-2.29Z" transform="translate(-488.65 -363.54)"/><path d="M685.87,679a7.08,7.08,0,0,0,1.86,2.83,8.86,8.86,0,0,0,2-1.46,5.8,5.8,0,0,0,1.17-1.15c1.29.63,1.53.75,1.53.9s-.12.19-.32.19a.8.8,0,0,1-.19,0h-.33l-1.14.64c-.34.19-.34.19-2,.94l-.48.23a5.31,5.31,0,0,0,1.55,1,13.67,13.67,0,0,0,3.76,1.07l0,.19c-.78.22-.88.32-1.28,1.15a12.68,12.68,0,0,1-3.19-1.61,8.68,8.68,0,0,1-2.92-3.76,10.72,10.72,0,0,1-.39-1.09h-2.72v4.43a30.46,30.46,0,0,0,3.84-.94l.07.2a22.74,22.74,0,0,1-3.45,1.4c-1.87.62-2.08.7-2.76.94a1,1,0,0,0-.05.29c0,.3-.1.43-.24.43s-.37-.48-.71-1.76a12.71,12.71,0,0,0,2.2-.34v-8.53c0-1,0-2,0-2.53a12.83,12.83,0,0,1,1.29.76h2.65v-.93c-.05-.69-.08-1.07-.1-1.17,1.44.11,1.9.21,1.9.4s-.16.22-.68.4v1.3h2.65a5.26,5.26,0,0,1,.58-.74c.46.34.61.45,1.07.83.08.08.11.13.11.16s-.16.24-.57.51v2.65c0,1.87,0,1.87,0,2.36,0,.31,0,.31-.93.36-.09,0-.14-.07-.17-.21V679Zm3.59-3.12v-2.17h-6.68v2.17Zm-6.68.36v2.39h6.68v-2.39Z" transform="translate(-488.65 -363.54)"/><path d="M699.37,671.57a3.4,3.4,0,0,1,1.78.85c.26.26.35.42.35.64s-.08.31-.93,1-2.43,2.2-2.94,2.77-.77,1-.77,1.3a1.35,1.35,0,0,0,.48.83c.23.24.23.24,1.12,1.06a14.19,14.19,0,0,1,2.95,3.26,2.15,2.15,0,0,1,.24,1.06c0,.61-.21,1-.55,1s-.27-.08-.54-.66a15.31,15.31,0,0,0-1.35-2.25,28.8,28.8,0,0,0-2.33-2.9,2,2,0,0,1-.61-1.34c0-.52.25-.95,1.23-2.15,1.94-2.35,2.42-3,2.42-3.41s-.21-.51-.88-.94A.7.7,0,0,1,699.37,671.57Z" transform="translate(-488.65 -363.54)"/><path d="M705.87,674.47a2.56,2.56,0,0,0,2,.93,7.58,7.58,0,0,0,1.46-.19,6.68,6.68,0,0,0,.58-2.28c0-.52-.26-.84-1-1.23a.75.75,0,0,1,.39-.11,3.29,3.29,0,0,1,1.28.37c.54.27.75.45.75.67a.69.69,0,0,1-.16.42c-.06.12-.4.78-1,2a4.12,4.12,0,0,0,1.78-.89.4.4,0,0,1,.34-.12c.62,0,1.08.2,1.08.48s-1,.81-3.53,1.41c-.15.32-.42,1-.85,1.93s-1.71,3.8-1.86,4.07c-.24.43-.38.57-.57.57s-.5-.49-.5-1.13c0-.32,0-.42.18-.58a6.47,6.47,0,0,0,.76-1,21.06,21.06,0,0,0,2-3.76,4.39,4.39,0,0,1-.75.06,2.61,2.61,0,0,1-1.41-.33,3.25,3.25,0,0,1-1.16-1.17Zm8.46.9a5.52,5.52,0,0,1,2.74.88c.63.4,1,.88,1,1.25a.42.42,0,0,1-.42.46.57.57,0,0,1-.36-.13,2.55,2.55,0,0,0-1.57-.33c-1.28,0-1.68.35-1.68,1.45a23.14,23.14,0,0,0,.32,2.76,7,7,0,0,1,2.27,1,1.52,1.52,0,0,1,.64,1.26c0,.32-.13.54-.32.54s-.22,0-.56-.41a5.82,5.82,0,0,0-1.94-1.41v.3a1.79,1.79,0,0,1-.45,1.36,2.91,2.91,0,0,1-2.08.69c-1.44,0-2.43-.69-2.43-1.69s1.22-1.91,3-1.91a5.48,5.48,0,0,1,1,.08c0-1.26,0-1.39,0-1.58,0-1.31.12-1.81.56-2.29a2.91,2.91,0,0,1,1.52-.75c.24-.07.27-.08.86-.21a4.46,4.46,0,0,0-2.06-1.11Zm-.86,7a4.3,4.3,0,0,0-1.38-.19c-1.36,0-2.19.46-2.19,1.21s.61,1,1.6,1c1.3,0,2-.53,2-1.54Z" transform="translate(-488.65 -363.54)"/><path d="M725.61,678.17c-1.17,2.69-1.5,3.63-1.5,4.27a1.88,1.88,0,0,0,.1.55,2.13,2.13,0,0,1,0,.25.38.38,0,0,1-.36.4,3,3,0,0,1-1.76-1.36,7.37,7.37,0,0,1-1.08-3.2,17.22,17.22,0,0,1-.12-2.82,3.48,3.48,0,0,0-.81-2.75h.14a2.34,2.34,0,0,1,1.2.78,2,2,0,0,1,.72,1.27,2.07,2.07,0,0,1,0,.42,12.45,12.45,0,0,0-.28,2.38,6.85,6.85,0,0,0,.36,2.32,2.31,2.31,0,0,0,.84,1.25c.17-.26.17-.26.52-.85l1.35-2.25c.26-.42.26-.42.46-.77Zm3.41-2.9a5,5,0,0,1,3.62,4.79c0,.77-.32,1.26-.8,1.26a.78.78,0,0,1-.48-.17,2.06,2.06,0,0,0-1.2-.2c-.37,0-.67,0-1.22,0l0-.24,2.16-.61c.32-.11.36-.18.36-.48a5.84,5.84,0,0,0-.49-2.1,4.4,4.4,0,0,0-2-2.1Z" transform="translate(-488.65 -363.54)"/><path d="M738.09,678.87a30.11,30.11,0,0,0-1.13,4.84v.06c0,.51,0,.58-.12.7a.32.32,0,0,1-.3.18c-.27,0-.5-.22-.69-.72a9.5,9.5,0,0,1-.51-3.22,23.93,23.93,0,0,1,.72-5.33,6.85,6.85,0,0,0,.24-1.44,2.55,2.55,0,0,0-.46-1.41c.36,0,.67.23,1.12.8a2.36,2.36,0,0,1,.57,1.22c0,.18,0,.18-.25.7a12.53,12.53,0,0,0-1.22,5.21,6.18,6.18,0,0,0,.26,2l.67-1.62.86-2.05Zm1.6-2.89a3.38,3.38,0,0,0,2.07.65,8.75,8.75,0,0,0,1.82-.22v-.71c0-1.79,0-2-.22-2.22a1.64,1.64,0,0,0-1.06-.37.89.89,0,0,1,.77-.26,4.78,4.78,0,0,1,1.09.15c.46.14.7.33.7.57s0,.13-.14.5a7.34,7.34,0,0,0-.34,2.15,4.41,4.41,0,0,0,1.48-.66c.16-.16.2-.18.35-.18a1.93,1.93,0,0,1,.75.21.35.35,0,0,1,.21.29c0,.35-1.17.83-2.83,1.15a32.66,32.66,0,0,0,.2,4.36c1.86.49,2.64,1.1,2.64,2,0,.34-.14.6-.32.6s-.24-.08-.56-.4a5,5,0,0,0-1.72-1.28c0,.14,0,.27,0,.38,0,1.15-1,1.84-2.56,1.84-1.39,0-2.37-.67-2.37-1.63,0-1.11,1.19-1.81,3-1.81.3,0,.53,0,1,0v-.27l0-1.72v-2.05a8.6,8.6,0,0,1-1.41.13,3.19,3.19,0,0,1-2.64-1.12Zm2.45,5.84c-1.26,0-2,.41-2,1.1s.61,1,1.57,1,1.51-.26,1.76-.76a1.9,1.9,0,0,0,.21-1.1A5.14,5.14,0,0,0,742.14,681.82Zm3.06-10.18a7.25,7.25,0,0,1,1.39,1c.56.53.79.9.79,1.28s-.2.67-.45.67-.21,0-.71-1a7.13,7.13,0,0,0-1.23-1.68Zm1.58-.93a7.57,7.57,0,0,1,1.51.91c.61.48.81.8.81,1.25s-.15.64-.38.64-.24-.08-.37-.3a7.53,7.53,0,0,0-1.74-2.28Z" transform="translate(-488.65 -363.54)"/><path d="M753.77,676.68a12.23,12.23,0,0,0-2.08.83.79.79,0,0,1-.46.18,1.2,1.2,0,0,1-.71-.48A2.61,2.61,0,0,1,750,676a1.11,1.11,0,0,1,.09-.35c.34.67.63.88,1.22.88A16.27,16.27,0,0,0,754,676a9,9,0,0,0,.66-2.63c0-.49-.31-.76-1.24-1.07a.73.73,0,0,1,.48-.16,4.43,4.43,0,0,1,1.08.21c.72.21,1.12.5,1.12.83,0,.13,0,.19-.23.47a15.1,15.1,0,0,0-1,2.17,5.53,5.53,0,0,1,1.39-.19c1.38,0,2,.82,2,2.5a10.28,10.28,0,0,1-1.74,5.74,2.24,2.24,0,0,1-1.54.72c-.27,0-.4-.11-.43-.36-.05-.45-.08-.48-1.78-1.88l.15-.2a8,8,0,0,0,2.48,1.1c.37,0,.62-.34,1-1.34a12.42,12.42,0,0,0,.94-4.31c0-1.07-.29-1.46-1.13-1.46a5.26,5.26,0,0,0-1.68.34l-.93,2.18-.95,2.24c-.64,1.5-1.17,2.65-1.42,3.1-.11.21-.24.31-.39.31s-.46-.42-.46-1.11a1,1,0,0,1,.37-.89,11,11,0,0,0,1.18-1.89c.61-1.19.61-1.19,1.28-2.66Zm6.25-1a5.46,5.46,0,0,1,2.92,1.92,3.76,3.76,0,0,1,.92,2.27c0,.54-.24.86-.64.86a.58.58,0,0,1-.37-.11,1.07,1.07,0,0,0-.66-.16,13.59,13.59,0,0,0-2,.15l-.06-.23a22.84,22.84,0,0,0,2.45-.82,4.17,4.17,0,0,0-.5-1.53,4.62,4.62,0,0,0-2.19-2.13Z" transform="translate(-488.65 -363.54)"/><path d="M768.8,685.58a8.4,8.4,0,0,0,4.22-7.64,7.56,7.56,0,0,0-.59-3.29,1.31,1.31,0,0,0-1.14-.71c-.8,0-1.53.69-2.11,2a9.11,9.11,0,0,0-.75,3.44c0,.28,0,.45.06,1a1.72,1.72,0,0,1,0,.33c0,.31-.14.48-.42.48-.61,0-1-1.29-1-3.28a19.06,19.06,0,0,1,.52-4.29,6.22,6.22,0,0,0,.17-1.17c0-.51-.22-.81-.86-1.13a.91.91,0,0,1,.29-.08,2.5,2.5,0,0,1,1.28.53c.45.32.62.57.62.89a1,1,0,0,1-.22.61,11.48,11.48,0,0,0-1.15,4.77c0,.14,0,.3,0,.59h0a8.92,8.92,0,0,1,1.86-4.19,2.59,2.59,0,0,1,2-1c1.54,0,2.63,1.89,2.63,4.57a7.93,7.93,0,0,1-1.75,5.23,8.07,8.07,0,0,1-3.53,2.53Z" transform="translate(-488.65 -363.54)"/><path d="M778.09,675a.91.91,0,0,0,.72.27c.45,0,.85-.08,4.45-.94.58-.15,1.49-.36,2.6-.56a18.62,18.62,0,0,0,2.16-.53,1.89,1.89,0,0,1,.56-.13,2,2,0,0,1,.86.34c.32.19.47.4.47.6s-.2.41-.5.41a1.9,1.9,0,0,1-.31,0,2.27,2.27,0,0,0-.44,0,5.68,5.68,0,0,0-5.38,5.34,3.23,3.23,0,0,0,2.13,3.12,4.78,4.78,0,0,0,1.61.39.84.84,0,0,1,.68.25,1.35,1.35,0,0,1,.48.77c0,.26-.24.45-.58.45a6.63,6.63,0,0,1-3.27-1.15,4.27,4.27,0,0,1-1.85-3.59,6,6,0,0,1,1.74-3.9,8.19,8.19,0,0,1,2.61-1.84,27.26,27.26,0,0,0-7.15,2.14,1.1,1.1,0,0,1-.64.23,1.77,1.77,0,0,1-1.24-1,2.29,2.29,0,0,1-.41-1.07.7.7,0,0,1,.17-.43A1.81,1.81,0,0,0,778.09,675Zm9.51,1.44a8.53,8.53,0,0,1,1.42,1c.58.53.81.9.81,1.28s-.23.67-.5.67-.21,0-.71-1a7.4,7.4,0,0,0-1.23-1.69Zm1.65-.93a8.44,8.44,0,0,1,1.54.91c.6.47.81.8.81,1.24s-.16.65-.4.65-.24-.08-.37-.3a7.44,7.44,0,0,0-1.76-2.27Z" transform="translate(-488.65 -363.54)"/><path d="M792.92,674.47a2.58,2.58,0,0,0,2,.93,7.58,7.58,0,0,0,1.46-.19,6.61,6.61,0,0,0,.57-2.28c0-.52-.25-.84-1-1.23a.74.74,0,0,1,.38-.11,3.24,3.24,0,0,1,1.28.37c.55.27.76.45.76.67a.76.76,0,0,1-.16.42c-.07.12-.4.78-1,2a4.19,4.19,0,0,0,1.78-.89.37.37,0,0,1,.33-.12c.63,0,1.09.2,1.09.48s-1,.81-3.54,1.41c-.14.32-.41,1-.84,1.93s-1.72,3.8-1.86,4.07c-.24.43-.39.57-.58.57s-.49-.49-.49-1.13a.7.7,0,0,1,.17-.58,6.59,6.59,0,0,0,.77-1,21.06,21.06,0,0,0,2-3.76,4.39,4.39,0,0,1-.75.06,2.59,2.59,0,0,1-1.41-.33,3.28,3.28,0,0,1-1.17-1.17Zm8.47.9a5.56,5.56,0,0,1,2.74.88c.62.4,1,.88,1,1.25a.42.42,0,0,1-.42.46.6.6,0,0,1-.37-.13,2.54,2.54,0,0,0-1.57-.33c-1.28,0-1.68.35-1.68,1.45a23.14,23.14,0,0,0,.32,2.76,7.07,7.07,0,0,1,2.28,1,1.52,1.52,0,0,1,.64,1.26c0,.32-.13.54-.32.54s-.23,0-.56-.41a5.82,5.82,0,0,0-1.94-1.41v.3a1.79,1.79,0,0,1-.45,1.36,2.91,2.91,0,0,1-2.08.69c-1.44,0-2.43-.69-2.43-1.69s1.21-1.91,3-1.91a5.48,5.48,0,0,1,1,.08c0-1.26,0-1.39,0-1.58,0-1.31.13-1.81.56-2.29a3,3,0,0,1,1.52-.75c.24-.07.28-.08.87-.21a4.45,4.45,0,0,0-2.07-1.11Zm-.86,7a4.34,4.34,0,0,0-1.38-.19c-1.36,0-2.19.46-2.19,1.21s.61,1,1.6,1c1.29,0,2-.53,2-1.54Z" transform="translate(-488.65 -363.54)"/><path d="M811.79,671.57a3.4,3.4,0,0,1,1.78.85c.25.26.35.42.35.64s-.08.31-.93,1-2.43,2.2-2.94,2.77-.77,1-.77,1.3a1.35,1.35,0,0,0,.48.83,14,14,0,0,0,1.12,1.06,14.06,14.06,0,0,1,2.94,3.26,2,2,0,0,1,.24,1.06c0,.61-.2,1-.54,1s-.27-.08-.54-.66a15.31,15.31,0,0,0-1.35-2.25,28,28,0,0,0-2.34-2.9,2.07,2.07,0,0,1-.6-1.34c0-.52.25-.95,1.23-2.15,1.93-2.35,2.41-3,2.41-3.41s-.2-.51-.87-.94A.7.7,0,0,1,811.79,671.57Z" transform="translate(-488.65 -363.54)"/><path d="M818,682a14.38,14.38,0,0,1,3.12,1.53A1.63,1.63,0,0,1,822,685c0,.51-.31,1.06-.58,1.06a.47.47,0,0,1-.22-.1c-.11-.09-.11-.09-.82-1.15a12.57,12.57,0,0,0-2.46-2.55Z" transform="translate(-488.65 -363.54)"/></g><g class="cls-3"><path d="M520.94,712.77a11,11,0,0,0,1.66-4.3,33.38,33.38,0,0,0,.39-5.91,41.88,41.88,0,0,0-.13-4.24,9.32,9.32,0,0,1,1.39.75h8c.23-.3.31-.38.56-.69a9.13,9.13,0,0,1,1.07.82c.07.06.08.09.08.13s-.17.24-.6.48c0,1.48,0,1.68,0,2.16a32.43,32.43,0,0,0,.37,5.55,6.1,6.1,0,0,0,1.1,2.72c.27-.81.4-1.25.79-2.7l.24.08-.24,2.85c0,.22,0,.22,0,.51,0,.11,0,.21.23.45a.81.81,0,0,1,.23.59.4.4,0,0,1-.45.45c-.34,0-.7-.24-1.12-.74a8.4,8.4,0,0,1-1.92-5c-.14-1.56-.24-3.64-.24-5.51,0-.54,0-1,0-1.79h-8.24c0,.85,0,.85,0,4.56a15,15,0,0,1-1.16,6.35,8.58,8.58,0,0,1-1.77,2.58Zm7.7-5.38V710c1.05-.18,1.05-.18,2.09-.4-.25-.39-.32-.48-.93-1.3l.18-.09a8.84,8.84,0,0,1,1.7,1.34c.57.56.78.88.78,1.2a2,2,0,0,1-.27.94.3.3,0,0,1-.24.12c-.19,0-.26-.08-.45-.63a8.49,8.49,0,0,0-.56-1.21c-1.3.41-4.42,1.29-6,1.71-.05.35-.14.56-.26.56s-.24-.16-.67-1.59a34.55,34.55,0,0,0,3.62-.49v-2.79h-1.73v.66c0,.13,0,.14-.11.18s-.56,0-.75,0-.18,0-.18-.17c.05-.58.06-1,.06-1.62,0-1.57,0-2.94-.06-3.42a8.22,8.22,0,0,1,1.19.67h1.58v-1.84c-1.15.17-1.86.25-2.93.32l-.06-.23a22.86,22.86,0,0,0,3.84-1,7,7,0,0,0,1.85-.83l.57.37c.48.32.72.52.72.64s-.1.14-.21.14l-.32,0-.43-.08c-1.77.47-1.77.47-2.05.53v2h1.61c.23-.29.31-.37.56-.64a9.24,9.24,0,0,1,.92.73.31.31,0,0,1,.09.15c0,.08-.11.16-.49.4,0,.4,0,.4,0,1.79,0,1,0,1,0,1.52,0,.13,0,.15-.17.18a3.61,3.61,0,0,1-.53,0c-.19,0-.26,0-.31-.18v-.34Zm-1-3.29h-1.73V707h1.73Zm2.7,0h-1.72V707h1.72Z" transform="translate(-488.65 -363.54)"/><path d="M536.67,706.32a13.09,13.09,0,0,0,1.66-2.22,20.5,20.5,0,0,0,2.78-6c1.35.45,1.75.61,1.75.73s-.16.23-.75.37a20.61,20.61,0,0,1-2.2,3.88l.28,0c.64.09.89.17.89.32s-.22.24-.54.35v7.51l0,1.09c0,.17-.06.24-.21.28a2.86,2.86,0,0,1-.69.07q-.36,0-.36-.24v-.08c0-.92.11-3.57.11-4.12v-4.54a17.61,17.61,0,0,1-2.58,2.78Zm8.38-.85a17.11,17.11,0,0,0,4.34-5c1.23.69,1.65,1,1.65,1.11s-.16.19-.55.19h-.24c-1.72,1.58-1.93,1.76-2.88,2.51a16.89,16.89,0,0,1-2.32,1.65v4.9c0,.26,0,.34.15.38a7,7,0,0,0,1.76.15l2,0c.52,0,.56-.07.71-.45s.54-1.73,1.05-3.75H551l-.3,3.49a.58.58,0,0,0,0,.18c0,.17.06.24.48.37a.38.38,0,0,1,.31.41c0,.61-.81.82-3.14.82a21.07,21.07,0,0,1-3.72-.18c-.52-.14-.68-.42-.7-1.1V699.53c0-.44,0-.72,0-1.29,1.77.25,1.85.27,1.85.43s-.17.24-.67.43Z" transform="translate(-488.65 -363.54)"/><path d="M563.92,708.66A7.38,7.38,0,0,1,558.3,712a2.92,2.92,0,0,1-2.66-1.36,5.45,5.45,0,0,1-.45-2.7c0-.88,0-2.41.13-3.86.1-1.73.11-2.18.11-2.76,0-1.37-.16-1.64-1.29-2.12a.63.63,0,0,1,.45-.16,4.09,4.09,0,0,1,1.44.36c.61.29.93.61.93,1a1.65,1.65,0,0,1-.15.57,50.23,50.23,0,0,0-.83,7.69,2.28,2.28,0,0,0,.64,1.92,2.35,2.35,0,0,0,1.42.43,8.28,8.28,0,0,0,3.65-1,10.08,10.08,0,0,0,2-1.43Z" transform="translate(-488.65 -363.54)"/><path d="M565.23,701.92a.89.89,0,0,0,.72.27c.44,0,.84-.08,4.43-.94.67-.16,1.54-.36,2.59-.56a16.19,16.19,0,0,0,2.16-.52,2.19,2.19,0,0,1,.56-.12,2.12,2.12,0,0,1,.87.33c.32.21.46.39.46.61s-.19.4-.49.4h-.29a1.91,1.91,0,0,0-.45,0,5.67,5.67,0,0,0-5.38,5.3,3.25,3.25,0,0,0,2.11,3.15,5,5,0,0,0,1.64.39.83.83,0,0,1,.67.25,1.4,1.4,0,0,1,.48.77c0,.27-.24.45-.59.45a6.6,6.6,0,0,1-3.25-1.15,4.24,4.24,0,0,1-1.86-3.59,5.94,5.94,0,0,1,1.75-3.9,8.15,8.15,0,0,1,2.61-1.83,26.33,26.33,0,0,0-4.6,1.11,18,18,0,0,0-2.56,1,1.08,1.08,0,0,1-.64.23,1.77,1.77,0,0,1-1.23-.95,2.22,2.22,0,0,1-.42-1.07.61.61,0,0,1,.18-.42A1.68,1.68,0,0,0,565.23,701.92Z" transform="translate(-488.65 -363.54)"/><path d="M586.33,705.17a7.55,7.55,0,0,0,1.63,3,10.58,10.58,0,0,0,1.11-.93c1.28-1.32,1.28-1.32,1.49-1.67,1.55.93,1.57,1,1.57,1.06s-.12.18-.24.18a3.47,3.47,0,0,1-.58-.08c-.58.36-1.33.78-2.24,1.26a4.87,4.87,0,0,1-.9.38,7.09,7.09,0,0,0,1.19,1,10.67,10.67,0,0,0,3.95,1.75l0,.24c-.62,0-.93.29-1.17,1a9.7,9.7,0,0,1-3.37-2.34,10.5,10.5,0,0,1-2.42-3.87,7.77,7.77,0,0,1-.29-1h0a14.66,14.66,0,0,1-1.94,1.94v3.56c1.49-.27,1.8-.35,3.46-.76l0,.24a40.59,40.59,0,0,1-5.88,2.14c-.17.63-.2.72-.33.72s-.23-.13-.59-1.77c.64-.07.64-.07,2.27-.37v-3c-.53.36-1,.66-1.59,1a9.57,9.57,0,0,1-2.6,1.21l-.07-.19a25.78,25.78,0,0,0,3.89-2.75,11.09,11.09,0,0,0,2-2h-4.83a9.89,9.89,0,0,0-1,.08l-.09-.58a5.12,5.12,0,0,0,1.07.13h5.59v-1.9h-3.91a3.5,3.5,0,0,0-.88.09l-.08-.57a5.54,5.54,0,0,0,1,.11h3.91v-1.81h-4.77a4.84,4.84,0,0,0-1,.11l-.08-.62a4.89,4.89,0,0,0,1.11.14h4.77v-.61c0-.32,0-.48-.07-1.65a7.78,7.78,0,0,1,1.7.23.25.25,0,0,1,.13.14l-.07.15a.58.58,0,0,1-.25.14l-.37.14v1.46h3.66l1-1.09c.64.51.85.67,1.49,1.22,0,0,.07.09.07.14s-.07.1-.13.1h-6.13v1.81h3.12a8.06,8.06,0,0,1,.91-1l1.44,1.15a.34.34,0,0,1,.07.15s-.07.08-.13.08h-5.41v1.9h4.38c.44-.46.58-.59,1-1,.67.48.88.62,1.52,1.15a.38.38,0,0,1,.08.16s-.06.1-.15.1Z" transform="translate(-488.65 -363.54)"/><path d="M605.52,704.14c.46-.6.59-.8,1-1.36.72.64.94.84,1.63,1.49a.22.22,0,0,1,.08.15s-.08.09-.18.09h-5.6v7h4.16c.48-.61.64-.79,1.14-1.35l1.62,1.46a.39.39,0,0,1,.06.14s-.08.12-.16.12h-12.9A5,5,0,0,0,595,712l-.13-.63a7.91,7.91,0,0,0,1.55.13h5v-7h-4.06a6.74,6.74,0,0,0-1.27.1l-.13-.61a5.54,5.54,0,0,0,1.4.14h4.06v-3.69c0-.74,0-1.14-.09-2,.8.07,1.63.18,1.82.23s.18.09.18.17-.15.24-.79.45v4.83Z" transform="translate(-488.65 -363.54)"/><path d="M613.83,709.19a8.24,8.24,0,0,0,2.49,1.08c.35,0,.62-.33,1-1.34a12.27,12.27,0,0,0,.94-4.29c0-.67-.14-1.1-.43-1.3a1.22,1.22,0,0,0-.72-.16,5.86,5.86,0,0,0-1.67.32c-.22.56-.22.56-.92,2.18l-.95,2.24c-.64,1.51-1.17,2.66-1.42,3.11-.12.21-.24.3-.39.3s-.46-.41-.46-1.1a1.08,1.08,0,0,1,.37-.9c.72-.88,1.4-2.19,2.94-5.57a11.22,11.22,0,0,0-2.08.83.81.81,0,0,1-.46.18,1.2,1.2,0,0,1-.71-.48,2.54,2.54,0,0,1-.53-1.22,1.2,1.2,0,0,1,.1-.35c.34.66.62.88,1.22.88a16.85,16.85,0,0,0,2.72-.56,8.91,8.91,0,0,0,.65-2.62c0-.5-.32-.79-1.23-1.08a.67.67,0,0,1,.47-.17,4.74,4.74,0,0,1,1.08.2c.72.21,1.12.52,1.12.85,0,.11,0,.18-.22.47a16.45,16.45,0,0,0-1,2.16,5.79,5.79,0,0,1,1.39-.18c1.37,0,2,.82,2,2.5a10.3,10.3,0,0,1-1.74,5.73,2.33,2.33,0,0,1-1.54.72.37.37,0,0,1-.43-.37c0-.42-.1-.5-1.78-1.87Zm7.06-6.45a5.45,5.45,0,0,1,2.93,1.92,3.76,3.76,0,0,1,.92,2.25c0,.56-.24.88-.64.88a.59.59,0,0,1-.37-.11,1,1,0,0,0-.66-.17,14.55,14.55,0,0,0-2,.14l-.06-.21a21.48,21.48,0,0,0,2.44-.82,4.81,4.81,0,0,0-2.68-3.66Zm.55-3.21a6.7,6.7,0,0,1,1.42,1c.58.51.8.88.8,1.26s-.22.67-.49.67-.21,0-.71-1a7.65,7.65,0,0,0-1.23-1.68Zm1.65-.92a6.58,6.58,0,0,1,1.53.91c.61.46.82.78.82,1.23s-.16.66-.4.66-.24-.08-.37-.31a8.26,8.26,0,0,0-1.76-2.29Z" transform="translate(-488.65 -363.54)"/><path d="M626.27,703.89a9.29,9.29,0,0,1,2.2,1,.62.62,0,0,1,.24.57c0,.42-.19.79-.38.79s-.16,0-.59-.66a8.75,8.75,0,0,0-1.62-1.55Zm4.61-4.66c0-.43,0-.62,0-1.15,1.59.21,1.76.24,1.76.43s-.16.21-.73.3v1.06H635v-.74c0-.41,0-.6,0-1.08,1.5.16,1.5.16,1.66.24a.19.19,0,0,1,.11.14c0,.14-.16.21-.73.34v1.1h2.35c.4-.45.51-.58.91-1a16.64,16.64,0,0,1,1.52,1.17.18.18,0,0,1,.07.11c0,.05,0,.08-.13.08h-4.72v.86c0,.26-.13.29-.87.29-.13,0-.17,0-.17-.14,0-.5,0-.66,0-1h-3.17c0,.38,0,.54,0,1.09,0,.25-.12.3-.81.3-.16,0-.21,0-.23-.19,0-.59,0-.72,0-1.2h-3a7.38,7.38,0,0,0-1.39.11l-.08-.64a5.29,5.29,0,0,0,1.47.16h3Zm-4.29,9.09.3.1a4,4,0,0,0,.74.17c.11,0,.14,0,.57-.7.91-1.43.91-1.43,1.89-3.2s1-1.76,1.35-2.4l.19.11-2.85,6.27c-.23.44-.24.48-.24.66a2.12,2.12,0,0,0,.09.56c0,.16,0,.16.16.85a3.16,3.16,0,0,1,.1.67.9.9,0,0,1-.32.63,1.54,1.54,0,0,1-.75.36.28.28,0,0,1-.26-.3,11.9,11.9,0,0,1,.13-1.28,5.12,5.12,0,0,0,0-.56c0-.63-.09-.93-.37-1.12a3.51,3.51,0,0,0-.83-.47Zm.76-7a9.51,9.51,0,0,1,1.8.76c.6.32.68.41.68.76s-.22.82-.39.82-.17-.06-.29-.27a13.46,13.46,0,0,0-1.92-1.92ZM637.52,703a7.82,7.82,0,0,1,.7-.71l.95.8c.12.15.17.21.17.29s-.17.19-.64.21a17.56,17.56,0,0,1-2.37,2.32,10.5,10.5,0,0,0,4.74,1.39v.18c-.62.29-.77.45-.89,1a13,13,0,0,1-3.32-1.42,12.81,12.81,0,0,1-1.09-.71,16.21,16.21,0,0,1-2.61,1.6,3.33,3.33,0,0,1,.48.36h4c.17-.21.24-.28.4-.45l.85.53c.09.06.14.12.14.17s-.1.18-.29.32v.58c0,.65,0,1,.07,2.83v0c0,.14,0,.19-.15.21a4.66,4.66,0,0,1-.73.06c-.15,0-.18,0-.18-.16V712h-4.26v.45c0,.19-.08.21-.75.21-.26,0-.29,0-.29-.19v0c0-.38,0-.38,0-1.34,0-.45,0-1,0-2.84a15.71,15.71,0,0,1-2.64,1l-.1-.2a19.54,19.54,0,0,0,5.3-3.19,8,8,0,0,1-1.6-1.92,14.26,14.26,0,0,1-2.86,2.7l-.16-.19a14.6,14.6,0,0,0,2.43-3,7.64,7.64,0,0,0,1-2,11.29,11.29,0,0,1,1.38.4c.09,0,.14.08.14.15s-.21.2-.64.22c-.29.43-.38.58-.54.82Zm-4,8.62h4.26v-2.93h-4.26Zm.45-8.26a3.72,3.72,0,0,0-.22.31,5.64,5.64,0,0,0,1.84,1.79,8.92,8.92,0,0,0,1.87-2.1Z" transform="translate(-488.65 -363.54)"/><path d="M642.76,701.5a2.43,2.43,0,0,0,2.15.88,7.47,7.47,0,0,0,1.13-.09l.24-1.16a10.32,10.32,0,0,0,.21-1.32c0-.52-.37-.77-1.2-.84a1.06,1.06,0,0,1,.8-.3,3.71,3.71,0,0,1,1.51.35c.3.15.48.35.48.56s0,.21-.24.48a8.7,8.7,0,0,0-1,2.13,6.26,6.26,0,0,0,2.83-1.06A.37.37,0,0,1,650,701a2.66,2.66,0,0,1,.75.14c.24.1.35.21.35.37s-.25.47-.89.71a14.21,14.21,0,0,1-3.59.81,20.47,20.47,0,0,0-.69,4.41,11,11,0,0,1,4.82-1.46c1.81,0,3,.93,3,2.32s-.91,2.35-2.56,3a12.24,12.24,0,0,1-4.68.75v-.23a16.33,16.33,0,0,0,2.49-.51c2.28-.69,3.51-1.86,3.51-3.33,0-1-.64-1.54-1.76-1.54a6.21,6.21,0,0,0-3.55,1.38,3.23,3.23,0,0,0-.93,1,.42.42,0,0,1-.35.21c-.42,0-.95-.71-.95-1.25,0-.27.53-3.09.9-4.74-.31,0-.47.05-.67.05a2.69,2.69,0,0,1-2.66-1.46Z" transform="translate(-488.65 -363.54)"/><path d="M656.15,701.92a.91.91,0,0,0,.72.27c.45,0,.85-.08,4.44-.94.67-.16,1.53-.36,2.59-.56a16.19,16.19,0,0,0,2.16-.52,2.12,2.12,0,0,1,.56-.12,2.17,2.17,0,0,1,.87.33c.32.21.46.39.46.61s-.19.4-.5.4h-.28a1.91,1.91,0,0,0-.45,0,5.67,5.67,0,0,0-5.38,5.3,3.25,3.25,0,0,0,2.11,3.15,5,5,0,0,0,1.64.39.83.83,0,0,1,.67.25,1.4,1.4,0,0,1,.48.77c0,.27-.24.45-.59.45a6.56,6.56,0,0,1-3.25-1.15,4.24,4.24,0,0,1-1.86-3.59,6,6,0,0,1,1.74-3.9,8.27,8.27,0,0,1,2.61-1.83,26.24,26.24,0,0,0-4.59,1.11,18,18,0,0,0-2.56,1,1.08,1.08,0,0,1-.64.23,1.74,1.74,0,0,1-1.23-.95,2.22,2.22,0,0,1-.42-1.07.61.61,0,0,1,.18-.42A1.74,1.74,0,0,0,656.15,701.92Z" transform="translate(-488.65 -363.54)"/><path d="M674,698.57a3.4,3.4,0,0,1,1.78.85c.26.26.35.42.35.64s-.08.31-.92,1-2.44,2.2-2.95,2.77-.77,1-.77,1.3a1.35,1.35,0,0,0,.48.83c.23.24.23.24,1.12,1.06a14.19,14.19,0,0,1,3,3.26,2.15,2.15,0,0,1,.24,1.06c0,.61-.21,1-.55,1s-.27-.08-.54-.66a15.31,15.31,0,0,0-1.35-2.25,28.8,28.8,0,0,0-2.33-2.9,2.09,2.09,0,0,1-.61-1.34c0-.52.26-.95,1.23-2.15,1.94-2.35,2.42-3,2.42-3.41s-.21-.51-.88-.94A.7.7,0,0,1,674,698.57Z" transform="translate(-488.65 -363.54)"/><path d="M687,700.37c-.63.19-2.13.78-3.24,1.26a1.75,1.75,0,0,1-.65.21c-.29,0-.61-.22-.91-.67a2.3,2.3,0,0,1-.45-1.19.65.65,0,0,1,.14-.41c.24.75.67,1.16,1.2,1.16a17.81,17.81,0,0,0,3-.68,2.07,2.07,0,0,0,1-.5.35.35,0,0,1,.22-.08c.21,0,.47.16.87.56s.48.53.48.72-.08.21-.27.3a4.3,4.3,0,0,0-1.33,1.08c-1,1-1.6,1.6-2.36,2.4-1.53,1.65-1.53,1.65-1.87,2l0,0a8.06,8.06,0,0,1,4.36-1.52c2.05,0,3.42,1.2,3.42,3,0,2.29-2.13,4-5,4-1.57,0-2.58-.62-2.58-1.6,0-.78.74-1.36,1.73-1.36a3,3,0,0,1,2,.79,3.16,3.16,0,0,1,.71,1,3.15,3.15,0,0,0,1.93-3,2.21,2.21,0,0,0-1-2,3.59,3.59,0,0,0-1.58-.32c-1.57,0-3.77,1.28-5.09,3-.28.33-.39.43-.55.43s-.53-.56-.53-1a.78.78,0,0,1,.34-.56,14.37,14.37,0,0,0,2.22-2.23c2-2.19,2.56-2.89,3.83-4.53.13-.17.13-.17.16-.25s0,0,0,0h-.06l-.08,0Zm-2.47,9.18c-.61,0-1,.32-1,.82s.71,1,1.83,1a4,4,0,0,0,1.14-.15A2.11,2.11,0,0,0,684.57,709.55Z" transform="translate(-488.65 -363.54)"/><path d="M705.57,705.94c0,2.75,0,2.75,0,5.25a1,1,0,0,1-.5,1,4.76,4.76,0,0,1-1.87.5,1.07,1.07,0,0,0-.48-.85c-.32-.22-.67-.3-2-.48v-.24c1.63.08,2.34.11,3,.11h.46c.23,0,.27-.08.27-.28V699.66h-9.23c-.48,0-1.54.05-1.92.1l-.11-.64a9.15,9.15,0,0,0,2,.17h10.31c.38-.52.51-.68.94-1.2.67.56.88.74,1.52,1.33,0,.07.08.1.08.13s-.09.11-.22.11h-2.24Zm-9,3c0,.24-.11.3-.58.3l-.22,0h0c-.18,0-.26-.07-.27-.23,0-1.07.06-3.82.06-5.42,0-.18,0-.93,0-2.27a12.94,12.94,0,0,1,1.38.83h3.36a9.45,9.45,0,0,1,.67-.75c.44.32.56.41,1,.75q.15.13.15.21c0,.08-.08.14-.53.4v1c0,1.54,0,3.19.08,4.58a.24.24,0,0,1-.14.22,4.94,4.94,0,0,1-.77.08c-.18,0-.24-.06-.24-.21v-1h-3.81Zm0-1.83h3.81v-4.57h-3.81Z" transform="translate(-488.65 -363.54)"/><path d="M713.92,699.63a19.12,19.12,0,0,1,1.64,1.42,1.28,1.28,0,0,1,.48,1c0,.56-.28,1.19-.52,1.19s-.23-.1-.37-.59c-.07-.26-.15-.47-.29-.85a22,22,0,0,1-2.61.49l-2.42.39c-.08.51-.12.61-.32.61s-.2-.1-.24-.34a5,5,0,0,0-.11-.59c0-.16-.06-.42-.13-.75.69,0,.92,0,1.54,0a12.52,12.52,0,0,0,1.14-3.52c1.37.24,1.87.39,1.87.59s-.21.24-.8.32a23,23,0,0,1-1.76,2.6c2,0,2.58-.08,3.68-.19a9.23,9.23,0,0,0-1-1.65Zm-2.69,8.93v1.31c0,.36,0,.36,0,2.37,0,.15,0,.2-.16.21a4.74,4.74,0,0,1-.67.07c-.22,0-.29,0-.29-.21v0c0-1.14.08-4.72.08-7.28,0-.36,0-.76-.06-1.75a9.18,9.18,0,0,1,1.21.64h2.89c.24-.29.32-.37.56-.64a7.84,7.84,0,0,1,.76.55c.16.11.23.19.23.27s0,.09-.42.41v4c0,.91,0,.91,0,2.16v.66a1.05,1.05,0,0,1-.39.86c-.19.18-.43.24-1.28.4a1,1,0,0,0-.35-.69c-.17-.13-.35-.18-1.17-.32v-.21a10.67,10.67,0,0,0,1.09.05c.48,0,.48,0,.82,0s.25-.07.25-.26v-2.53Zm3.13-2.56v-1.76h-3.13V706Zm-3.13.37v1.82h3.13v-1.82Zm6.62-4.83a11.06,11.06,0,0,0,3.48-2.93c1,.78,1.34,1,1.34,1.16s-.09.18-.24.18a2.72,2.72,0,0,1-.56-.1,16.6,16.6,0,0,1-4,2v1.43c0,.21,0,.29.12.33a7.1,7.1,0,0,0,1.77.1c.8,0,1.57,0,1.68,0s.18-.08.37-.56c.06-.16.18-.46.35-1,.07-.21.18-.53.32-1h.2l-.13,1.92v.19c0,.21.05.28.21.34.38.13.49.22.49.46s-.24.45-.59.53a8.89,8.89,0,0,1-2,.1h-1.19a5.92,5.92,0,0,1-2.22-.19c-.28-.11-.39-.37-.39-.81v-4.34c0-.29,0-.35,0-1.14,1.33.15,1.67.23,1.67.4s-.21.29-.6.4Zm0,7.17a12.15,12.15,0,0,0,1.73-1.16,8.9,8.9,0,0,0,1.89-1.85,8,8,0,0,1,1.3,1,.21.21,0,0,1,.08.16c0,.09-.11.17-.24.17a2.14,2.14,0,0,1-.52-.11,19.39,19.39,0,0,1-4.24,2.18v1.69c0,.2,0,.29.12.32a7.82,7.82,0,0,0,1.8.1c1.36,0,1.64,0,1.81-.22s.24-.37,1-2.6l.22,0-.16,1.81c0,.13,0,.29,0,.4,0,.32,0,.32.43.42a.38.38,0,0,1,.27.37.65.65,0,0,1-.43.51,11.39,11.39,0,0,1-3.07.22c-1.86,0-2.29,0-2.64-.24s-.36-.43-.36-.88v-4.53c0-.3,0-.4,0-1.25a7.09,7.09,0,0,1,1.57.26.17.17,0,0,1,.1.13c0,.11-.12.21-.6.45Z" transform="translate(-488.65 -363.54)"/><path d="M726.49,701.05a3.69,3.69,0,0,1,0,.41,7.87,7.87,0,0,1-.53,3.32c-.21.45-.45.69-.66.69s-.24-.11-.33-.33a2,2,0,0,1-.2-.68c0-.17.05-.25.34-.52a4.43,4.43,0,0,0,1.12-2.89Zm.61-1.48a8.61,8.61,0,0,0-.07-1.41c1.51.19,1.81.25,1.81.43s-.12.21-.69.38l0,8.84c0,.16,0,1.71,0,4.69a.18.18,0,0,1-.06.16,2.59,2.59,0,0,1-.87.13c-.14,0-.19,0-.21-.18.07-2.4.08-3.44.08-5.66v-2.68c0-1.85,0-2.54,0-3.76Zm1.68,1.4c.77.85,1.14,1.46,1.14,1.86s-.36,1.12-.61,1.12-.19-.09-.21-.33a9.22,9.22,0,0,0-.46-2.57Zm5,1.51v-1.79a18.22,18.22,0,0,0-.1-2.52c1.73.24,1.94.31,1.94.47s-.05.17-.74.38v3.46h2.08c.39-.5.5-.64.9-1.12.66.53.85.7,1.47,1.26a.3.3,0,0,1,0,.12.14.14,0,0,1-.11.11h-4.37v3.77h1.83a14.26,14.26,0,0,1,1-1.1,11.44,11.44,0,0,1,1.29,1.2.27.27,0,0,1,.07.16s-.07.11-.15.11h-4v4.45h2.34c.41-.52.54-.69,1-1.2a12.72,12.72,0,0,1,1.49,1.33.18.18,0,0,1,.08.14.1.1,0,0,1-.11.1H730.8a11,11,0,0,0-1.59.1l-.09-.63a8.05,8.05,0,0,0,1.68.16h3V707h-1.88c-.51,0-1,0-1.44.08l-.11-.59a5.6,5.6,0,0,0,1.55.14h1.88v-3.77h-2.39a13.93,13.93,0,0,1-2.16,3.5l-.19-.16a15.07,15.07,0,0,0,1.68-3.86,12.23,12.23,0,0,0,.56-3c1.47.41,1.74.51,1.74.65s-.14.21-.67.32a12.46,12.46,0,0,1-.8,2.15Z" transform="translate(-488.65 -363.54)"/><path d="M744.11,709.19a8.12,8.12,0,0,0,2.48,1.08c.35,0,.62-.33,1-1.34a12.27,12.27,0,0,0,.94-4.29c0-.67-.14-1.1-.43-1.3a1.22,1.22,0,0,0-.72-.16,5.75,5.75,0,0,0-1.66.32c-.23.56-.23.56-.93,2.18l-1,2.24c-.64,1.51-1.17,2.66-1.42,3.11-.11.21-.24.3-.39.3s-.46-.41-.46-1.1a1.08,1.08,0,0,1,.37-.9c.72-.88,1.41-2.19,2.94-5.57a11.22,11.22,0,0,0-2.08.83.79.79,0,0,1-.46.18,1.2,1.2,0,0,1-.71-.48,2.61,2.61,0,0,1-.52-1.22,1.11,1.11,0,0,1,.09-.35c.34.66.63.88,1.22.88a16.64,16.64,0,0,0,2.72-.56,9,9,0,0,0,.66-2.62c0-.5-.32-.79-1.24-1.08a.68.68,0,0,1,.47-.17,4.9,4.9,0,0,1,1.09.2c.72.21,1.12.52,1.12.85,0,.11,0,.18-.23.47a16.45,16.45,0,0,0-1,2.16,5.79,5.79,0,0,1,1.39-.18c1.38,0,2,.82,2,2.5a10.22,10.22,0,0,1-1.74,5.73,2.33,2.33,0,0,1-1.54.72.37.37,0,0,1-.43-.37c0-.42-.1-.5-1.78-1.87Zm7.06-6.45a5.53,5.53,0,0,1,2.93,1.92,3.8,3.8,0,0,1,.91,2.25c0,.56-.24.88-.64.88a.61.61,0,0,1-.37-.11,1,1,0,0,0-.66-.17,14.55,14.55,0,0,0-2,.14l-.06-.21a22.84,22.84,0,0,0,2.45-.82A4.8,4.8,0,0,0,751,703Zm.54-3.21a7.05,7.05,0,0,1,1.43,1c.57.51.8.88.8,1.26s-.23.67-.5.67-.21,0-.71-1a7.34,7.34,0,0,0-1.23-1.68Zm1.65-.92a6.65,6.65,0,0,1,1.54.91c.6.46.81.78.81,1.23s-.16.66-.4.66-.24-.08-.37-.31a8.26,8.26,0,0,0-1.76-2.29Z" transform="translate(-488.65 -363.54)"/><path d="M757.87,700.72a2.5,2.5,0,0,0,2.24.94,5,5,0,0,0,.93-.08c.09-.72.17-1.5.17-1.77,0-.58-.25-.84-1-1.08a.61.61,0,0,1,.47-.17,3.8,3.8,0,0,1,1.39.37c.4.2.59.4.59.65s0,.15-.21.42a3.72,3.72,0,0,0-.49,1.44,7.22,7.22,0,0,0,3-1.14.46.46,0,0,1,.4-.17,2.94,2.94,0,0,1,.75.12.38.38,0,0,1,.25.36c0,.28-.32.48-1.37.85a22.09,22.09,0,0,1-3.22.75,18,18,0,0,0-.3,2.41,9.61,9.61,0,0,1,2.56-.51V704c0-.31-.13-.53-.51-.88l.17,0a1.27,1.27,0,0,1,1,1,5.41,5.41,0,0,1,3.1,1.14,3.18,3.18,0,0,1,1.09,2.53c0,2.43-2.48,4.26-6.24,4.58l0-.26c3.25-.8,5.06-2.46,5.06-4.69a2.61,2.61,0,0,0-1.17-2.27,4.26,4.26,0,0,0-1.86-.56,7.92,7.92,0,0,1-1,2.19,9.46,9.46,0,0,1-1.71,2.08,4.06,4.06,0,0,0,.4.67,1.24,1.24,0,0,1,.18.68c0,.43-.15.73-.37.73s-.55-.43-.93-1.41a5.24,5.24,0,0,1-2.77,1.53c-.38,0-.56-.18-.77-.74a3.44,3.44,0,0,0-.3-.61,1.58,1.58,0,0,1-.31-1,3.45,3.45,0,0,1,1.51-2.51,8.8,8.8,0,0,1,2.16-1.28l.1-1.19c0-.27,0-.53.14-1.42l-.61,0a2.78,2.78,0,0,1-2.67-1.47Zm.56,6.72a2.69,2.69,0,0,0-.5,1.51c0,.59.24,1,.61,1a5,5,0,0,0,2.38-1.29,12,12,0,0,1-.24-2.58v-.58A5.74,5.74,0,0,0,758.43,707.44Zm3-1.77a10.88,10.88,0,0,0,.23,2.33,8.68,8.68,0,0,0,2.29-3.46,8.25,8.25,0,0,0-2.52.61Z" transform="translate(-488.65 -363.54)"/><path d="M774.4,712.58a8.4,8.4,0,0,0,4.22-7.64,7.56,7.56,0,0,0-.59-3.29,1.31,1.31,0,0,0-1.14-.71c-.8,0-1.53.69-2.11,2a9.11,9.11,0,0,0-.75,3.44,9.51,9.51,0,0,0,.06,1,1.72,1.72,0,0,1,0,.33c0,.31-.15.48-.42.48-.61,0-1-1.29-1-3.28a19.06,19.06,0,0,1,.52-4.29,7.24,7.24,0,0,0,.17-1.17c0-.51-.22-.81-.86-1.13a.91.91,0,0,1,.29-.08,2.53,2.53,0,0,1,1.28.53c.44.32.62.57.62.89a1,1,0,0,1-.22.61,11.48,11.48,0,0,0-1.16,4.77c0,.14,0,.3,0,.59h0a8.82,8.82,0,0,1,1.86-4.19,2.59,2.59,0,0,1,1.95-1c1.54,0,2.63,1.89,2.63,4.57a7.93,7.93,0,0,1-1.75,5.23,8,8,0,0,1-3.54,2.53Z" transform="translate(-488.65 -363.54)"/><path d="M784,701.28a3.29,3.29,0,0,0,2.57.86,13.83,13.83,0,0,0,2.29-.19c-.06-2.45-.17-2.67-1.39-2.85.22-.22.35-.25.8-.25a4.78,4.78,0,0,1,1.35.2c.38.13.54.29.54.53s0,.1-.21.55a5.26,5.26,0,0,0-.29,1.69,8,8,0,0,0,3-.94.49.49,0,0,1,.19-.07,2,2,0,0,1,.84.28.49.49,0,0,1,.27.38c0,.23-.26.35-1.25.59a26,26,0,0,1-3.06.56c0,.42,0,.66,0,1s0,.75,0,1.45a12.63,12.63,0,0,0,1.83-.43,2.5,2.5,0,0,0,.8-.4.36.36,0,0,1,.24-.06,1.81,1.81,0,0,1,.81.24.32.32,0,0,1,.2.3c0,.29-.23.42-1.24.69a16.45,16.45,0,0,1-2.61.46c0,.63,0,.89,0,1.45s.05.84.1,1.24a8.41,8.41,0,0,1,3.52,1.38,1.39,1.39,0,0,1,.46,1.06c0,.33-.14.56-.35.56s-.22-.05-.64-.45a8.8,8.8,0,0,0-1.34-1,6,6,0,0,0-1.6-.68c0,.36,0,.52,0,.71a1.58,1.58,0,0,1-.54,1.34,3.59,3.59,0,0,1-2.15.6c-1.6,0-2.7-.71-2.7-1.72s1.49-1.93,3.62-1.93h.8c0-.77,0-.88,0-1.1V706c-.64,0-.94,0-1.18,0a4.38,4.38,0,0,1-2.13-.35,1.38,1.38,0,0,1-.72-1.22,4,4,0,0,1,0-.44h.24c0,.5.1.72.34.91a3.28,3.28,0,0,0,1.87.36,13.44,13.44,0,0,0,1.55-.12v-1.12l0-1.16v-.2c-.88.08-1.52.12-2.07.12a3,3,0,0,1-3-1.38Zm3.55,7.87a5,5,0,0,0-1.74.31q-.87.33-.87,1c0,.58.66.91,1.75.91a2.63,2.63,0,0,0,1.82-.58,1.17,1.17,0,0,0,.35-.83,5.86,5.86,0,0,0,0-.61v0A9.76,9.76,0,0,0,787.5,709.15Z" transform="translate(-488.65 -363.54)"/><path d="M800.48,712.24a6.13,6.13,0,0,0,3-4,1.8,1.8,0,0,1-1,.32,2.11,2.11,0,0,1-2-2.3,2.22,2.22,0,0,1,2.07-2.45,1.67,1.67,0,0,1,.9.27c0-.27,0-1.15,0-1.66,0,0,0-.18,0-.32a21.38,21.38,0,0,0-4,.8,5.56,5.56,0,0,0-1,.43,1.53,1.53,0,0,1-.37.08,1.69,1.69,0,0,1-1-.61,2.37,2.37,0,0,1-.64-1.17.51.51,0,0,1,.08-.19,1.86,1.86,0,0,0,1.55.81,8.74,8.74,0,0,0,1.38-.14c1.89-.3,2.46-.38,4.1-.56a5.33,5.33,0,0,0-.18-1.78c-.18-.44-.56-.67-1.38-.78.19-.24.31-.29.74-.29a5.14,5.14,0,0,1,1.55.23c.39.12.61.33.61.56s0,.16-.16.43a3.83,3.83,0,0,0-.35,1.55c.41-.05.41-.05,1-.09a7.71,7.71,0,0,0,2.13-.29c.4-.16.46-.18.59-.18a2.82,2.82,0,0,1,1.36.59.52.52,0,0,1,.26.44c0,.17-.12.27-.36.27a6.19,6.19,0,0,1-.86-.1A17.38,17.38,0,0,0,806,702c-.59,0-1,0-1.71.07-.06.6-.11,1.58-.11,2.17,0,.11,0,.31,0,.55a4.16,4.16,0,0,1,.51,2.13,5.57,5.57,0,0,1-1.73,4.06,8,8,0,0,1-2.39,1.52Zm2-8c-.72,0-1.28.75-1.28,1.73s.54,1.75,1.29,1.75,1-.52,1-1.51C803.55,704.83,803.21,704.19,802.51,704.19Z" transform="translate(-488.65 -363.54)"/><path d="M813.31,711a2.07,2.07,0,1,1-2.07-2.06A2,2,0,0,1,813.31,711Zm-3.62,0a1.57,1.57,0,0,0,1.55,1.56,1.56,1.56,0,1,0-1.55-1.56Z" transform="translate(-488.65 -363.54)"/></g></g></g><g id="グループ_13" data-name="グループ 13"><g id="長方形_138" data-name="長方形 138"><rect class="cls-1" x="595.31" width="351" height="266"/><rect class="cls-2" x="595.81" y="0.5" width="350" height="265"/></g><g id="傾斜の緩やかな部分を植生マット工_急な部分をチップ材吹付工で保護しました_" data-name="傾斜の緩やかな部分を植生マット工 急な部分をチップ材吹付工で保護しました " class="cls-3"><g class="cls-3"><path d="M1129.2,652.5a24,24,0,0,0,2.21-4.27,14.05,14.05,0,0,0,1-3.25c1.33.32,1.81.5,1.81.61a.16.16,0,0,1-.1.14,3,3,0,0,1-.69.23,26.15,26.15,0,0,1-1.9,3.68l.32,0c.5.07.74.13.74.24s-.15.19-.42.31l0,5v1.73c0,.6,0,.67,0,2.48v0a.18.18,0,0,1-.16.19,3,3,0,0,1-.73.08c-.15,0-.21-.05-.21-.17,0-.79,0-.79,0-2.12,0-.45,0-1.17,0-2.14v-5a17.41,17.41,0,0,1-1.79,2.33Zm5.24,3.19c0,.24.08.27.57.27s.63-.05.71-.25a26.68,26.68,0,0,0,.62-2.66h.21l-.08,2.34v.33c0,.07,0,.07.22.21a.34.34,0,0,1,.15.32c0,.43-.55.59-2.12.59-1,0-1.21-.09-1.25-.78v-7.38c0-.87,0-.95,0-1.44.31,0,.53.08.69.09.67.1.87.16.87.28s-.23.24-.56.33v3.19a10,10,0,0,0,1.52-2.23c.25.21.44.35.57.47a4.48,4.48,0,0,0,.39.29c.12.11.19.19.19.27s-.08.13-.19.13l-.36,0a14,14,0,0,1-2.12,1.41Zm-.15,3.76a15.33,15.33,0,0,0,3-1.74,4.73,4.73,0,0,0,1.13-1.06c1.11.58,1.41.77,1.41.88s-.14.16-.72.16a14.17,14.17,0,0,1-4.62,1.94Zm6.68-12.93a11.48,11.48,0,0,1-1.28,2.16h2.46l.54-.67c.42.27.55.37.93.65.1.08.13.13.13.18s-.13.21-.4.33v4.58c0,1,0,1.56,0,2.72,0,.15,0,.2-.14.21a6,6,0,0,1-.74.07.18.18,0,0,1-.21-.2v-.49h-4v.33c0,.13,0,.2-.16.21s-.48,0-.61,0-.27-.06-.27-.19v-.07c0-1.18.06-3.89.06-6.62,0-.16,0-.31,0-1.64a11.65,11.65,0,0,1,1.12.55h.93a9.87,9.87,0,0,0,.37-2.16h-2.42a7.33,7.33,0,0,0-1.26.11l-.16-.61a6.35,6.35,0,0,0,1.42.13h4.93l.83-1c.66.48.87.64,1.53,1.14a.17.17,0,0,1,.08.13c0,.06-.08.11-.16.11Zm1.32,2.53h-4v1.81h4Zm-4,2.17v2h4v-2Zm0,2.37v2.1h4v-2.1Zm2.17,3a18.21,18.21,0,0,1,3.17,1.2,1.13,1.13,0,0,1,.63,1.06c0,.45-.13.75-.34.75s-.21-.06-.5-.37a15.78,15.78,0,0,0-3-2.43Z" transform="translate(-488.65 -363.54)"/><path d="M1145.58,651.22a19.71,19.71,0,0,0,2.69-3.68,14.3,14.3,0,0,0,1.2-2.51c1.56.4,1.65.43,1.65.58s-.16.19-.65.27l-.18.3a17.46,17.46,0,0,1,2.15,1.27c.49.33.6.52.6,1s-.17.89-.4.89-.19-.09-.3-.3a8.83,8.83,0,0,0-2.19-2.66,21.14,21.14,0,0,1-2,2.73,13.4,13.4,0,0,1-2.44,2.27Zm.15,7.13a26.45,26.45,0,0,0,1.66-4.53l.71.24c.57.19.75.29.75.4s-.11.16-.56.21a17.55,17.55,0,0,1-2.45,3.74Zm4.59-5.8h1.43a10.41,10.41,0,0,1,.85-.91,15.53,15.53,0,0,1,1.18,1.09s.06.08.06.11a.1.1,0,0,1-.09.08h-3.43v3.91c0,.27,0,.35,0,1.45,0,.85-.16,1-1.46,1.4-.21-.74-.21-.74-2-1.13l0-.2c.84,0,.92,0,2.14.06h.05c.13,0,.19,0,.19-.17v-5.32h-2.51a4.46,4.46,0,0,0-.87.06l-.06-.54a2.76,2.76,0,0,0,.93.11h2.51v-2.13h-1.07a3.6,3.6,0,0,0-.8.07l-.07-.53a2.9,2.9,0,0,0,.9.1h2.64c.35-.4.47-.52.82-.9.54.45.69.59,1.15,1,.06.08.08.12.08.15s-.06.09-.14.09h-2.52Zm.82,1.33c1.31,1.27,1.95,2.15,1.95,2.67a2.93,2.93,0,0,1-.33,1.19c-.12.14-.21.21-.32.21s-.18,0-.28-.68A8.42,8.42,0,0,0,1151,654Zm7.41.51c.26-.54.34-.7.59-1.2.69.37.9.5,1.56.92a.24.24,0,0,1,.06.11s0,.09-.1.11l-2.32.51c0,3.11,0,3.11.08,4.61v0c0,.1-.06.16-.17.18a6.37,6.37,0,0,1-.8.08c-.15,0-.21,0-.21-.18,0-1.17,0-2.37,0-4.49l-2.81.6a5.31,5.31,0,0,0-1,.34l-.21-.54a5.07,5.07,0,0,0,1.14-.15l2.9-.64v-2.8c0-4,0-5.47-.12-6.5,1.84.27,1.91.29,1.91.47s-.13.2-.77.36c0,1.94,0,4.68,0,8.23Zm-5-3.85a12.49,12.49,0,0,1,1.82,1c.58.41.71.6.71,1.09s-.2.79-.4.79-.18,0-.5-.57a14.76,14.76,0,0,0-1.73-2.23Zm.3-3.94a14.15,14.15,0,0,1,1.79,1.12c.6.43.71.59.71,1s-.24.92-.47.92-.19-.08-.46-.58a11.7,11.7,0,0,0-1.67-2.32Z" transform="translate(-488.65 -363.54)"/><path d="M1168.29,658.22A7.29,7.29,0,0,0,1172,656a5.69,5.69,0,0,0,1.42-3.85,4,4,0,0,0-1.81-3.54,5.22,5.22,0,0,0-2.77-.74,4,4,0,0,0-.56,0,2.09,2.09,0,0,1,.5,1.33,13.21,13.21,0,0,1-2.11,5.54c-1,1.6-1.79,2.39-2.39,2.39a.91.91,0,0,1-.7-.34,3,3,0,0,1-.45-1,9.77,9.77,0,0,0-.7-1.51,3,3,0,0,1-.37-1.45,5,5,0,0,1,1.44-3.17,7.73,7.73,0,0,1,5.5-2.24,6,6,0,0,1,4.13,1.47,4.86,4.86,0,0,1,1.54,3.76,5.52,5.52,0,0,1-3.18,4.85,9.53,9.53,0,0,1-3.13,1Zm-5.26-5a3.73,3.73,0,0,0,.64,2.11c.22.29.43.47.6.47.36,0,1.12-.87,1.91-2.11a12.46,12.46,0,0,0,2-5,1.85,1.85,0,0,0-.22-.8C1165.2,648.46,1163,650.78,1163,653.24Z" transform="translate(-488.65 -363.54)"/><path d="M1176.67,647.59a8.52,8.52,0,0,1,1.27.7,12.42,12.42,0,0,0,1.13-3.13c1.27.35,1.69.51,1.69.64s-.15.19-.69.24a24.22,24.22,0,0,1-1.81,2.46c.72.52.88.69.88,1,0,.49-.23,1-.47,1s-.17-.08-.27-.25a7.77,7.77,0,0,0-1.89-2.5Zm-.08,11.89a24.39,24.39,0,0,0,.8-5.37c.31.06.53.11.68.12.64.13.86.21.86.32s-.16.23-.53.34a16.8,16.8,0,0,1-1.53,4.67Zm9.21-9a15.54,15.54,0,0,1-.26,1.57h3.51c.4-.47.53-.59.91-1a15.84,15.84,0,0,1,1.36,1.12.3.3,0,0,1,0,.14s-.07.1-.15.1h-5.76c-.16.64-.27,1-.43,1.53h3.31a6.51,6.51,0,0,1,.63-.65c.43.32.57.41,1,.75.11.11.16.16.16.22s-.13.2-.74.32a11,11,0,0,1-1.82,2.32,8.72,8.72,0,0,0,4,1.14v.19a.85.85,0,0,0-.59.45,2.4,2.4,0,0,0-.31.72,11.58,11.58,0,0,1-3.66-2,9.71,9.71,0,0,1-1.75,1.17,11.91,11.91,0,0,1-3,1.13l-.13-.24a10.37,10.37,0,0,0,3-1.55,9.79,9.79,0,0,0,1.25-1.06,7.85,7.85,0,0,1-1.6-2.11,10.73,10.73,0,0,1-3.78,5l-.12-.2a12,12,0,0,0,2.7-4.05,20.63,20.63,0,0,0,.94-3.09h-1.88v.09c0,.47-.29,1-.56,1s-.18-.07-.32-.56c-.07-.21-.12-.35-.21-.66-.67.16-.79.19-1.31.29v3.76c0,1.35,0,2.26.06,3.25,0,.1,0,.15-.06.18a2.12,2.12,0,0,1-.85.11c-.13,0-.18,0-.18-.18s0-1.17,0-3.2v-3.74c-1.26.24-1.26.24-1.74.3-.07.48-.11.61-.26.61s-.24-.21-.59-1.51l.42,0c.14,0,.49,0,1.28-.08.32-.53.49-.83,1.16-2a19,19,0,0,0,1.37-3c1.24.39,1.6.53,1.6.66s-.16.21-.71.22a47.06,47.06,0,0,1-2.93,4.13c1.16-.06,1.48-.09,2.56-.19a5.77,5.77,0,0,0-.68-1.28l.11-.14a5.11,5.11,0,0,1,1.66,1.6h2.11a13.34,13.34,0,0,0,.23-1.57h-1.44c-.9,0-.9,0-1.09.1l-.13-.58a5.38,5.38,0,0,0,1.23.11h4a21.35,21.35,0,0,0,1.57-3.41c.56.19,1.25.45,1.44.55s.13.09.13.16-.21.2-.62.22a14.29,14.29,0,0,0-1.15,1.33,15.06,15.06,0,0,1-1,1.15h1.12c.37-.43.5-.56.9-1a12,12,0,0,1,1.28,1.06.37.37,0,0,1,.1.16c0,.06-.07.11-.15.11Zm-5,3.25c1.18,1.09,1.64,1.71,1.64,2.16s-.35,1.07-.65,1.07c-.13,0-.18-.11-.27-.53a12.79,12.79,0,0,0-.87-2.62Zm1.56-6.77a20.82,20.82,0,0,0,4.12-1,12,12,0,0,0,2.37-1c1.49.86,1.5.86,1.5,1s-.11.16-.26.16l-.46-.06a30.39,30.39,0,0,1-7.23,1.12Zm.45.53a9.79,9.79,0,0,1,1.12.89,1,1,0,0,1,.35.72c0,.37-.28.84-.51.84s-.17-.07-.29-.47a6.49,6.49,0,0,0-.83-1.87Zm2.07,6.82a.77.77,0,0,0-.07.16,6.11,6.11,0,0,0,1.94,2,7.23,7.23,0,0,0,1.54-2.12Zm.27-7.06c1,.7,1.55,1.29,1.55,1.73s-.37.89-.62.89-.21-.11-.31-.58a6.3,6.3,0,0,0-.77-2Z" transform="translate(-488.65 -363.54)"/><path d="M1199.49,645.64c1.67.8,2.32,1.45,2.32,2.32,0,.38-.17.61-.48.61-.09,0-.12,0-.49-.16a7.89,7.89,0,0,0-1.75-.37c-1.09-.13-2.11-.21-2.48-.21s-.61.18-.61.45a12.14,12.14,0,0,0,1.06,2.5,24.36,24.36,0,0,1,2.8-1.3,8.24,8.24,0,0,1,3.07-.64c1.94,0,3.32,1,3.32,2.53a2.68,2.68,0,0,1-.82,1.82,3.58,3.58,0,0,1-2.54.87,6.2,6.2,0,0,1-3.64-1.2l.11-.24a6.71,6.71,0,0,0,2.81.67,3.09,3.09,0,0,0,2.4-.87,2.08,2.08,0,0,0,.51-1.37c0-1.11-.83-1.73-2.31-1.73a6.64,6.64,0,0,0-3,.88c-.75.37-1.49.77-2.37,1.3.77,1.55,1.25,2.62,1.79,4a7.59,7.59,0,0,1,.79,2.63c0,.68-.31,1.2-.74,1.2a.41.41,0,0,1-.26-.16,1.41,1.41,0,0,1-.2-.71,28.28,28.28,0,0,0-2-6.59l-1.65,1.12-.43.32a.82.82,0,0,1-.56.24,2.16,2.16,0,0,1-1.7-1.75.81.81,0,0,1,.07-.27c.37.55.75.83,1.12.83a8.14,8.14,0,0,0,2.8-1.23,9.77,9.77,0,0,0-1.11-2c-.28-.38-.33-.48-.33-.68a1.27,1.27,0,0,1,1.2-1.09,1.33,1.33,0,0,1,.5.08,1.65,1.65,0,0,0,.41,0l1.28,0c.4,0,.72,0,1.2,0,.93,0,1.06,0,1.06-.21,0-.32-.56-1-1.3-1.47Z" transform="translate(-488.65 -363.54)"/><path d="M1211.54,650.68a12.23,12.23,0,0,0-2.08.83.81.81,0,0,1-.47.18,1.21,1.21,0,0,1-.7-.48,2.54,2.54,0,0,1-.53-1.22,1,1,0,0,1,.1-.35c.33.67.62.88,1.21.88a16.12,16.12,0,0,0,2.73-.56,9.29,9.29,0,0,0,.65-2.63c0-.49-.3-.76-1.23-1.07a.71.71,0,0,1,.48-.16,4.28,4.28,0,0,1,1.07.21c.72.21,1.12.5,1.12.83,0,.13,0,.19-.22.47a14.77,14.77,0,0,0-1,2.17,5.6,5.6,0,0,1,1.4-.19c1.37,0,2,.82,2,2.5a10.29,10.29,0,0,1-1.75,5.74,2.22,2.22,0,0,1-1.53.72c-.27,0-.4-.11-.43-.36,0-.45-.08-.48-1.78-1.88l.14-.2a8.26,8.26,0,0,0,2.48,1.1c.37,0,.63-.34,1-1.34a12.44,12.44,0,0,0,1-4.31c0-1.07-.29-1.46-1.14-1.46a5.26,5.26,0,0,0-1.68.34c-.22.54-.22.54-.93,2.18-.06.16-.38.91-.94,2.24-.64,1.5-1.17,2.65-1.43,3.1-.11.21-.24.31-.38.31-.29,0-.46-.42-.46-1.11a1,1,0,0,1,.36-.89,11.61,11.61,0,0,0,1.19-1.89c.61-1.19.61-1.19,1.28-2.66Zm6.24-1a5.45,5.45,0,0,1,2.93,1.92,3.74,3.74,0,0,1,.91,2.27c0,.54-.24.86-.64.86a.57.57,0,0,1-.36-.11,1.08,1.08,0,0,0-.66-.16,13.59,13.59,0,0,0-2,.15l-.07-.23a21.2,21.2,0,0,0,2.45-.82,4.14,4.14,0,0,0-.49-1.53,4.65,4.65,0,0,0-2.2-2.13Z" transform="translate(-488.65 -363.54)"/><path d="M1223.46,648.47a2.56,2.56,0,0,0,2,.93,7.58,7.58,0,0,0,1.46-.19,6.68,6.68,0,0,0,.58-2.28c0-.52-.26-.84-1-1.23a.75.75,0,0,1,.39-.11,3.29,3.29,0,0,1,1.28.37c.54.27.75.45.75.67a.69.69,0,0,1-.16.42c-.06.12-.4.78-1,2a4.12,4.12,0,0,0,1.78-.89.4.4,0,0,1,.34-.12c.62,0,1.08.2,1.08.48s-1,.81-3.53,1.41c-.15.32-.42,1-.85,1.93s-1.71,3.8-1.86,4.07c-.24.43-.38.57-.57.57s-.5-.49-.5-1.13c0-.32,0-.42.18-.58a6.47,6.47,0,0,0,.76-1,21.07,21.07,0,0,0,2-3.76,4.58,4.58,0,0,1-.76.06,2.55,2.55,0,0,1-1.4-.33,3.28,3.28,0,0,1-1.17-1.17Zm8.47.9a5.52,5.52,0,0,1,2.73.88c.63.4,1,.88,1,1.25a.41.41,0,0,1-.41.46.58.58,0,0,1-.37-.13,2.55,2.55,0,0,0-1.57-.33c-1.28,0-1.68.35-1.68,1.45a23.14,23.14,0,0,0,.32,2.76,7,7,0,0,1,2.27,1,1.52,1.52,0,0,1,.64,1.26c0,.32-.13.54-.32.54s-.22,0-.56-.41a5.72,5.72,0,0,0-1.94-1.41v.3a1.79,1.79,0,0,1-.44,1.36,2.94,2.94,0,0,1-2.08.69c-1.45,0-2.44-.69-2.44-1.69s1.22-1.91,3-1.91a5.48,5.48,0,0,1,1,.08c0-1.26,0-1.39,0-1.58,0-1.31.12-1.81.56-2.29a3,3,0,0,1,1.52-.75c.24-.07.27-.08.86-.21a4.46,4.46,0,0,0-2.06-1.11Zm-.87,7a4.24,4.24,0,0,0-1.37-.19c-1.37,0-2.2.46-2.2,1.21s.61,1,1.6,1c1.3,0,2-.53,2-1.54Z" transform="translate(-488.65 -363.54)"/><path d="M1244.36,651.62c.35-.44.46-.59.8-1,.57.48.73.62,1.28,1.13,0,.07.08.11.08.15s-.07.09-.16.09h-7.75a8,8,0,0,0-1.12.08l-.11-.57a6.41,6.41,0,0,0,1.25.12h3.63a16.18,16.18,0,0,0,1.14-3.55c1.53.4,1.68.47,1.68.61s-.23.22-.72.26a18.87,18.87,0,0,1-1.75,2.68Zm-.28-4.32c.39-.41.5-.54.87-1a15.44,15.44,0,0,1,1.18,1.08c0,.06.1.12.1.15s-.06.1-.19.1h-6.85a7.88,7.88,0,0,0-1.25.08l-.1-.58a8,8,0,0,0,1.35.13h2.08v-1a11,11,0,0,0-.07-1.18c1.51.13,1.72.17,1.72.35s-.18.24-.6.37v1.42Zm-4.17,11.86c0,.23-.16.28-.79.28-.3,0-.37,0-.37-.21.07-1.33.08-2.48.08-4.2,0-.56,0-.56,0-2,.52.32.68.42,1.18.77h3.71l.53-.69c.42.31.55.4,1,.71.09.08.13.14.13.21s-.13.2-.47.33v3.2c0,.32,0,.79,0,1.43,0,.21-.2.27-.79.27-.27,0-.32,0-.32-.19v-.75h-3.82Zm-.93-11.11c1.28,1,1.9,1.69,1.9,2.17s-.46,1.07-.75,1.07c-.08,0-.14-.08-.16-.23a6.75,6.75,0,0,0-1.14-2.86Zm.93,9.9h3.82v-3.78h-3.82Zm7.78-1.2c0,.12,0,.56,0,1.18v1.57a.23.23,0,0,1-.09.21,2.59,2.59,0,0,1-.76.09c-.25,0-.3,0-.32-.2.08-2.5.13-7,.13-10.36,0-1.92,0-2.48-.08-3.59.53.29.69.39,1.2.69h2.48l.58-.78c.5.38.66.49,1.12.88.1.09.14.16.14.22s-.17.23-.57.31a26.63,26.63,0,0,1-2.45,4.16,7.12,7.12,0,0,1,1.79,1.65,3.72,3.72,0,0,1,.87,2.51,2.58,2.58,0,0,1-.66,2,2.63,2.63,0,0,1-1.54.69c-.06-.66-.37-.9-1.53-1.22v-.24l.72.08c.66.06,1,.08,1.11.08a.67.67,0,0,0,.53-.16,2.32,2.32,0,0,0,.25-1.38,3.73,3.73,0,0,0-.43-2,6.8,6.8,0,0,0-1.54-1.92,26.14,26.14,0,0,0,1.57-4.51h-2.54Z" transform="translate(-488.65 -363.54)"/><path d="M1253.15,652.46a16.07,16.07,0,0,0,3.3-3.75,12.45,12.45,0,0,0,1.65-3.41,6.79,6.79,0,0,0,.8.27c.82.29,1,.36,1,.47s-.18.21-.77.29a16,16,0,0,1-2.67,3.81,14.7,14.7,0,0,1-3.12,2.51Zm7-.55A11,11,0,0,1,1259,656a7.84,7.84,0,0,1-3.15,3,12.14,12.14,0,0,1-1.86.8l-.11-.23a9,9,0,0,0,4.3-4.32,10.58,10.58,0,0,0,.84-3.3h-2a9.21,9.21,0,0,0-1.28.11l-.11-.6a7.73,7.73,0,0,0,1.38.12h6.82c.28-.27.38-.35.67-.6a7.29,7.29,0,0,1,1,.7c.13.11.18.18.18.24s-.11.21-.56.43c-.16,3.38-.45,5.48-.85,6.31-.32.67-.9.88-2.79.93a.84.84,0,0,0-.51-.82,8.35,8.35,0,0,0-1.9-.45V658c2.36.27,3,.33,3.57.33s.8-.25,1-1.5a40.84,40.84,0,0,0,.35-4.92Zm2-6.54a1,1,0,0,0,.07.4,8.44,8.44,0,0,0,2.45,3.12,9.86,9.86,0,0,0,3.61,1.85l0,.21a1.73,1.73,0,0,0-1.3,1.11,13.76,13.76,0,0,1-3-2.58,12.36,12.36,0,0,1-1.94-3.12,2,2,0,0,0-.51-.74Z" transform="translate(-488.65 -363.54)"/><path d="M1270.31,648a2.6,2.6,0,0,0,2,.75,8.72,8.72,0,0,0,1.71-.2,4.41,4.41,0,0,0,.56-1.64c0-.43-.3-.69-1.14-.89a1.25,1.25,0,0,1,.72-.18,3.48,3.48,0,0,1,1.25.27c.4.16.58.34.58.53s-.07.22-.26.46l-.46.66-.4.63a5.32,5.32,0,0,0,2.3-1,.47.47,0,0,1,.31-.11c.62,0,1.07.22,1.07.53s-.21.35-.69.51a25.08,25.08,0,0,1-3.49.91c-.29.4-.48.69-.85,1.25s-.56.85-.86,1.28a4.4,4.4,0,0,1,2.06-.64,1.78,1.78,0,0,1,1.8,1.6l1.57-.78c1.58-.8,2-1.06,2-1.35s-.27-.56-.73-.75a.76.76,0,0,1,.37-.1,2.26,2.26,0,0,1,1.81,1.62c0,.29-.13.4-.58.5a26,26,0,0,0-4.29,1.64c0,.52,0,.61,0,1.3a4.57,4.57,0,0,1-.12,1.38.52.52,0,0,1-.45.3.48.48,0,0,1-.51-.48c0-.08,0-.16,0-.27a12.88,12.88,0,0,0,.11-1.71,8.13,8.13,0,0,0-1.87,1.26,2.13,2.13,0,0,0-.78,1.49c0,.86.88,1.28,2.67,1.28a11.54,11.54,0,0,0,3.22-.45,1.25,1.25,0,0,1,.3,0c.5,0,1.12.45,1.12.81,0,.2-.17.36-.49.43a17.74,17.74,0,0,1-2.87.22,8.39,8.39,0,0,1-3.25-.46,1.77,1.77,0,0,1-1.18-1.7,3.05,3.05,0,0,1,1.15-2.19,12.09,12.09,0,0,1,2-1.43,2.6,2.6,0,0,0-.22-1.26.9.9,0,0,0-.82-.48c-1.05,0-2.32.85-3.47,2.32-.3.42-.43.51-.59.51s-.43-.33-.43-.85c0-.33,0-.35.46-.72a12.83,12.83,0,0,0,3-3.44,6.19,6.19,0,0,1-1.07.1,2.59,2.59,0,0,1-2.39-1.24Z" transform="translate(-488.65 -363.54)"/><path d="M1287.11,648.63c.32-.42.41-.54.72-.93a13.13,13.13,0,0,1,1.18,1.06.45.45,0,0,1,.07.14c0,.05-.07.1-.13.1h-2.29v1.57a6.89,6.89,0,0,1,1.12.8c.43.35.58.56.58.83,0,.48-.24,1-.48,1s-.18-.09-.28-.4a4.2,4.2,0,0,0-1-1.9v1.33c0,1.28,0,5.1,0,7.36,0,.1,0,.14-.12.18a4.73,4.73,0,0,1-.83.09c-.1,0-.13,0-.14-.13,0-.64,0-1.15,0-1.48.08-2,.08-2,.09-4.63l.18-3a15.4,15.4,0,0,1-2.61,5.5l-.17-.12a26.57,26.57,0,0,0,2.35-7h-1a3.79,3.79,0,0,0-.82.1l-.08-.6a4.6,4.6,0,0,0,.9.13h1.2v-1.94c0-.52,0-.84-.07-1.52,1.75.24,1.88.28,1.88.45s-.11.21-.75.43l0,2.58Zm2.61,10.84a.17.17,0,0,1-.13.19,7.7,7.7,0,0,1-.8.08c-.11,0-.16,0-.16-.16,0-1.42,0-2.13,0-3.14,0-4.38,0-5.76-.07-6.62l.69.08c.82.09,1,.16,1,.32s-.08.17-.6.36v7.89h6.37c.41-.47.53-.62.94-1.05.56.5.74.66,1.27,1.18.06.07.09.11.09.15s-.06.09-.11.09h-8.56Zm-.15-11.59a4.62,4.62,0,0,0-.81.09l-.1-.57a4.55,4.55,0,0,0,1.06.11H1293c.16-1.2.19-1.62.23-2.29,1.68.23,1.72.23,1.72.39s-.11.19-.72.38c-.14,1.1-.14,1.1-.19,1.52h1.81c.37-.46.48-.61.85-1.06.64.53.85.69,1.47,1.22a.23.23,0,0,1,.07.13c0,.05,0,.08-.12.08H1294c-.09.69-.09.69-.27,1.76h1.89a7.84,7.84,0,0,1,.5-.64c.4.27.51.37.89.64.1.1.15.16.15.22s-.13.21-.48.4c0,.84,0,1.49,0,1.92,0,1,0,3.37,0,5.17a.16.16,0,0,1-.11.18,5.9,5.9,0,0,1-.72.05c-.1,0-.13,0-.15-.15v-.6h-3.55v.7c0,.06,0,.08-.1.1a4.77,4.77,0,0,1-.73.06c-.11,0-.16-.05-.16-.18,0-2,0-2.64,0-3.52,0-2.41,0-4.14-.07-4.83l1.11.48h.43c.16-1,.16-1,.27-1.76Zm6.13,3.92V650h-3.55v1.79Zm-3.55.37v2h3.55v-2Zm0,2.34v2h3.55v-2Z" transform="translate(-488.65 -363.54)"/><path d="M1306.17,649.27V647a12.61,12.61,0,0,0-.1-1.61c1.44.11,1.87.19,1.87.36s-.13.21-.65.47v3.07h3c.37-.53.48-.69.88-1.2.74.56,1,.74,1.65,1.35.05.06.08.09.08.12s-.06.1-.19.1h-5.47v3.76H1310c.35-.51.46-.67.86-1.18.69.54.9.72,1.59,1.31,0,.05.08.09.08.13s-.08.11-.23.11h-5v4.51h3.8a13.15,13.15,0,0,0,1-1.25c.77.58,1,.77,1.78,1.4a.18.18,0,0,1,.08.11c0,.06-.1.11-.19.11H1301.3a9.26,9.26,0,0,0-1.55.11l-.16-.62a8,8,0,0,0,1.69.14h4.89v-4.51h-3.41a6.9,6.9,0,0,0-1.29.1l-.12-.6a7.39,7.39,0,0,0,1.41.13h3.41v-3.76h-3.54a16.06,16.06,0,0,1-2.69,3.49l-.19-.16a17.47,17.47,0,0,0,2.33-4.42,11.56,11.56,0,0,0,.68-2.27c1.52.48,1.82.61,1.82.77s-.18.2-.72.25a20,20,0,0,1-1,2Z" transform="translate(-488.65 -363.54)"/><path d="M1319.22,652.75a13.82,13.82,0,0,1,2.67,1.61,36.24,36.24,0,0,0,3.67-3.87c.38-.5.51-.67.51-.75s-.1-.13-.26-.13a38.23,38.23,0,0,0-5,.72,12,12,0,0,0-3.15.86,1,1,0,0,1-.45.13c-.29,0-.69-.3-1.07-.83a2.48,2.48,0,0,1-.56-1.22.84.84,0,0,1,.09-.37,2,2,0,0,0,.77.8,1.71,1.71,0,0,0,1,.2,50.05,50.05,0,0,0,5.3-.58c1.5-.19,2.32-.3,2.46-.34a.89.89,0,0,0,.51-.19.73.73,0,0,1,.4-.11c.28,0,.6.22,1.13.77s.67.78.67,1a.35.35,0,0,1-.19.32l-.4.14a3.26,3.26,0,0,0-.9.6c-.15.11-.56.43-1.19.88-.33.25-.8.6-1.36,1a18.4,18.4,0,0,1-1.68,1.21c1.08.92,1.38,1.35,1.38,2s-.22,1.06-.55,1.06-.35-.13-.55-.58a13,13,0,0,0-1.56-2.35,14.56,14.56,0,0,0-1.85-1.83Z" transform="translate(-488.65 -363.54)"/><path d="M1330.84,650.57c1.6,1,2.22,1.58,2.22,2.19s-.26.93-.51.93-.26-.11-.4-.45a9,9,0,0,0-1.47-2.51Zm1.48,8.22a14.64,14.64,0,0,0,2.39-2.19,18.22,18.22,0,0,0,3.09-4.75,2.74,2.74,0,0,0,.3-1c0-.37-.16-.54-.83-.85a.58.58,0,0,1,.38-.14,2.68,2.68,0,0,1,1.35.51c.43.29.61.5.61.74s0,.2-.23.4a8.12,8.12,0,0,0-.56.86,17.86,17.86,0,0,1-2.21,3.31,12.18,12.18,0,0,1-4.13,3.37Zm1.38-8.8a6.63,6.63,0,0,1,1.41.93,1.25,1.25,0,0,1,.59,1c0,.48-.27,1-.53,1s-.27-.13-.38-.5a5.42,5.42,0,0,0-1.23-2.22Z" transform="translate(-488.65 -363.54)"/><path d="M1344.45,645.91a3.29,3.29,0,0,1,1.19.27c.67.26,1,.58,1,.88,0,.11,0,.11-.09.36a11.73,11.73,0,0,0-.29,3.48,14.88,14.88,0,0,1,3.73.9c.72.34,1,.66,1,1.23s-.14.74-.38.74-.18,0-.6-.39a9.28,9.28,0,0,0-3.76-2.08c0,1,0,1.51,0,2v2.34c0,.48,0,.48,0,1.82,0,.34,0,.61,0,.85a1,1,0,0,1-.08.54.38.38,0,0,1-.29.15c-.39,0-1-.87-1-1.4a1.25,1.25,0,0,1,.08-.44c.25-.77.34-2.85.34-6.93a27.47,27.47,0,0,0-.11-2.76,1.64,1.64,0,0,0-1.22-1.42A.66.66,0,0,1,1344.45,645.91Z" transform="translate(-488.65 -363.54)"/><path d="M1361.56,657.74h4.24a13.47,13.47,0,0,1,1.06-1.31c.73.6.94.8,1.64,1.44a.35.35,0,0,1,.07.14c0,.07-.07.1-.19.1H1356c-1.47,0-1.47,0-2,.08l-.08-.62a9.29,9.29,0,0,0,2.06.16h4.42V647.49h-3.84a10.12,10.12,0,0,0-1.54.1l-.12-.61a9.15,9.15,0,0,0,1.66.15h8.4c.45-.53.6-.68,1-1.16a19,19,0,0,1,1.5,1.36.21.21,0,0,1,0,.09s-.06.07-.16.07h-5.84Z" transform="translate(-488.65 -363.54)"/><path d="M1370.16,656a13.93,13.93,0,0,1,3.12,1.53,1.61,1.61,0,0,1,.85,1.41c0,.51-.3,1.06-.57,1.06a.55.55,0,0,1-.23-.1c-.11-.09-.11-.09-.81-1.15a12.65,12.65,0,0,0-2.47-2.55Z" transform="translate(-488.65 -363.54)"/></g><g class="cls-3"><path d="M1108.77,682.15a4.9,4.9,0,0,1-1.15,3c-.39.43-.72.65-1,.65s-.46-.33-.46-1c0-.3,0-.35.52-.48.92-.27,1.46-.92,1.88-2.25Zm8-6,.64-.71c.43.3.55.4,1,.71.12.12.19.2.19.28a.22.22,0,0,1,0,.11,1.69,1.69,0,0,1-.29.21l-.24.16v1.18c0,1.07,0,1.27,0,3.24v.06c0,.19-.22.26-.83.26-.21,0-.3,0-.3-.16v-.45h-6.24a24,24,0,0,0-2.47.13l-.18-.63c.85.08,1.64.13,2.53.13h6.36v-2h-6.8c-.28,0-1.24,0-1.69.08l-.09-.56c.57,0,1.49.12,1.78.12h6.8v-1.8h-6.42c-.38,0-1,0-1.71.1l-.07-.45a10.57,10.57,0,0,1-2.14,1.6l-.16-.17a13.41,13.41,0,0,0,2.85-3.37,8.43,8.43,0,0,0,1.23-2.41l.69.16c1,.24,1.15.29,1.15.4s0,.14-.75.33c-.29.44-.32.47-.59.84h3.16l.64-.8c.49.35.61.46,1,.8.17.17.25.27.25.33a.42.42,0,0,1-.09.15,3,3,0,0,1-.79.25,12.05,12.05,0,0,1-1.74,1.87Zm-3.73,0a12.29,12.29,0,0,0,1.07-2.24h-3.44a16.48,16.48,0,0,1-1.87,2.13,13.06,13.06,0,0,0,1.65.11Zm3.35,6.76-.08,1.86V685c0,.13,0,.13.33.31s.34.25.34.41-.19.39-.58.45a32.75,32.75,0,0,1-3.81.13,7.75,7.75,0,0,1-2.12-.13c-.42-.14-.56-.34-.6-.83,0-1.32,0-1.4,0-1.75v-.78a7.13,7.13,0,0,0,0-.79c1.18.07,1.71.16,1.71.32s-.14.23-.59.34V685c0,.24,0,.3.16.35a31.89,31.89,0,0,0,4.22,0c.18-.08.42-.75.82-2.38Zm-4.45-1.25a9.2,9.2,0,0,1,2.13.85.81.81,0,0,1,.51.78c0,.47-.24.88-.53.88-.1,0-.21-.09-.35-.33a9.52,9.52,0,0,0-.67-1,5,5,0,0,0-1.19-1Zm5.26.45c1.75,1,2.87,2,2.87,2.7a1.67,1.67,0,0,1-.21.69c-.11.24-.26.37-.43.37a.52.52,0,0,1-.27-.13c-.12-.11-.12-.11-.42-.91a8.49,8.49,0,0,0-1.71-2.53Z" transform="translate(-488.65 -363.54)"/><path d="M1122.27,675.47a2.58,2.58,0,0,0,2,.93,7.58,7.58,0,0,0,1.46-.19,6.61,6.61,0,0,0,.57-2.28c0-.52-.25-.84-1-1.23a.7.7,0,0,1,.38-.11,3.24,3.24,0,0,1,1.28.37c.55.27.76.45.76.67a.76.76,0,0,1-.16.42c-.07.12-.4.78-1,2a4.19,4.19,0,0,0,1.78-.89.37.37,0,0,1,.33-.12c.63,0,1.09.2,1.09.48s-1,.81-3.54,1.41c-.14.32-.41,1-.85,1.93s-1.71,3.8-1.85,4.07c-.24.43-.39.57-.58.57s-.49-.49-.49-1.13a.7.7,0,0,1,.17-.58,6.59,6.59,0,0,0,.77-1,21.06,21.06,0,0,0,2-3.76,4.39,4.39,0,0,1-.75.06,2.59,2.59,0,0,1-1.41-.33,3.28,3.28,0,0,1-1.17-1.17Zm8.47.9a5.56,5.56,0,0,1,2.74.88c.62.4,1,.88,1,1.25a.42.42,0,0,1-.42.46.6.6,0,0,1-.37-.13,2.54,2.54,0,0,0-1.57-.33c-1.28,0-1.68.35-1.68,1.45a23.14,23.14,0,0,0,.32,2.76,7.07,7.07,0,0,1,2.28,1,1.52,1.52,0,0,1,.64,1.26c0,.32-.13.54-.32.54s-.23,0-.56-.41a5.82,5.82,0,0,0-1.94-1.41v.3a1.79,1.79,0,0,1-.45,1.36,2.91,2.91,0,0,1-2.08.69c-1.44,0-2.43-.69-2.43-1.69s1.21-1.91,3-1.91a5.48,5.48,0,0,1,1,.08c0-1.26,0-1.39,0-1.58,0-1.31.13-1.81.56-2.29a3,3,0,0,1,1.52-.75c.24-.07.28-.08.87-.21a4.45,4.45,0,0,0-2.07-1.11Zm-.86,7a4.34,4.34,0,0,0-1.38-.19c-1.36,0-2.19.46-2.19,1.21s.61,1,1.6,1c1.3,0,2-.53,2-1.54Z" transform="translate(-488.65 -363.54)"/><path d="M1143.17,678.62l.8-1c.58.48.74.62,1.28,1.13,0,.07.08.11.08.15s-.06.09-.16.09h-7.74a7.94,7.94,0,0,0-1.12.08l-.12-.57a6.48,6.48,0,0,0,1.25.12h3.64a16.65,16.65,0,0,0,1.13-3.55c1.54.4,1.68.47,1.68.61s-.22.22-.72.26a19.78,19.78,0,0,1-1.74,2.68Zm-.27-4.32c.38-.41.5-.54.86-1a13.92,13.92,0,0,1,1.19,1.08.36.36,0,0,1,.09.15c0,.07-.06.1-.19.1H1138a8,8,0,0,0-1.25.08l-.09-.58a7.88,7.88,0,0,0,1.34.13h2.08v-1a10.67,10.67,0,0,0-.06-1.18c1.5.13,1.71.17,1.71.35s-.17.24-.59.37v1.42Zm-4.18,11.86c0,.23-.16.28-.78.28-.31,0-.37,0-.37-.21.06-1.33.08-2.48.08-4.2,0-.56,0-.56-.05-2,.53.32.69.42,1.19.77h3.71c.22-.3.3-.4.53-.69l.94.71c.1.08.13.14.13.21s-.13.2-.46.33v3.2c0,.32,0,.79,0,1.43,0,.21-.19.27-.78.27-.27,0-.32,0-.32-.19v-.75h-3.83Zm-.93-11.11c1.28,1,1.91,1.69,1.91,2.17s-.47,1.07-.75,1.07c-.08,0-.15-.08-.16-.23a6.75,6.75,0,0,0-1.14-2.86Zm.93,9.9h3.83v-3.78h-3.83Zm7.78-1.2c0,.12,0,.56,0,1.18v1.57a.22.22,0,0,1-.1.21,2.46,2.46,0,0,1-.75.09c-.26,0-.3,0-.32-.2.08-2.5.13-7,.13-10.36,0-1.92,0-2.48-.08-3.59.53.29.69.39,1.2.69h2.48l.57-.78c.5.38.66.49,1.13.88.09.09.14.16.14.22s-.18.23-.58.31a26.63,26.63,0,0,1-2.45,4.16,7,7,0,0,1,1.8,1.65,3.76,3.76,0,0,1,.86,2.51,2.35,2.35,0,0,1-2.19,2.66c-.07-.66-.37-.9-1.54-1.22l0-.24.72.08c.65.06.94.08,1.1.08a.67.67,0,0,0,.53-.16,2.23,2.23,0,0,0,.26-1.38,3.73,3.73,0,0,0-.44-2,6.92,6.92,0,0,0-1.53-1.92,26.14,26.14,0,0,0,1.57-4.51h-2.55Z" transform="translate(-488.65 -363.54)"/><path d="M1152,679.46a16.3,16.3,0,0,0,3.3-3.75,12.45,12.45,0,0,0,1.65-3.41,6.23,6.23,0,0,0,.8.27c.81.29,1,.36,1,.47s-.18.21-.77.29a15.74,15.74,0,0,1-2.68,3.81,14.21,14.21,0,0,1-3.12,2.51Zm7-.55a11,11,0,0,1-1.21,4.08,7.8,7.8,0,0,1-3.16,3,11.57,11.57,0,0,1-1.85.8l-.12-.23a9,9,0,0,0,4.31-4.32,10.89,10.89,0,0,0,.83-3.3h-2a9.21,9.21,0,0,0-1.28.11l-.11-.6a7.62,7.62,0,0,0,1.37.12h6.82c.29-.27.39-.35.67-.6a6.82,6.82,0,0,1,1,.7c.13.11.17.18.17.24s-.11.21-.56.43c-.16,3.38-.45,5.48-.85,6.31-.32.67-.89.88-2.78.93a.84.84,0,0,0-.51-.82,8.52,8.52,0,0,0-1.91-.45l0-.28a35.55,35.55,0,0,0,3.57.33c.62,0,.8-.25,1-1.5a43,43,0,0,0,.35-4.92Zm2-6.54a1,1,0,0,0,.06.4,8.54,8.54,0,0,0,2.45,3.12,10,10,0,0,0,3.62,1.85V678a1.71,1.71,0,0,0-1.29,1.11,13.54,13.54,0,0,1-3-2.58,12.36,12.36,0,0,1-1.94-3.12,2.1,2.1,0,0,0-.51-.74Z" transform="translate(-488.65 -363.54)"/><path d="M1169.12,675a2.63,2.63,0,0,0,2,.75,8.81,8.81,0,0,0,1.72-.2,4.41,4.41,0,0,0,.56-1.64c0-.43-.31-.69-1.14-.89a1.23,1.23,0,0,1,.72-.18,3.52,3.52,0,0,1,1.25.27c.4.16.57.34.57.53s-.06.22-.25.46-.34.48-.47.66c-.28.46-.28.46-.4.63a5.31,5.31,0,0,0,2.31-1,.43.43,0,0,1,.3-.11c.63,0,1.08.22,1.08.53s-.21.35-.69.51a25.82,25.82,0,0,1-3.49.91c-.29.4-.48.69-.85,1.25s-.56.85-.87,1.28a4.4,4.4,0,0,1,2.07-.64,1.77,1.77,0,0,1,1.79,1.6l1.57-.78c1.59-.8,2-1.06,2-1.35s-.27-.56-.74-.75a.82.82,0,0,1,.37-.1,2.25,2.25,0,0,1,1.81,1.62c0,.29-.13.4-.58.5a26,26,0,0,0-4.29,1.64c0,.52,0,.61,0,1.3a4.45,4.45,0,0,1-.13,1.38.51.51,0,0,1-.45.3.48.48,0,0,1-.51-.48,1.37,1.37,0,0,1,0-.27c.06-.46.09-1,.11-1.71a7.91,7.91,0,0,0-1.87,1.26,2.14,2.14,0,0,0-.79,1.49c0,.86.88,1.28,2.68,1.28a11.42,11.42,0,0,0,3.21-.45,1.4,1.4,0,0,1,.31,0c.49,0,1.12.45,1.12.81,0,.2-.18.36-.5.43a17.52,17.52,0,0,1-2.86.22,8.36,8.36,0,0,1-3.25-.46,1.77,1.77,0,0,1-1.19-1.7,3,3,0,0,1,1.16-2.19,11.24,11.24,0,0,1,2-1.43,2.72,2.72,0,0,0-.22-1.26.92.92,0,0,0-.82-.48c-1.06,0-2.32.85-3.47,2.32-.31.42-.44.51-.6.51s-.43-.33-.43-.85c0-.33,0-.35.47-.72a12.82,12.82,0,0,0,3-3.44,6,6,0,0,1-1.07.1,2.57,2.57,0,0,1-2.38-1.24Z" transform="translate(-488.65 -363.54)"/><path d="M1184,676.4a22,22,0,0,0,4-1.57,11.64,11.64,0,0,0,1.72-1.06.39.39,0,0,0,.17-.28c0-.18-.24-.39-.7-.61a.41.41,0,0,1,.29-.1c.7,0,2,.8,2,1.23,0,.2-.08.26-.67.55-.39.17-1.28.54-2.32.94.88.37,1.36.74,1.36,1.06,0,0,0,.16-.07.42s0,.54-.09,1.07c2.61-.24,2.81-.27,3.17-.42a1,1,0,0,1,.4-.08c.62,0,1.6.58,1.6,1a.32.32,0,0,1-.34.32,2.64,2.64,0,0,1-.51-.06,14.07,14.07,0,0,0-2.34-.16c-.08,0-.7,0-2,.06a11.32,11.32,0,0,1-1.51,4.82,9.29,9.29,0,0,1-2.63,2.8l-.19-.19a11.08,11.08,0,0,0,3.22-7.3,16.65,16.65,0,0,0-4.21,1,1.08,1.08,0,0,1-.38.09,2.11,2.11,0,0,1-1.56-1.65c0-.06,0-.09.07-.17a1.49,1.49,0,0,0,1.36.72,18.14,18.14,0,0,0,2.08-.26c1.06-.18,1.86-.27,2.69-.38,0-.44,0-.66,0-1,0-.91-.13-1.23-.63-1.5a18.49,18.49,0,0,1-4,.94Z" transform="translate(-488.65 -363.54)"/><path d="M1197.71,677.57c1.61,1,2.23,1.58,2.23,2.19s-.26.93-.51.93-.26-.11-.4-.45a9.1,9.1,0,0,0-1.48-2.51Zm1.49,8.22a14.64,14.64,0,0,0,2.39-2.19,18.22,18.22,0,0,0,3.09-4.75,2.74,2.74,0,0,0,.3-1c0-.37-.16-.54-.83-.85a.58.58,0,0,1,.38-.14,2.68,2.68,0,0,1,1.35.51c.43.29.61.5.61.74s0,.2-.23.4a8.12,8.12,0,0,0-.56.86,17.86,17.86,0,0,1-2.21,3.31,12.18,12.18,0,0,1-4.13,3.37Zm1.38-8.8a6.63,6.63,0,0,1,1.41.93,1.25,1.25,0,0,1,.59,1c0,.48-.27,1-.53,1s-.27-.13-.38-.5a5.53,5.53,0,0,0-1.23-2.22Z" transform="translate(-488.65 -363.54)"/><path d="M1210.9,685.92a22.09,22.09,0,0,0,5.3-6.13,15.92,15.92,0,0,0,1.9-4.27c0-.16-.08-.21-.32-.21a24,24,0,0,0-3,.55,16.67,16.67,0,0,0-2.93.91,1.54,1.54,0,0,1-.59.16c-.34,0-.75-.32-1.15-.87a1.84,1.84,0,0,1-.42-1,.57.57,0,0,1,.11-.32,1.53,1.53,0,0,0,1.49.93,38.92,38.92,0,0,0,4.56-.65,5.56,5.56,0,0,0,1.86-.45c.19-.11.19-.11.32-.11a2.4,2.4,0,0,1,1.17.73c.33.34.49.58.49.77s0,.22-.22.43a3,3,0,0,0-.54.88c-2.18,4.29-4.66,7.08-7.93,8.86ZM1223,673.66a1.75,1.75,0,0,1-1.75,1.76,1.78,1.78,0,0,1-1.76-1.76,1.76,1.76,0,0,1,3.51,0Zm-3,0a1.24,1.24,0,0,0,1.23,1.23,1.22,1.22,0,1,0-1.23-1.23Z" transform="translate(-488.65 -363.54)"/><path d="M1227.91,675.79c.32-.41.43-.54.77-.94.53.46.68.61,1.18,1.07a.22.22,0,0,1,.06.14c0,.05-.06.1-.14.1h-2.16v1.44a12.81,12.81,0,0,1,1.79.94c.45.29.58.47.58.82,0,.53-.18,1-.39,1s-.19-.06-.43-.46a9.26,9.26,0,0,0-1.55-1.91c0,1,0,2.23,0,3.64,0,2.48,0,2.76,0,4.88,0,.13,0,.19-.12.22a4.32,4.32,0,0,1-.84.08c-.11,0-.16,0-.16-.14v0c0-.77,0-1.38,0-1.77.05-1.56.05-1.56.08-4.14l.1-2.85a16.24,16.24,0,0,1-3.3,5.49l-.18-.14a22.05,22.05,0,0,0,1.92-3.65,17.48,17.48,0,0,0,1.16-3.38h-1.6a4.09,4.09,0,0,0-.84.08l-.09-.56a4,4,0,0,0,.93.11h1.81v-2c0-.43,0-.8-.07-1.58.34,0,.59.08.77.09,1,.11,1.15.16,1.15.32s-.11.21-.83.42v2.75Zm7.55,6.18c0,.77,0,1.34,0,1.76,0,.62,0,.66,0,1.22a1.41,1.41,0,0,1-.22,1,2.44,2.44,0,0,1-1.59.7.84.84,0,0,0-.4-.65,4.1,4.1,0,0,0-.92-.28l-.71-.12-.75-.13v-.26c1.37.07,1.57.07,3.21.1.22,0,.27-.06.27-.27l0-6.2v-1.55a15,15,0,0,1-2.62,3.7,17.93,17.93,0,0,1-3.28,2.83l-.18-.19a18.86,18.86,0,0,0,3.84-4.36,18.11,18.11,0,0,0,1.71-3.1h-2.65a5.07,5.07,0,0,0-.9.09l-.1-.57a4.5,4.5,0,0,0,1,.11h3v-2a7.58,7.58,0,0,0-.11-1.57l.72.07c.91.08,1.25.16,1.25.32s-.18.24-.79.44l.05,2.74h.69c.35-.5.47-.66.83-1.1a17.26,17.26,0,0,1,1.46,1.23.31.31,0,0,1,.05.13c0,.06-.07.11-.16.11h-2.87Z" transform="translate(-488.65 -363.54)"/><path d="M1241.28,682.35c0,.28-.06.31-.83.34-.16,0-.24-.05-.26-.21,0-.75,0-.75,0-2,0-.85,0-2.85,0-4.37,0-.82,0-1.3,0-2.48a8.55,8.55,0,0,1,1.26.67h1.85c.27-.34.36-.45.65-.77.45.34.58.43,1,.77.09.1.13.14.13.21s0,.13-.6.45v6.64c0,.21-.16.27-.54.29h-.24c-.18,0-.26-.06-.26-.2V681h-2.16Zm0-1.71h2.16v-5.92h-2.16Zm.61,5.49a11.69,11.69,0,0,0,3.06-1.84,7.32,7.32,0,0,0,2.46-3.67,13.77,13.77,0,0,0,.48-3.42,4.66,4.66,0,0,0,0-.61,5.46,5.46,0,0,1,1.68.24.16.16,0,0,1,.08.11c0,.12,0,.15-.64.39a8.76,8.76,0,0,0,1.57,4.88,7.73,7.73,0,0,0,2.43,2.16,5.8,5.8,0,0,0,1.51.59l0,.21c-.57.13-.85.4-1.12,1.12a6.46,6.46,0,0,1-2.14-1.74,9.45,9.45,0,0,1-1.88-3.36,11.75,11.75,0,0,1-.48-2.69,10.44,10.44,0,0,1-.8,3.28,7.93,7.93,0,0,1-3.17,3.34,11.64,11.64,0,0,1-2.88,1.25Zm5.33-10.35a13.49,13.49,0,0,1-2.37,3.31l-.19-.16a14.54,14.54,0,0,0,1.9-3.8,15.11,15.11,0,0,0,.77-3.1l.82.21c.8.19,1.1.32,1.1.45s-.25.25-.78.27a19.23,19.23,0,0,1-1.06,2.45H1252a9.33,9.33,0,0,0,.76-.79c.6.5.8.64,1.37,1.16.11.09.15.16.15.2s-.15.19-1.09.31l-.47.45a17.55,17.55,0,0,1-1.65,1.52l-.14-.13a13.12,13.12,0,0,0,1.15-2.35Z" transform="translate(-488.65 -363.54)"/><path d="M1255.76,680.53a24.36,24.36,0,0,0,2.68-4.91,15.05,15.05,0,0,0,1.1-3.49c.64.16,1.5.4,1.74.49s.15.1.15.16-.16.26-.79.35a20.36,20.36,0,0,1-2.16,4.26c1.16.18,1.36.23,1.36.37s-.06.16-.52.34v4.33c0,2.13,0,2.13,0,3.94,0,.21-.16.29-.61.32a1.83,1.83,0,0,0-.27,0h0c-.18,0-.28-.08-.28-.21v0c0-1.83.07-2.8.07-4v-4.72a14.52,14.52,0,0,1-2.26,2.88Zm5.35-3.51c-.31,0-.59,0-1.28.08l-.11-.56a12.61,12.61,0,0,0,1.39.12h5.27V674a11.22,11.22,0,0,0-.1-1.72c1.42.16,1.89.28,1.89.47s-.21.25-.69.41v3.53h.46a14.87,14.87,0,0,1,.92-1.19,17.15,17.15,0,0,1,1.42,1.27.23.23,0,0,1,.08.14c0,.08-.1.14-.19.14h-2.69v4.63c0,1,0,2.61,0,3.54a1,1,0,0,1-.44.91c-.27.21-.57.3-1.69.51-.18-.78-.29-.83-2.84-1.33l0-.22,1.15.06c1.35.07,1.46.08,2.28.1.27,0,.37-.1.37-.32V677Zm.21,1.54a12.15,12.15,0,0,1,2.29,1.74c.57.57.72.79.72,1.14s-.4,1.09-.64,1.09-.29-.13-.4-.43a10.35,10.35,0,0,0-2.12-3.4Z" transform="translate(-488.65 -363.54)"/><path d="M1279.33,684.74h4.25a13.38,13.38,0,0,1,1.05-1.31c.74.6.95.8,1.65,1.44a.48.48,0,0,1,.06.14c0,.07-.06.1-.19.1h-12.37c-1.47,0-1.47,0-2,.08l-.08-.62a9.44,9.44,0,0,0,2.07.16h4.42V674.49h-3.84a10,10,0,0,0-1.54.1l-.13-.61a9.26,9.26,0,0,0,1.67.15h8.4c.45-.53.59-.68,1-1.16a17.49,17.49,0,0,1,1.51,1.36.21.21,0,0,1,0,.09s-.07.07-.16.07h-5.85Z" transform="translate(-488.65 -363.54)"/><path d="M1288.26,676a.89.89,0,0,0,.72.27c.45,0,.85-.08,4.45-.94.57-.15,1.49-.36,2.59-.56a18.62,18.62,0,0,0,2.16-.53,2,2,0,0,1,.56-.13,2.07,2.07,0,0,1,.87.34c.32.19.46.4.46.6s-.19.41-.49.41a1.9,1.9,0,0,1-.31,0,2.32,2.32,0,0,0-.45,0,5.68,5.68,0,0,0-5.38,5.34,3.25,3.25,0,0,0,2.13,3.12,4.84,4.84,0,0,0,1.62.39.81.81,0,0,1,.67.25,1.29,1.29,0,0,1,.48.77c0,.26-.24.45-.57.45a6.63,6.63,0,0,1-3.27-1.15,4.28,4.28,0,0,1-1.86-3.59,6,6,0,0,1,1.75-3.9,8.08,8.08,0,0,1,2.61-1.84,27.34,27.34,0,0,0-7.16,2.14,1.08,1.08,0,0,1-.64.23,1.77,1.77,0,0,1-1.23-1,2.22,2.22,0,0,1-.42-1.07.73.73,0,0,1,.18-.43A1.66,1.66,0,0,0,1288.26,676Zm9.51,1.44a8.53,8.53,0,0,1,1.42,1c.58.53.8.9.8,1.28s-.22.67-.49.67-.21,0-.71-1a7.71,7.71,0,0,0-1.23-1.69Zm1.65-.93a8.35,8.35,0,0,1,1.53.91c.61.47.82.8.82,1.24s-.16.65-.4.65-.24-.08-.37-.3a7.6,7.6,0,0,0-1.76-2.27Z" transform="translate(-488.65 -363.54)"/><path d="M1302.05,680.19a19.87,19.87,0,0,0,2.32-4.43,14.47,14.47,0,0,0,1-3.51,12.34,12.34,0,0,1,1.61.52c.15.08.21.14.21.2s-.24.26-.66.31a26.83,26.83,0,0,1-2,3.92c1,.18,1.24.24,1.24.4s-.12.18-.51.34v3.42c0,3.54,0,3.72,0,5,0,.17-.11.21-.58.24h-.35c-.18,0-.26-.06-.26-.22v0c0-2,.08-3.76.08-5v-3.58l-.19.28a11,11,0,0,1-1.79,2.34Zm9.89-.36h2.74c.4-.52.53-.66.93-1.16.64.55.83.72,1.44,1.31a.24.24,0,0,1,0,.12c0,.06-.07.09-.2.09h-4.83a7.75,7.75,0,0,0,1.52,1.89,8.14,8.14,0,0,0,3.81,2v.23a1.49,1.49,0,0,0-1.17,1,10.16,10.16,0,0,1-2.74-2.39,9.45,9.45,0,0,1-1.55-2.49v2c0,.7,0,1.65.07,3.81v.06c0,.16-.18.24-.55.24l-.19,0h-.06c-.21,0-.31-.06-.31-.19v0c0-1.32,0-1.32,0-1.89,0-1.06,0-1.7,0-1.89v-1.84a14.57,14.57,0,0,1-2.46,2.89,12.3,12.3,0,0,1-2.79,2l-.16-.18a18.3,18.3,0,0,0,3.54-3.57,11.08,11.08,0,0,0,1.11-1.73h-2.53a7.27,7.27,0,0,0-1.52.11l-.16-.68a6.19,6.19,0,0,0,1.66.21H1311v-2.28h-2v.53c0,.21-.24.29-.85.29-.18,0-.24,0-.24-.13v0c0-.67.05-3.14.05-4.05,0-.49,0-.85-.07-1.5a8.13,8.13,0,0,1,1.27.7H1314l.66-.69.86.61c.13.1.19.16.19.23s-.14.24-.52.46c0,2.1,0,2.37.06,3.94v.05a.19.19,0,0,1-.1.17,4,4,0,0,1-.8.11c-.13,0-.21,0-.22-.19v-.48h-2.18Zm-3-2.65h5.2v-3.47h-5.2Z" transform="translate(-488.65 -363.54)"/><path d="M1318.32,675.17a5.26,5.26,0,0,0,1.14.16h2.37a10.83,10.83,0,0,1,.75-.88,11,11,0,0,1,1.26,1c.07.07.08.1.08.13s-.06.1-.19.1h-4.27a6,6,0,0,0-1,.08Zm.5,2.17a3.36,3.36,0,0,0,1.1.15h1.52c.32-.35.44-.47.76-.8.51.41.65.54,1.13,1a.24.24,0,0,1,.05.12.11.11,0,0,1-.11.08h-3.35a6.93,6.93,0,0,0-1,.06Zm0,2.16a5.56,5.56,0,0,0,1.1.13h1.49l.79-.88c.52.45.67.58,1.13,1,.05.07.07.1.07.13s-.05.08-.13.08h-3.35a9.44,9.44,0,0,0-1,.06Zm0-6.45a4.31,4.31,0,0,0,1,.13h1.77c.28-.32.52-.62.76-.91.48.43.62.58,1.09,1a.26.26,0,0,1,.09.14c0,.07-.08.1-.22.1h-3.35a8,8,0,0,0-1,.08Zm1.19,13.37c0,.24-.14.29-.79.29-.2,0-.28-.07-.3-.24.06-2.08.06-2.08.06-2.77a25.42,25.42,0,0,0-.08-2.63,9.88,9.88,0,0,1,1.21.76h1.71a8.36,8.36,0,0,1,.61-.63c.36.31.48.4.81.67.1.12.13.16.13.21s-.06.16-.5.43c0,1.8,0,2.57,0,3.48,0,.22-.13.29-.49.29h-.29c-.15,0-.21,0-.23-.16v-.54H1320Zm0-1.2h1.9v-3H1320Zm13.44.13c-.56.17-.78.41-1,1.13a11.43,11.43,0,0,1-4.08-1.45,14.26,14.26,0,0,1-5.3,1.71l-.07-.26a14.72,14.72,0,0,0,4.66-1.9,6.41,6.41,0,0,1-1.93-2.05h-.37a4.88,4.88,0,0,0-1.25.08L1324,682a5.36,5.36,0,0,0,1.36.14H1330a6,6,0,0,0,.51-.62l1.11.72c.16.13.22.19.22.24s-.14.19-.74.32a13.27,13.27,0,0,1-2.08,1.74,13,13,0,0,0,4.4.6Zm-3.23-7.67c.29-.35.39-.46.67-.78.52.4.66.52,1.16.94l.06.11c0,.07-.06.1-.13.1h-3.17v1.1h1.36c.28-.33.37-.43.68-.75.51.38.65.5,1.16.91a.41.41,0,0,1,.08.13s0,.08-.11.08h-3.17v1.19h2.08c.34-.37.44-.49.77-.82.55.4.71.51,1.23.91a.38.38,0,0,1,.13.18s0,.09-.13.09h-7.2v.32c0,.21-.16.28-.64.28-.22,0-.3,0-.32-.18,0-.67,0-.67,0-2,0-.76,0-.76,0-1.33v-1a12.16,12.16,0,0,1-1.56,1.69l-.2-.19a11.75,11.75,0,0,0,1.56-2.56,8.45,8.45,0,0,0,.51-1.44c1.31.48,1.49.56,1.49.69s-.19.19-.69.19c-.14.27-.21.35-.32.55l.11.12h2.08a5.21,5.21,0,0,0,.66-1.45c1.1.38,1.33.49,1.33.61s-.08.14-.71.17a8.59,8.59,0,0,1-.88.67h2.56l.72-.89a15.2,15.2,0,0,1,1.22,1,.17.17,0,0,1,.06.13s-.08.09-.14.09h-3.78v1.09Zm-1.22-4.11c0-.16,0-.66,0-.69a4,4,0,0,0,0-.74c1.49.16,1.68.21,1.68.35s-.14.21-.65.31c0,.54,0,.54,0,.77h1c.32-.37.44-.5.76-.85.56.41.73.56,1.28,1a.2.2,0,0,1,.06.11c0,.06-.06.09-.16.09h-3v.72c0,.16-.21.23-.64.23s-.37,0-.38-.19,0-.48,0-.76h-2.14v.72c0,.21-.13.24-.7.24-.2,0-.28-.06-.28-.2a5.17,5.17,0,0,0,0-.76h-1c-.3,0-.69,0-1.07.08l-.13-.57a8.84,8.84,0,0,0,1.2.13h1v-.42a8.62,8.62,0,0,0,0-1c1.41.16,1.65.21,1.65.35s-.22.23-.67.35a4.14,4.14,0,0,0,0,.45,2.09,2.09,0,0,0,0,.31Zm-1.1,3h-2.21v1.09h2.21Zm-2.21,1.46v1.1h2.21v-1.1Zm0,1.47v1.19h2.21v-1.19Zm.38,3a5.41,5.41,0,0,0,2.09,1.66,9.25,9.25,0,0,0,1.79-1.66Z" transform="translate(-488.65 -363.54)"/><path d="M1345.42,682.66a7.38,7.38,0,0,1-5.62,3.31,2.92,2.92,0,0,1-2.66-1.36,5.45,5.45,0,0,1-.45-2.7c0-.88,0-2.41.13-3.86.1-1.73.11-2.18.11-2.76,0-1.37-.16-1.64-1.3-2.12a.66.66,0,0,1,.45-.16,4,4,0,0,1,1.44.36c.61.29.93.61.93,1a1.53,1.53,0,0,1-.14.57,49,49,0,0,0-.83,7.69,2.28,2.28,0,0,0,.64,1.92,2.35,2.35,0,0,0,1.42.43,8.32,8.32,0,0,0,3.65-1,9.78,9.78,0,0,0,2-1.43Z" transform="translate(-488.65 -363.54)"/><path d="M1348.34,675.28a3.3,3.3,0,0,0,2.58.86,14,14,0,0,0,2.29-.19c-.07-2.45-.18-2.67-1.4-2.85.23-.22.36-.25.8-.25a4.78,4.78,0,0,1,1.35.2c.38.13.54.29.54.53s0,.1-.21.55a5.06,5.06,0,0,0-.28,1.69,8,8,0,0,0,3-.94.56.56,0,0,1,.19-.07,2,2,0,0,1,.84.28.49.49,0,0,1,.27.38c0,.23-.26.35-1.25.59a26,26,0,0,1-3.06.56c0,.42,0,.66,0,1s0,.75,0,1.45a12.63,12.63,0,0,0,1.83-.43,2.5,2.5,0,0,0,.8-.4.36.36,0,0,1,.24-.06,1.89,1.89,0,0,1,.82.24.33.33,0,0,1,.19.3c0,.29-.23.42-1.23.69a16.86,16.86,0,0,1-2.61.46c0,.63,0,.89,0,1.45s0,.84.1,1.24a8.41,8.41,0,0,1,3.52,1.38,1.39,1.39,0,0,1,.46,1.06c0,.33-.14.56-.35.56s-.22-.05-.64-.45a8.8,8.8,0,0,0-1.34-1,6,6,0,0,0-1.6-.68c0,.36,0,.52,0,.71a1.59,1.59,0,0,1-.55,1.34,3.58,3.58,0,0,1-2.14.6c-1.6,0-2.71-.71-2.71-1.72s1.49-1.93,3.62-1.93h.8c0-.77,0-.88,0-1.1V680c-.64,0-.94,0-1.18,0a4.38,4.38,0,0,1-2.13-.35,1.4,1.4,0,0,1-.72-1.22c0-.11,0-.27,0-.44h.24c0,.5.1.72.34.91a3.28,3.28,0,0,0,1.87.36,13.44,13.44,0,0,0,1.55-.12v-1.12l0-1.16v-.2c-.88.08-1.52.12-2.06.12a3.06,3.06,0,0,1-3-1.38Zm3.55,7.87a5,5,0,0,0-1.74.31q-.87.33-.87,1c0,.58.66.91,1.75.91a2.63,2.63,0,0,0,1.82-.58,1.22,1.22,0,0,0,.36-.83c0-.11,0-.48,0-.61v0A9.64,9.64,0,0,0,1351.89,683.15Z" transform="translate(-488.65 -363.54)"/><path d="M1371.67,682.66a7.36,7.36,0,0,1-5.62,3.31,2.9,2.9,0,0,1-2.65-1.36,5.45,5.45,0,0,1-.45-2.7c0-.88,0-2.41.13-3.86.09-1.73.11-2.18.11-2.76,0-1.37-.16-1.64-1.3-2.12a.64.64,0,0,1,.45-.16,4,4,0,0,1,1.44.36c.61.29.93.61.93,1a1.65,1.65,0,0,1-.15.57,50.23,50.23,0,0,0-.83,7.69,2.28,2.28,0,0,0,.64,1.92,2.38,2.38,0,0,0,1.43.43,8.32,8.32,0,0,0,3.65-1,10,10,0,0,0,2-1.43Z" transform="translate(-488.65 -363.54)"/><path d="M1374,676.16a2.21,2.21,0,0,0,1.76.88,7.81,7.81,0,0,0,2-.3,11.55,11.55,0,0,0,.54-2.71c0-.5-.24-.7-1.13-1a.82.82,0,0,1,.49-.14,4.1,4.1,0,0,1,1.38.3c.48.18.72.4.72.64s0,.11-.19.39a12.65,12.65,0,0,0-1,2.29,5.57,5.57,0,0,0,1.86-1c.26-.24.32-.27.45-.27a3.2,3.2,0,0,1,.85.17c.17.07.25.16.25.29s-.25.48-.92.79a18.77,18.77,0,0,1-2.8.92c-.2.55-.2.55-.68,2l-1.2,3.57c-.64,1.9-.85,2.3-1.18,2.3-.16,0-.27-.09-.37-.32a2.39,2.39,0,0,1-.22-.93c0-.25,0-.3.35-.78a23.08,23.08,0,0,0,2.51-5.73,8.39,8.39,0,0,1-1.54.16,2.35,2.35,0,0,1-2.19-1.44Zm6.39,5.52c0,.24,0,.43,0,.5a2,2,0,0,0,1.22,1.93,4.39,4.39,0,0,0,1.71.31,3.87,3.87,0,0,0,1.54-.24.71.71,0,0,1,.27-.07,1.81,1.81,0,0,1,.82.39c.19.16.29.3.29.45,0,.35-.63.52-1.89.52a7.06,7.06,0,0,1-3-.51,2.42,2.42,0,0,1-1.36-2.32,3.36,3.36,0,0,1,.14-1Zm.43-3a7.36,7.36,0,0,1,3.72-1.07,1.89,1.89,0,0,1,1,.29.52.52,0,0,1,.26.44c0,.26-.14.36-.61.37a2.3,2.3,0,0,0-1.23.32,7.72,7.72,0,0,0-.88.55,6.16,6.16,0,0,1-.56.33l-.1-.14.77-.72c.14-.13.29-.26.79-.75a8.25,8.25,0,0,0-3.06.59Z" transform="translate(-488.65 -363.54)"/><path d="M1392.36,685a2.07,2.07,0,1,1-2.07-2.06A2.05,2.05,0,0,1,1392.36,685Zm-3.62,0a1.57,1.57,0,0,0,1.55,1.56,1.56,1.56,0,1,0-1.55-1.56Z" transform="translate(-488.65 -363.54)"/></g></g></g><g id="合体_8" data-name="合体 8"><path class="cls-4" d="M984.46,541.67V526h-86V499h86V483.41l50.5,29.13Z" transform="translate(-488.65 -363.54)"/><path class="cls-4" d="M985,540.81l49-28.27-49-28.27v15.27H899v26h86v15.27m-1,1.73v-16H898v-28h86v-16l52,30Z" transform="translate(-488.65 -363.54)"/></g></g></svg>