<svg id="レイヤー_1" data-name="レイヤー 1" xmlns="http://www.w3.org/2000/svg" viewBox="0 0 931 730.6"><defs><style>.cls-1{fill:#a3a3a3;}.cls-2{fill:none;stroke:#707070;}.cls-3{fill:#71976b;}.cls-4{isolation:isolate;}</style></defs><g id="グループ_36" data-name="グループ 36"><g id="長方形_144" data-name="長方形 144"><rect class="cls-1" width="373" height="266"/><rect class="cls-2" x="0.5" y="0.5" width="372" height="265"/></g><g id="合体_1" data-name="合体 1"><path class="cls-3" d="M971.29,334.29V318.94h-53V292h53V276.6l30.8,28.85Z" transform="translate(-494.82 -172.45)"/><path class="cls-3" d="M971.79,333.14l29.57-27.69-29.57-27.7v14.7h-53v26h53v14.7m-1,2.3v-16h-53v-28h53v-16l32,30Z" transform="translate(-494.82 -172.45)"/></g><g id="長方形_145" data-name="長方形 145"><rect class="cls-1" x="558" width="373" height="266"/><rect class="cls-2" x="558.5" y="0.5" width="372" height="265"/></g><g id="合体_2" data-name="合体 2"><path class="cls-3" d="M1192,548.7h26.31V506.94h48V548.7h26.31l-50.31,24.19Z" transform="translate(-494.82 -172.45)"/><path class="cls-3" d="M1194.21,549.2l48.11,23.14,48.11-23.14h-24.61V507.44h-47V549.2h-24.61m-4.39-1h28V506.44h49V548.2h28l-52.5,25.25Z" transform="translate(-494.82 -172.45)"/></g><g id="長方形_147" data-name="長方形 147"><rect class="cls-1" x="558" y="434.5" width="373" height="266"/><rect class="cls-2" x="558.5" y="435" width="372" height="265"/></g><g id="長方形_148" data-name="長方形 148"><rect class="cls-1" y="434.5" width="373" height="266"/><rect class="cls-2" x="0.5" y="435" width="372" height="265"/></g><g id="合体_3" data-name="合体 3"><path class="cls-3" d="M949.35,711.1v15.35h53v27h-53v15.35L918.55,740Z" transform="translate(-494.82 -172.45)"/><path class="cls-3" d="M948.85,712.25,919.28,740l29.57,27.69v-14.7h53V727h-53v-14.7m1-2.3v16h53v28h-53v16l-32-30Z" transform="translate(-494.82 -172.45)"/></g><g id="伐採木を粉砕" class="cls-4"><g class="cls-4"><path d="M624.06,456.38c.82.16.9.18.9.34s-.14.22-.58.34v6.4c0,1.22,0,1.53,0,4,0,.14-.06.22-.14.26a5.15,5.15,0,0,1-1.08.16c-.2,0-.28-.08-.3-.26.08-3.28.12-5.61.12-7.25v-3.14a15.11,15.11,0,0,1-2.56,2.94l-.24-.2a14.86,14.86,0,0,0,1.88-2.84,33.05,33.05,0,0,0,2.34-5.64,6.22,6.22,0,0,0,.38-1.76c1.86.44,2.32.6,2.32.8s-.12.22-.84.4a29.46,29.46,0,0,1-2.64,5.34Zm11.7-1.2,1.06-1.52c.84.64.84.64,2,1.52a.45.45,0,0,1,.08.18c0,.06-.08.1-.19.12l-7.19.46a14.64,14.64,0,0,0,1.12,5.16,19.84,19.84,0,0,0,2.58-4.1c1.32.56,1.86.86,1.86,1.06s-.16.18-.34.18h-.12l-.34,0a21.17,21.17,0,0,1-3,4.08,9.23,9.23,0,0,0,3.44,3.41,32.1,32.1,0,0,0,1.8-3.49l.24.08-.86,3.35a1.65,1.65,0,0,0,0,.31c0,.12.1.27.38.61s.3.4.3.58a.5.5,0,0,1-.56.5,6.48,6.48,0,0,1-2.9-1.38,11.8,11.8,0,0,1-2.76-3,15.87,15.87,0,0,1-7,3.63l-.12-.28a18.84,18.84,0,0,0,6.54-4.43,16,16,0,0,1-1.48-6.14l-2.56.16a14.83,14.83,0,0,0-2,.28l-.16-.82a9.94,9.94,0,0,0,1.46.1,6.22,6.22,0,0,0,.64,0l2.56-.18c-.08-1.18-.12-2.06-.12-3.08,0-1.58,0-1.72-.08-2.48,1.64.2,2.18.34,2.18.56a.2.2,0,0,1-.1.16,4.67,4.67,0,0,1-.6.28c0,1,0,1.72,0,2,0,.86,0,1.44.06,2.48Zm-3.14-4.26a9.9,9.9,0,0,1,2.34,1c.64.4.84.68.84,1.2,0,.7-.28,1.3-.62,1.3-.16,0-.22-.08-.38-.38a12.65,12.65,0,0,0-.74-1.2,6.31,6.31,0,0,0-1.58-1.7Z" transform="translate(-494.82 -172.45)"/><path d="M644.9,454.3c.36-.54.46-.7.82-1.2a16,16,0,0,1,1.3,1.3.42.42,0,0,1,.1.22c0,.1-.08.14-.26.14H644.5v4a16.31,16.31,0,0,0,2.56-1l.14.3c-1.16.76-1.6,1-2.7,1.64V463c0,1.93,0,1.93,0,3.35,0,.66-.06.82-.3,1a3.62,3.62,0,0,1-1.46.62c-.3-.78-.62-1-2.08-1.28v-.26c.52,0,.52,0,1.22,0H643c.18,0,.24-.07.24-.29v-5.89c-1,.54-1.06.56-1.56.8-.06.62-.12.82-.32.82s-.4-.54-.84-2a26.05,26.05,0,0,0,2.72-.76v-4.46h-1.46a4.57,4.57,0,0,0-1.22.1l-.12-.72a9.15,9.15,0,0,0,1.38.16h1.42v-2a23.87,23.87,0,0,0-.08-2.46c2,.24,2.26.32,2.26.52s-.22.3-.9.46v3.52Zm11.28,5.44a10.86,10.86,0,0,1,1.1-1.36c.78.64,1,.84,1.76,1.52a.33.33,0,0,1,.08.18c0,.08-.06.12-.22.12H653a8.46,8.46,0,0,0,2.12,2.5,10.94,10.94,0,0,0,4.19,2.09V465c-.75.25-.93.41-1.45,1.31a10.78,10.78,0,0,1-3.12-2.71,15.19,15.19,0,0,1-2.14-3.28v2.74l0,4.53c0,.3-.26.38-1.06.38-.22,0-.28-.06-.28-.26,0-1.14.06-3.49.06-4.65V461a7.66,7.66,0,0,1-1.42,2,15.37,15.37,0,0,1-4.68,3.53l-.1-.28a14,14,0,0,0,3.54-3.35,17.33,17.33,0,0,0,1.84-2.7h-3.22a8.64,8.64,0,0,0-1.36.14l-.12-.74a9.18,9.18,0,0,0,1.54.14h4v-.84a12.54,12.54,0,0,0-.1-1.5c1.66.16,2.06.26,2.06.46s-.18.26-.72.4v1.48Zm-9.8-7.36a50.45,50.45,0,0,0,5.32-1,23,23,0,0,0,4.48-1.58c1.4.92,1.76,1.2,1.76,1.36s-.16.22-.36.22a5.57,5.57,0,0,1-.8-.14,48.17,48.17,0,0,1-5.84,1.1,37.13,37.13,0,0,1-4.5.36Zm.88.84c1.44,1.26,2.2,2.3,2.2,3,0,.5-.52,1.26-.88,1.26-.12,0-.22-.14-.26-.44a10,10,0,0,0-1.24-3.68Zm3.72-.46a17,17,0,0,1,1.46,1.58,1.92,1.92,0,0,1,.58,1.2c0,.54-.54,1.3-.9,1.3-.2,0-.26-.14-.36-.8a9.55,9.55,0,0,0-1-3.14Zm3,4.88a20.88,20.88,0,0,0,1.8-3.22,11.31,11.31,0,0,0,.88-1.94c.38.16.7.28.9.34,1,.38,1.06.42,1.06.56s-.2.28-.86.36a22.92,22.92,0,0,1-3.56,4.08Z" transform="translate(-494.82 -172.45)"/><path d="M675.68,454.46a18.29,18.29,0,0,1,1.24-1.5c.84.66,1.08.88,1.9,1.6a.37.37,0,0,1,.12.2.2.2,0,0,1-.2.16h-8.18A12.27,12.27,0,0,0,673,459a17,17,0,0,0,4.16,3.52,13.31,13.31,0,0,0,2.22,1v.24c-.92.3-1.12.49-1.56,1.45a18.61,18.61,0,0,1-7.44-9.55l.08,6.56c0,3.35,0,3.35.1,5.37-.06.34-.18.38-1.26.38-.26,0-.32-.06-.32-.28,0-1.15.06-1.42.06-2.48l0-.8c0-.81,0-1.51,0-2.11l.1-5.86a19.84,19.84,0,0,1-4.14,5.8,18,18,0,0,1-4.22,3.3l-.18-.24a25,25,0,0,0,5.28-5.72,21.4,21.4,0,0,0,2.52-4.66H663a6,6,0,0,0-1.52.16l-.14-.84a8.88,8.88,0,0,0,1.62.22h6.18v-2.68a17.35,17.35,0,0,0-.14-2c2,.24,2.34.32,2.34.56s-.26.34-.92.5v3.62Z" transform="translate(-494.82 -172.45)"/><path d="M681.86,453.26a3.29,3.29,0,0,0,2.5.94,10.6,10.6,0,0,0,2.14-.26,5.4,5.4,0,0,0,.7-2c0-.54-.38-.86-1.42-1.12a1.59,1.59,0,0,1,.9-.22,4.23,4.23,0,0,1,1.56.34c.5.2.72.42.72.66s-.08.28-.32.58-.42.6-.58.82c-.36.58-.36.58-.5.78a6.58,6.58,0,0,0,2.88-1.28.56.56,0,0,1,.38-.14c.78,0,1.34.28,1.34.66s-.26.44-.86.64a32.07,32.07,0,0,1-4.36,1.14c-.36.5-.6.86-1.06,1.56s-.7,1.06-1.08,1.6a5.41,5.41,0,0,1,2.58-.8,2.22,2.22,0,0,1,2.24,2l2-1c2-1,2.46-1.32,2.46-1.68s-.34-.7-.92-.94a1,1,0,0,1,.46-.12,2.81,2.81,0,0,1,2.26,2c0,.36-.15.5-.72.62a32.48,32.48,0,0,0-5.36,2.06c0,.64,0,.76,0,1.62a5.55,5.55,0,0,1-.16,1.72.63.63,0,0,1-.56.39.61.61,0,0,1-.64-.61,2.18,2.18,0,0,1,0-.34,19.1,19.1,0,0,0,.14-2.14,10.16,10.16,0,0,0-2.34,1.58,2.68,2.68,0,0,0-1,1.86c0,1.08,1.1,1.61,3.34,1.61a14.46,14.46,0,0,0,4-.57,1.42,1.42,0,0,1,.38-.05c.62,0,1.4.56,1.4,1,0,.26-.22.45-.62.54a22.23,22.23,0,0,1-3.58.28,10.34,10.34,0,0,1-4.06-.58,2.21,2.21,0,0,1-1.48-2.12,3.8,3.8,0,0,1,1.44-2.75,14.45,14.45,0,0,1,2.48-1.78,3.37,3.37,0,0,0-.28-1.58,1.14,1.14,0,0,0-1-.6c-1.32,0-2.9,1.06-4.34,2.9-.38.52-.54.64-.74.64s-.54-.42-.54-1.06c0-.42,0-.44.58-.9a16.11,16.11,0,0,0,3.72-4.3,7.58,7.58,0,0,1-1.34.12,3.23,3.23,0,0,1-3-1.54Z" transform="translate(-494.82 -172.45)"/><path d="M702.7,458.78a15.18,15.18,0,0,1,1.82,1c.78.52,1,.72,1,1.2,0,.64-.24,1.2-.52,1.2s-.24-.12-.36-.42a6.49,6.49,0,0,0-1.9-2.58v4c0,2.21,0,3.72,0,4.56,0,.26-.16.32-.9.32-.4,0-.44,0-.44-.26.08-1.8.08-1.8.16-6.19l.06-2.46a14.73,14.73,0,0,1-1.5,3.44,16.35,16.35,0,0,1-1.82,2.49l-.26-.16a26.49,26.49,0,0,0,3.16-7.61h-1.64a3.51,3.51,0,0,0-1.26.14l-.12-.76a3.84,3.84,0,0,0,1.38.16h1.92V452.4c0-1.18,0-1.7-.08-2.6,1.86.18,2,.22,2,.42s-.14.24-.74.48l0,6.14h.74l.78-1.18a12.18,12.18,0,0,1,1.32,1.38.24.24,0,0,1,.08.16c0,.06-.08.1-.18.1H702.7Zm-4-7.52c1.2,1.34,1.84,2.46,1.84,3.16s-.42,1.5-.76,1.5c-.18,0-.24-.14-.32-.82a11.59,11.59,0,0,0-1-3.72Zm4.42,4.38a17.54,17.54,0,0,0,1.28-4.42c1.66.6,1.86.68,1.86.84s-.2.22-.7.3a27.48,27.48,0,0,1-2.2,3.4Zm7.08,2.44a19.34,19.34,0,0,1-.72,4.1,7.63,7.63,0,0,1-3.52,4.55,13.21,13.21,0,0,1-2.2,1.08l-.14-.24a11.19,11.19,0,0,0,3.08-2.57,10.08,10.08,0,0,0,2-5.44c.06-.42.08-.76.14-1.48h-.54a5.58,5.58,0,0,0-1.36.14l-.14-.74a6.83,6.83,0,0,0,1.5.14h4.82c.3-.28.38-.38.68-.64.46.38.6.5,1.06.94.1.1.14.16.14.24s-.12.22-.52.4a39.07,39.07,0,0,1-.5,5.7c-.32,2-.48,2.51-1,2.91s-.66.36-1.92.44a.89.89,0,0,0-.66-.9,7.92,7.92,0,0,0-1.84-.52l0-.31c1,.11,2.58.24,3,.24.58,0,.7-.12.9-1.05a38.61,38.61,0,0,0,.66-7Zm-5.44.82a18.36,18.36,0,0,0,2.94-6,13.39,13.39,0,0,0,.58-2.54c1.84.52,2.06.6,2.06.76s-.24.28-.8.34a17.24,17.24,0,0,1-1.3,3.36,13.08,13.08,0,0,1-3.28,4.24Zm7.46-8.6a2.1,2.1,0,0,0,0,.26,6.67,6.67,0,0,0,1.26,3,8.46,8.46,0,0,0,3.75,3.18l0,.28c-.63.26-.81.48-1.19,1.36a11.19,11.19,0,0,1-2.82-3.5,17.26,17.26,0,0,1-1.26-3.12c-.14-.48-.14-.48-.2-.64a1.22,1.22,0,0,0-.34-.6Z" transform="translate(-494.82 -172.45)"/><path d="M722.4,451.94a24.28,24.28,0,0,1-1.46,5.2,1.73,1.73,0,0,0,.2.14h2.18c.3-.38.4-.5.72-.86.52.36.68.48,1.16.86.14.1.2.18.2.28s-.16.28-.7.56c0,5,0,5,0,8.05,0,.2-.14.26-.58.28h-.48c-.2,0-.24,0-.24-.21v-1.07h-2.3v2.07c0,.12,0,.14-.14.18s-.62.08-.8.08-.38-.06-.38-.2v-.06c0-1.29,0-1.29.06-4.67V459.4a15.75,15.75,0,0,1-1.62,2.24l-.26-.18a21.55,21.55,0,0,0,2.4-5.8,19.68,19.68,0,0,0,.7-3.72h-1.22a6.51,6.51,0,0,0-1.4.08l-.14-.72a4.56,4.56,0,0,0,1.54.18h3.32c.48-.58.64-.74,1.12-1.28.72.58,1,.78,1.7,1.42.08.08.14.14.14.18s-.12.14-.32.14Zm-1.26,12.78h2.3v-7h-2.3Zm12.56-3.08c.48-.6.62-.78,1.1-1.36.78.62,1,.84,1.74,1.52.06.06.13.14.13.18s-.09.12-.21.12H731c0,1.8,0,1.8,0,5.43,0,.18-.1.22-.32.26a4,4,0,0,1-.7.06c-.34,0-.4,0-.44-.22.06-2.06.08-2.45.08-5.53h-2.8a9.74,9.74,0,0,0-1.6.12l-.14-.76a8.15,8.15,0,0,0,1.74.18h2.8v-1.5a12.81,12.81,0,0,0-.08-1.64,9,9,0,0,1,2,.36c.06,0,.14.1.14.16s-.24.28-.74.4v2.22Zm-1.62-8.82c.34-.4.44-.52.78-.88a11.24,11.24,0,0,1,1.06.88c.14.16.2.22.2.3s-.2.24-.72.5v3.86c0,.38,0,.4.76.4s.7,0,.84-.42c.06-.18.22-.72.28-1,0-.1.1-.4.22-.86,0-.18.15-.62.22-1H736l-.12,2.34v.32a.46.46,0,0,0,.31.5c.35.14.46.24.46.46a.57.57,0,0,1-.29.46c-.21.16-.7.22-1.86.22a7,7,0,0,1-1.84-.1.91.91,0,0,1-.46-.88v-4.68H730a8.47,8.47,0,0,1-.82,3.08,6.69,6.69,0,0,1-2.22,2.7c-.32.22-.62.4-1.24.78l-.2-.26a7.34,7.34,0,0,0,2.7-3.56,9.29,9.29,0,0,0,.58-2.74h-1.34a6.08,6.08,0,0,0-1.46.1l-.2-.72a5.46,5.46,0,0,0,1.66.16h1.38c0-.68.06-1.06.06-1.72a9,9,0,0,0-.08-1.24c.82.12,1.68.28,1.88.34a1.43,1.43,0,0,1,.26.18v0s0,.06-.1.14,0,.08-.68.3c-.1,1.4-.1,1.4-.14,2Z" transform="translate(-494.82 -172.45)"/></g></g><g id="施工場所まで運搬" class="cls-4"><g class="cls-4"><path d="M1165.62,453.62c.28-.4.56-.8.84-1.18.64.52.84.7,1.46,1.26a.47.47,0,0,1,.14.26c0,.08-.08.12-.22.12h-3.6c0,1.46,0,1.56-.12,2.84H1166l.66-.76a12.13,12.13,0,0,1,1.12.94c.1.14.14.2.14.28s0,.12-.52.44a37.42,37.42,0,0,1-1,7.91c-.34,1.2-.84,1.56-2.36,1.66-.1-.9-.18-1-1.66-1.4l0-.24c1.22.13,1.78.17,2.1.17.48,0,.54-.13.9-1.84a39.87,39.87,0,0,0,.64-6.7h-2a23.35,23.35,0,0,1-.58,4.16,13.1,13.1,0,0,1-3,6.13l-.32-.22A12.36,12.36,0,0,0,1162,463a35.63,35.63,0,0,0,.88-9h-.8l-.86.06c-.08,0-.22,0-.42,0l-.16-.72a11,11,0,0,0,1.44.16h1.24v-2.28c0-.42,0-.76-.08-1.46a12.16,12.16,0,0,1,2.1.38.4.4,0,0,1,.16.16v0l-.1.16s-.12.08-.26.12l-.42.12v2.78Zm10.18-.4c.48-.66.64-.84,1.18-1.48a23.76,23.76,0,0,1,1.84,1.66.25.25,0,0,1,.06.16c0,.08-.08.12-.17.12h-9a11.4,11.4,0,0,1-2.22,2.74l-.24-.14a23.36,23.36,0,0,0,2.62-6.56c.4.1.74.2.94.24,1,.24,1.22.36,1.22.54s-.16.24-.86.36a21.51,21.51,0,0,1-1.2,2.36Zm.24,4.18a11.48,11.48,0,0,1,.72-1.1,12.49,12.49,0,0,1,1.28.62c.17.08.22.14.22.22a.27.27,0,0,1-.12.2c-.06,0-.16.14-.27.24a2.79,2.79,0,0,0-.43.34,40.1,40.1,0,0,1-.18,4.58c-.1,1-.4,1.29-1.64,1.62-.28-1-.48-1.2-1.5-1.36l0,1.61c0,.31-.1.35-.66.39a1,1,0,0,0-.38,0h-.06c-.18,0-.28-.08-.28-.25l0,0c0-2.38,0-2.72,0-3.88,0-.24,0-.9,0-2l-2,.52v6.59c0,.35.12.48.52.5l.46,0c.24,0,.42,0,.8,0,1.76,0,4,0,4.24-.06s.44-.13.56-.56.54-2.09.85-3.51l.32,0-.08,3.16,0,.31v.12c0,.18,0,.18.38.38a.54.54,0,0,1,.34.5c0,.66-.76.78-4.82.78-2.86,0-3.88-.08-4.36-.31-.28-.13-.4-.39-.46-1v-.54l0-2v-4.16l-.16,0a5.35,5.35,0,0,0-1.34.56l-.36-.7c.72-.1,1.18-.18,1.6-.28l.26-.06v-2a17.82,17.82,0,0,0-.12-1.84c1.8.22,2.18.32,2.18.54s-.2.3-.8.52v2.44l2-.5a25.63,25.63,0,0,0-.14-3.84c1.58.18,2.06.28,2.06.5s-.14.24-.66.46c0,.58,0,.86,0,1.28v.74a3.15,3.15,0,0,1,0,.54Zm-2,.9c0,1.48,0,2.88,0,4.2.44,0,.44,0,1.08.06a3,3,0,0,1,.4,0h.1c.26,0,.32-.1.38-.56,0-.64.1-2.4.1-3.84v-.42Z" transform="translate(-494.82 -172.45)"/><path d="M1190.38,465.45h5.3a19.07,19.07,0,0,1,1.32-1.65c.92.76,1.18,1,2.06,1.81a.42.42,0,0,1,.08.18q0,.12-.24.12h-15.46a21.49,21.49,0,0,0-2.48.11l-.1-.78a11.83,11.83,0,0,0,2.58.2H1189V452.64h-4.8a12.53,12.53,0,0,0-1.92.12l-.16-.76a12,12,0,0,0,2.08.18h10.5c.56-.66.74-.84,1.28-1.44a19.9,19.9,0,0,1,1.88,1.7.14.14,0,0,1,.06.1c0,.06-.08.1-.2.1h-7.3Z" transform="translate(-494.82 -172.45)"/><path d="M1205.44,455.72c.42-.5.54-.66,1-1.12.62.52.82.7,1.4,1.26.08.1.12.14.12.2s-.08.12-.22.12h-3.18v5.06c.88-.36,1.26-.54,2.28-1l.14.28c-1.14.82-1.78,1.26-2.32,1.58-2,1.26-2,1.26-2.54,1.59,0,.74-.1,1-.3,1s-.16-.06-.22-.19l-.78-1.95a24.85,24.85,0,0,0,2.44-.78v-5.54h-1.16a5.71,5.71,0,0,0-1.28.1l-.14-.72a5,5,0,0,0,1.42.16h1.16v-3.54c0-.72,0-1.12-.08-1.86,1.94.24,2.18.3,2.18.5s-.18.26-.8.42v4.48Zm6.88,5.4a12.38,12.38,0,0,1-2.18,2.68,13.61,13.61,0,0,1-5,2.85l-.16-.3a14,14,0,0,0,4.24-2.93,10.14,10.14,0,0,0,1.64-2.3h-1.72a17,17,0,0,1-4.64,3.17l-.16-.31a13.6,13.6,0,0,0,3.4-2.86,10.43,10.43,0,0,0,1.62-2.28h-1.7a7.82,7.82,0,0,0-1.66.12l-.14-.76a6.94,6.94,0,0,0,1.8.18h8.6c.5-.54.66-.7,1.16-1.2.72.54.94.72,1.65,1.34a.29.29,0,0,1,.11.2q0,.12-.24.12h-8.06a18.67,18.67,0,0,1-1.32,1.82h6.84a6.45,6.45,0,0,1,.74-.74,8.42,8.42,0,0,1,1.16.88c.12.08.16.16.16.22s-.18.3-.63.5a20.58,20.58,0,0,1-1.07,5.31,2.88,2.88,0,0,1-2.2,1.18c-.18-1-.4-1.16-2.38-1.44l0-.34c1.22.12,2.06.18,2.58.18s.72-.1.9-.5a19.43,19.43,0,0,0,.8-4.79h-1a10.91,10.91,0,0,1-2.24,3.42,15.67,15.67,0,0,1-3.54,2.63,20.07,20.07,0,0,1-2,.94l-.2-.28a15.28,15.28,0,0,0,4.68-3.66,9.91,9.91,0,0,0,1.92-3.05Zm-2.52-4c0,.28-.22.36-.94.36-.28,0-.36-.06-.36-.26,0-1.42.06-2.14.06-2.8,0-2.38,0-3.6-.06-4.32a15.91,15.91,0,0,1,1.52.88h4.66c.34-.36.44-.48.78-.82.52.36.68.48,1.14.84.14.12.2.2.2.28s-.06.18-.64.48v1.18c0,.82,0,1.88,0,4,0,.18,0,.24-.2.3a4.61,4.61,0,0,1-.84.1c-.18,0-.26-.06-.26-.22v-.5h-5.1Zm5.1-5.68h-5.1v2.06h5.1Zm-5.1,2.52v2.22h5.1v-2.22Z" transform="translate(-494.82 -172.45)"/><path d="M1223.52,459.5a16,16,0,0,1-.74,3.94,10.77,10.77,0,0,1-2.32,4.07l-.24-.22a9.32,9.32,0,0,0,1.32-3.23,21.44,21.44,0,0,0,.7-6c0-1.42,0-1.9,0-2.82a16.6,16.6,0,0,0-.1-1.94,11.13,11.13,0,0,1,1.66.9h3.24c.34-.4.44-.52.78-.9a10,10,0,0,1,1.16.9.31.31,0,0,1,.14.2c0,.06-.22.26-.48.42v.9c0,.38,0,1.24,0,2.22,0,1.3,0,1.3,0,2.38a.27.27,0,0,1-.14.28,6.26,6.26,0,0,1-1.08.12c-.14,0-.2-.06-.2-.26v-1Zm-2.54-8.62a13.91,13.91,0,0,0,2.28.16h4.06l1.12-1.22a20.4,20.4,0,0,1,1.6,1.42.54.54,0,0,1,.06.16.2.2,0,0,1-.2.16h-6.64a11.79,11.79,0,0,0-2.12.12Zm6.34,3.8h-3.68c-.06,3.58-.06,3.58-.08,4.36h3.76Zm4.4,2.08c0,.26,0,.5,0,.64a12.64,12.64,0,0,1-1.58,6.43,9.58,9.58,0,0,1-2.42,2.75,10.67,10.67,0,0,1-1.5,1l-.18-.3a10.11,10.11,0,0,0,2.46-2.53,11.48,11.48,0,0,0,1.84-6.48c.06-1.34.1-3.64.1-5,0-.7,0-1-.06-1.84a17.32,17.32,0,0,1,1.72,1.06,14.28,14.28,0,0,0,3.18-1.5,6.08,6.08,0,0,0,1.53-1.2l1,.54c.6.34,1,.62,1,.78s-.17.2-.42.2a3,3,0,0,1-.67-.1,21,21,0,0,1-5.82,1.7c0,1.06,0,1.06-.08,3.42h4.9c.46-.6.6-.8,1.1-1.4.74.68,1,.9,1.66,1.58a.27.27,0,0,1,.1.18c0,.06-.08.1-.23.1h-3.45v5.12c0,1.44,0,3.08.08,5.23,0,.18,0,.24-.18.28a3.49,3.49,0,0,1-.9.1c-.28,0-.36,0-.4-.18.06-1.47.08-2.6.08-5.29v-5.26Z" transform="translate(-494.82 -172.45)"/><path d="M1241.86,453.62a4.1,4.1,0,0,0,3.22,1.08,18.25,18.25,0,0,0,2.86-.24c-.08-3.06-.22-3.34-1.74-3.56.28-.28.44-.32,1-.32a5.58,5.58,0,0,1,1.68.26c.48.16.68.36.68.66,0,.12,0,.12-.26.68a6.46,6.46,0,0,0-.36,2.12,10.18,10.18,0,0,0,3.72-1.18.57.57,0,0,1,.24-.08,2.55,2.55,0,0,1,1,.34.6.6,0,0,1,.34.48c0,.28-.32.44-1.56.74a33.9,33.9,0,0,1-3.82.7c0,.52,0,.82,0,1.28s0,.94,0,1.82a16.62,16.62,0,0,0,2.28-.54,3.12,3.12,0,0,0,1-.5.48.48,0,0,1,.3-.08,2.32,2.32,0,0,1,1,.3.41.41,0,0,1,.24.38c0,.36-.28.52-1.54.86a21.5,21.5,0,0,1-3.26.58c0,.78,0,1.1.06,1.8s.06,1.06.12,1.56a10.37,10.37,0,0,1,4.4,1.73,1.72,1.72,0,0,1,.58,1.31c0,.43-.18.7-.44.7s-.28-.05-.8-.55a10.18,10.18,0,0,0-1.68-1.24,6.62,6.62,0,0,0-2-.84c0,.43.06.63.06.88a2,2,0,0,1-.68,1.68,4.49,4.49,0,0,1-2.68.74c-2,0-3.38-.88-3.38-2.14,0-1.43,1.86-2.43,4.52-2.43.32,0,.52,0,1,0,0-1,0-1.1,0-1.38V459.5c-.8,0-1.18.06-1.48.06a5.47,5.47,0,0,1-2.66-.44,1.74,1.74,0,0,1-.9-1.52c0-.14,0-.34,0-.56l.3,0c0,.62.12.9.42,1.14a4.22,4.22,0,0,0,2.34.44,16.47,16.47,0,0,0,1.94-.14v-1.4l0-1.46v-.24c-1.1.1-1.9.14-2.58.14-1.9,0-2.72-.38-3.72-1.72Zm4.44,9.84a6.22,6.22,0,0,0-2.18.38c-.72.28-1.08.69-1.08,1.2,0,.73.82,1.15,2.18,1.15a3.31,3.31,0,0,0,2.28-.73,1.53,1.53,0,0,0,.44-1c0-.13,0-.59,0-.75v-.07A11.75,11.75,0,0,0,1246.3,463.46Z" transform="translate(-494.82 -172.45)"/><path d="M1258.2,454.52a1.13,1.13,0,0,0,.9.34c.56,0,1.06-.1,5.56-1.18.72-.18,1.86-.44,3.24-.7a21.91,21.91,0,0,0,2.7-.66,2.52,2.52,0,0,1,.7-.16,2.67,2.67,0,0,1,1.08.42c.41.24.58.5.58.76s-.24.5-.62.5a2.83,2.83,0,0,1-.38,0,2.74,2.74,0,0,0-.56,0,7.09,7.09,0,0,0-6.72,6.68,4.08,4.08,0,0,0,2.66,3.91,6,6,0,0,0,2,.47,1,1,0,0,1,.84.33,1.62,1.62,0,0,1,.6.95c0,.33-.3.57-.72.57a8.36,8.36,0,0,1-4.08-1.44,5.33,5.33,0,0,1-2.32-4.49,7.41,7.41,0,0,1,2.18-4.88,10.37,10.37,0,0,1,3.26-2.3,33.82,33.82,0,0,0-8.94,2.68,1.32,1.32,0,0,1-.8.28,2.21,2.21,0,0,1-1.54-1.18,2.86,2.86,0,0,1-.52-1.34.87.87,0,0,1,.22-.54A2.18,2.18,0,0,0,1258.2,454.52Zm11.88,1.8a10.71,10.71,0,0,1,1.79,1.24c.71.66,1,1.12,1,1.6s-.29.84-.63.84-.26,0-.88-1.3a9.59,9.59,0,0,0-1.54-2.12Zm2.06-1.16a9.18,9.18,0,0,1,1.92,1.14c.77.58,1,1,1,1.54s-.21.82-.51.82-.29-.1-.46-.38a9.55,9.55,0,0,0-2.2-2.84Z" transform="translate(-494.82 -172.45)"/><path d="M1275.8,457.94a6.62,6.62,0,0,0,1.36.16h1.5a9.4,9.4,0,0,1,.7-.86,12.25,12.25,0,0,1,1.16.84c.14.12.2.2.2.26s-.14.28-.58.58v4.88a2.6,2.6,0,0,0,1.26,1.37,7.61,7.61,0,0,0,4.06.78c3.76,0,7.08-.12,9.15-.33V466c-.7.13-1,.46-1.21,1.32-.71,0-1.26,0-3.58,0-.84,0-1.6,0-2.28,0-3.56,0-4.64-.18-5.88-1a5.34,5.34,0,0,1-2.1-2.51,18.27,18.27,0,0,1-2.4,2.93c0,.16,0,.28,0,.36a1.06,1.06,0,0,1,0,.24.26.26,0,0,1-.26.3c-.16,0-.44-.44-1.26-2a10.72,10.72,0,0,0,3.1-1.82v-5.24h-1.64a4.16,4.16,0,0,0-1.16.14Zm.68-7.62a19.79,19.79,0,0,1,2.26,1.62c.7.58.92.92.92,1.48s-.36,1.44-.68,1.44-.42-.22-.64-.84a10.66,10.66,0,0,0-2.12-3.5Zm15.4.46a11.94,11.94,0,0,1,.83-1.08c.79.58,1,.76,1.75,1.34.08.08.13.12.13.18a.14.14,0,0,1-.1.12,1.75,1.75,0,0,1-.37.1,4.68,4.68,0,0,0-.64.14,16.07,16.07,0,0,1-1.32,1.2c.32.24.48.38.92.74a.34.34,0,0,1,.14.24c0,.08-.1.14-.22.14h-4.84v1.64H1291a7,7,0,0,1,.71-.82c.53.36.71.46,1.21.82.12.12.19.18.19.22s-.21.28-.66.56c0,2.62,0,3,0,4.88,0,.16-.18.2-.6.22a2.06,2.06,0,0,0-.38,0h-.06c-.2,0-.28-.06-.3-.24v-.36h-3v1.92h3.2c.47-.48.63-.62,1.06-1.08a17.59,17.59,0,0,1,1.62,1.22.34.34,0,0,1,.13.2q0,.12-.3.12h-5.71c0,.22,0,.4,0,.5,0,.62,0,.74,0,1.39v0c0,.19-.3.3-.86.3-.36,0-.46-.07-.48-.27,0-1.51,0-1.51,0-2h-4a6.62,6.62,0,0,0-1.6.14l-.18-.8a10.54,10.54,0,0,0,1.78.2h4v-1.92H1284v.84c0,.12-.1.16-.26.18a5,5,0,0,1-.72.06c-.28,0-.38-.08-.38-.3.06-1.36.08-2.32.08-3.38,0-1.46,0-2.94-.06-3.54a13.43,13.43,0,0,1,1.48.84h2.76V453.9h-3a3.32,3.32,0,0,0-1.14.12l-.24-.72a6.34,6.34,0,0,0,1.38.14h3a12.29,12.29,0,0,0-.1-1.74c2.08.22,2.08.22,2.08.4s-.2.32-.76.48v.86h2.58a12.71,12.71,0,0,1,.8-1.1l.28.18a8.73,8.73,0,0,0,.34-1.28H1283a3.68,3.68,0,0,1-.48,1.56c-.34.56-.8,1-1.12,1s-.3-.12-.4-.4a3,3,0,0,1-.16-.78c0-.3.08-.38.7-.78a3.1,3.1,0,0,0,1.18-2.1h.28a5,5,0,0,1,0,.72v.36Zm-4.94,5.22H1284v1.86h2.9Zm0,2.32H1284v2.06h2.9Zm4.22-2.32h-3v1.86h3Zm0,2.32h-3l0,2.06h3Z" transform="translate(-494.82 -172.45)"/><path d="M1299.48,454.08l.82-.88a14,14,0,0,1,1.08,1.1.28.28,0,0,1,0,.12c0,.06-.08.12-.2.12h-2V458c1.08-.58,1.08-.58,1.64-.92l.12.2a16,16,0,0,1-1.76,1.62V465l0,1.34a1.12,1.12,0,0,1-.56,1.12,3.83,3.83,0,0,1-1.48.44c0-.68-.08-.78-.26-1a2.57,2.57,0,0,0-1.38-.52l0-.3c1.44.16,1.44.16,2.14.2h.08c.16,0,.22-.06.22-.23v-6.44a11.61,11.61,0,0,1-1.46,1,.35.35,0,0,1,0,.12c0,.44-.08.68-.24.68s-.26-.22-.78-1.78a14.84,14.84,0,0,0,2.46-1.16v-4h-1a5.64,5.64,0,0,0-1.18.1l-.1-.7a6.38,6.38,0,0,0,1.28.14h1v-1.74c0-1.26,0-1.88-.08-2.54.42.06.82.1,1,.12.84.1,1.14.18,1.14.36a.35.35,0,0,1-.1.16c-.08.08-.14.1-.78.3v3.34Zm4,4.62-.8.24a22.18,22.18,0,0,1-.72,4.68,15.16,15.16,0,0,1-2.06,4.33l-.3-.18c1.36-2.77,1.74-4.47,2-8.51l-.54.14c-.06.68-.12.84-.3.84s-.2-.16-.54-1.76a14,14,0,0,0,1.42-.16c.06-1.58.08-3,.08-4.86,0-.84,0-1.08-.06-1.74a11.17,11.17,0,0,1,1.26.78h.14a8.54,8.54,0,0,0,.46-2.68c1.26.22,1.86.4,1.86.58s-.12.2-.72.36a11.84,11.84,0,0,1-1.1,1.74h1.72c.24-.34.32-.46.58-.78.46.3.6.4,1,.7.14.1.2.16.2.24s-.08.22-.56.58v4l.54-.14.06.26-.6.26v4.3c0,1.62,0,1.62,0,4.09,0,.94-.26,1.13-2,1.5,0-.52-.14-.74-.36-.92s-.46-.24-1.62-.45l0-.33c.42,0,.74,0,1,0a13.43,13.43,0,0,0,1.6.08c.24,0,.3-.05.3-.27V458l-1,.38v2.38c0,2.18,0,3.41,0,3.69s-.1.22-.62.22c-.26,0-.32,0-.32-.18v0l0-3.59Zm-.72-5.74c0,4.82,0,4.82-.06,5.18.92-.18,1.42-.3,2.68-.62V453Zm.7.8a5.8,5.8,0,0,1,1.22,2.26c0,.46-.38,1.22-.62,1.22s-.18-.08-.22-.58a11.12,11.12,0,0,0-.58-2.78Zm11.34,12.16c-.74.29-1,.54-1.32,1.47a11.88,11.88,0,0,1-3.34-3,13.12,13.12,0,0,1-4,3.43l-.22-.24a15.26,15.26,0,0,0,3.62-4.05,10.9,10.9,0,0,1-1.6-4.52l-.46.08-.08-.74a6.74,6.74,0,0,0,1.54.14h2.44l.78-.7a9.74,9.74,0,0,1,1.13.84c.16.12.24.22.24.28s-.16.24-.79.46a16.16,16.16,0,0,1-2,4.24,8.4,8.4,0,0,0,4.08,2.11Zm-8.14-7.28c1-1.82,1.32-3.32,1.32-6.66,0-.56,0-.94,0-1.68a9.84,9.84,0,0,1,1.38.94h1.36a7.12,7.12,0,0,1,.69-.9c.45.34.58.44,1,.8.17.16.24.24.24.32s-.15.24-.69.5v3.72c0,.3,0,.3.46.3s.73,0,.81-.26.39-1.6.68-3.22h.24l-.08,2.84c0,.36,0,.36,0,.4s.06.06.32.14a.41.41,0,0,1,.33.42c0,.56-.5.7-2.39.7-1.36,0-1.52-.08-1.52-.84V451.7h-1.68a12.33,12.33,0,0,1-.56,4.36,6.62,6.62,0,0,1-1.74,2.76Zm2.28.3a4.28,4.28,0,0,0-.64,0,8.39,8.39,0,0,0,1.68,3.78,16.71,16.71,0,0,0,1.5-3.82Z" transform="translate(-494.82 -172.45)"/></g></g><g id="吹付プラント設置" class="cls-4"><g class="cls-4"><path d="M1162.82,897.46c0,.34-.08.38-1,.42-.2,0-.3-.06-.32-.26,0-.94,0-.94,0-2.44,0-1.06,0-3.56,0-5.46,0-1,0-1.62,0-3.1a12.1,12.1,0,0,1,1.58.84h2.3c.34-.42.46-.56.82-1,.56.42.72.54,1.22,1,.12.12.16.18.16.26s-.06.16-.74.56v8.3c0,.26-.2.34-.68.36l-.26,0h0c-.22,0-.32-.08-.32-.26v-.92h-2.7Zm0-2.14h2.7v-7.4h-2.7Zm.76,6.87a14.73,14.73,0,0,0,3.82-2.31,9.14,9.14,0,0,0,3.08-4.58,17.82,17.82,0,0,0,.6-4.28,5.37,5.37,0,0,0,0-.76c1.7.16,1.88.18,2.1.3a.21.21,0,0,1,.1.14c0,.14-.06.18-.8.48a11,11,0,0,0,2,6.1,9.62,9.62,0,0,0,3,2.71,7.3,7.3,0,0,0,1.89.74l0,.26c-.72.16-1.06.5-1.4,1.4a8.2,8.2,0,0,1-2.68-2.18,11.71,11.71,0,0,1-2.34-4.21,13.92,13.92,0,0,1-.6-3.36,13.27,13.27,0,0,1-1,4.1,10,10,0,0,1-4,4.18,14.33,14.33,0,0,1-3.6,1.57Zm6.66-13a16.67,16.67,0,0,1-3,4.14l-.24-.2a18.49,18.49,0,0,0,2.38-4.74,19,19,0,0,0,1-3.88l1,.26c1,.24,1.38.4,1.38.56s-.32.32-1,.34a24,24,0,0,1-1.32,3.06h5.76a10.76,10.76,0,0,0,.94-1c.77.62,1,.8,1.72,1.44.14.12.18.2.18.26s-.18.24-1.36.38l-.58.56a22.93,22.93,0,0,1-2.06,1.9l-.18-.16a16.7,16.7,0,0,0,1.44-2.94Z" transform="translate(-494.82 -172.45)"/><path d="M1180.92,895.18a30.52,30.52,0,0,0,3.34-6.14,18.38,18.38,0,0,0,1.38-4.36c.8.2,1.88.5,2.18.62.12.06.18.12.18.2s-.2.32-1,.44a25.66,25.66,0,0,1-2.7,5.32c1.44.22,1.7.28,1.7.46s-.08.2-.66.42v5.42c0,2.66,0,2.66,0,4.93,0,.26-.2.36-.76.4a3.09,3.09,0,0,0-.34,0h0c-.22,0-.34-.1-.34-.26v0c.06-2.28.08-3.51.08-5v-5.9a18,18,0,0,1-2.82,3.6Zm6.68-4.38c-.38,0-.74,0-1.6.1l-.14-.7a15.21,15.21,0,0,0,1.74.14h6.58V887a13.9,13.9,0,0,0-.12-2.14c1.78.2,2.36.34,2.36.58s-.26.32-.86.52v4.4h.58a18.05,18.05,0,0,1,1.15-1.48c.79.66,1,.86,1.77,1.58a.36.36,0,0,1,.11.18c0,.1-.13.18-.25.18h-3.36v5.78c0,1.3,0,3.26.06,4.42a1.31,1.31,0,0,1-.54,1.15,4.78,4.78,0,0,1-2.12.64c-.22-1-.36-1-3.54-1.67l0-.28,1.44.08c1.68.08,1.82.11,2.84.12.34,0,.46-.12.46-.39V890.8Zm.26,1.92a14.83,14.83,0,0,1,2.86,2.18c.72.7.9,1,.9,1.42s-.5,1.36-.8,1.36-.36-.16-.5-.54a12.53,12.53,0,0,0-2.64-4.24Z" transform="translate(-494.82 -172.45)"/><path d="M1203,901.93a27.55,27.55,0,0,0,6.62-7.67c1.28-2.22,2.38-4.66,2.38-5.34,0-.2-.1-.26-.4-.26a31.47,31.47,0,0,0-3.7.68,22.45,22.45,0,0,0-3.66,1.14,1.86,1.86,0,0,1-.74.2c-.42,0-.94-.4-1.44-1.08a2.32,2.32,0,0,1-.52-1.26.64.64,0,0,1,.14-.4,1.92,1.92,0,0,0,1.86,1.16,50.08,50.08,0,0,0,5.7-.82,6.7,6.7,0,0,0,2.32-.56c.24-.14.24-.14.4-.14a3,3,0,0,1,1.46.92c.42.42.62.72.62,1s0,.28-.28.54a3.62,3.62,0,0,0-.68,1.1c-2.72,5.36-5.82,8.85-9.9,11.07ZM1218,886.6a2.19,2.19,0,0,1-2.17,2.2,2.22,2.22,0,0,1-2.21-2.2,2.19,2.19,0,0,1,4.38,0Zm-3.72,0a1.56,1.56,0,0,0,1.55,1.54,1.53,1.53,0,1,0-1.55-1.54Z" transform="translate(-494.82 -172.45)"/><path d="M1222.26,901.91a23.37,23.37,0,0,0,4.56-4.47,19.08,19.08,0,0,0,3.36-6.1,34.72,34.72,0,0,0-5.82.92,10,10,0,0,0-2.08.62,1.08,1.08,0,0,1-.6.18c-.7,0-1.84-1.44-1.84-2.32a.48.48,0,0,1,.12-.34,1.92,1.92,0,0,0,1.74,1.16c.78,0,4.16-.42,6.76-.86a3.74,3.74,0,0,0,1.64-.46.71.71,0,0,1,.32-.12c.18,0,.48.2.94.6s.8.84.8,1.1a.72.72,0,0,1-.3.5c-.28.2-.4.38-.74,1-2.16,4.08-5.38,7.33-8.68,8.79Zm-.26-15.49a2.6,2.6,0,0,0,2.14,1.08,13,13,0,0,0,4.52-1,.84.84,0,0,1,.42-.12c.56,0,1.56.7,1.56,1.1,0,.24-.18.36-.76.44a37.29,37.29,0,0,1-5.1.52c-1.5,0-2.1-.38-3.06-1.88Z" transform="translate(-494.82 -172.45)"/><path d="M1236.24,888.1a11.41,11.41,0,0,1,3.86,1.5,1.54,1.54,0,0,1,.68,1.36c0,.66-.22,1.12-.56,1.12s-.32-.1-.86-.8a10.36,10.36,0,0,0-3.26-2.94Zm14.22,1.14a20.8,20.8,0,0,1-4.2,5.38,39.54,39.54,0,0,1-5.62,4.56c-.94.66-1,.74-1.18.93-.32.38-.44.47-.7.47-.82,0-2.34-1.91-2.34-2.94a1,1,0,0,1,.1-.4,3,3,0,0,0,.72.88,1.3,1.3,0,0,0,.8.42,5,5,0,0,0,1.94-.84,29,29,0,0,0,4.78-3.3,31.64,31.64,0,0,0,5.38-5.34Z" transform="translate(-494.82 -172.45)"/><path d="M1255.22,885.66a4,4,0,0,1,1.48.34c.84.32,1.32.72,1.32,1.1,0,.14,0,.14-.12.44a15.13,15.13,0,0,0-.36,4.36,18.26,18.26,0,0,1,4.67,1.12c.89.42,1.24.82,1.24,1.54s-.19.92-.49.92-.22,0-.74-.48a11.51,11.51,0,0,0-4.7-2.6c0,1.26,0,1.88,0,2.48v2.92c0,.6,0,.6,0,2.28,0,.42,0,.76,0,1.07a1.27,1.27,0,0,1-.1.68.45.45,0,0,1-.36.18c-.48,0-1.28-1.09-1.28-1.75a1.5,1.5,0,0,1,.1-.55c.3-1,.42-3.57.42-8.67a32.64,32.64,0,0,0-.14-3.44,2,2,0,0,0-1.52-1.78A.8.8,0,0,1,1255.22,885.66Z" transform="translate(-494.82 -172.45)"/><path d="M1266.84,888.24a9.05,9.05,0,0,0,2.14.2h3.64l1-1.14c.76.54,1,.72,1.7,1.3a.62.62,0,0,1,.08.18c0,.08-.08.12-.22.12H1269a9.36,9.36,0,0,0-2,.14Zm.76-2.56a7.47,7.47,0,0,0,1.66.2h2.54c.42-.52.54-.66,1-1.14a20,20,0,0,1,1.6,1.32.57.57,0,0,1,.08.16c0,.08-.08.12-.2.12h-5a13.07,13.07,0,0,0-1.52.1Zm.24,7.8a6.74,6.74,0,0,0,1.7.2h1.88a10.7,10.7,0,0,1,1-1.14c.68.54.88.7,1.5,1.26a.82.82,0,0,1,.12.2.15.15,0,0,1-.14.14h-4.38a10,10,0,0,0-1.54.1Zm0-2.6a7.89,7.89,0,0,0,1.68.18h2.12l1-1.16c.68.56.9.74,1.52,1.32a.45.45,0,0,1,.08.18c0,.06-.08.12-.22.12h-4.5a7.32,7.32,0,0,0-1.52.12Zm1.32,11.75c0,.16-.08.2-.22.24a3.52,3.52,0,0,1-.66.06c-.3,0-.4-.08-.44-.3.06-2.22.06-2.71.06-3.51,0-1.06,0-2.58-.06-3.54.68.38.86.5,1.48.9h2.72l.76-.82a9.25,9.25,0,0,1,1.06.82.62.62,0,0,1,.24.34c0,.12-.08.18-.64.52,0,.46,0,.72,0,1,0,.56,0,2.6.06,3.13,0,.13,0,.2-.14.24a2.61,2.61,0,0,1-.92.14c-.24,0-.3-.06-.3-.25v-.31h-3Zm0-1.79h3v-3.9h-3Zm16.43.47a1.36,1.36,0,0,0-.84.42,1.91,1.91,0,0,0-.65,1,14.54,14.54,0,0,1-4.78-3.21,16,16,0,0,1-6.56,3.49l-.12-.3a18.31,18.31,0,0,0,6-4,11.51,11.51,0,0,1-2.28-4.88H1276a4.89,4.89,0,0,0-1,.12l-.16-.78a7.63,7.63,0,0,0,1.86.18h4.9l.78-.86c.66.46.87.6,1.46,1.06.15.12.2.2.2.28s-.26.24-1,.46a15.66,15.66,0,0,1-2.88,4.45,11.49,11.49,0,0,0,5.5,2.17ZM1274,893c1.78-1.8,2.28-3.3,2.28-6.76a12.23,12.23,0,0,0-.08-1.38,11.74,11.74,0,0,1,1.52,1h2.66c.34-.38.46-.5.8-.9.52.4.68.52,1.12.9.18.18.22.26.22.34s-.12.24-.74.56v3.64c0,.34.08.36,1.08.36.65,0,.84-.06,1-.28a12.22,12.22,0,0,0,.84-2.92l.26,0-.18,2.58v.08c0,.3,0,.32.42.52a.47.47,0,0,1,.24.42c0,.56-.53.7-2.7.7a4.47,4.47,0,0,1-1.92-.18c-.26-.16-.34-.4-.34-.92v-.06c0-.52,0-.7,0-1.24v-3.16h-2.88c-.14,2.48-.34,3.4-1,4.5a7,7,0,0,1-2.44,2.38Zm2.8.84a8.67,8.67,0,0,0,2.48,4.2,12.44,12.44,0,0,0,2.36-4.2Z" transform="translate(-494.82 -172.45)"/><path d="M1302.6,890.28a14.2,14.2,0,0,1,1-1.12c.78.52,1,.68,1.71,1.22a.79.79,0,0,1,.16.24c0,.08-.08.12-.2.12H1297c0,.26-.18.92-.38,2h4.2c.36-.38.46-.5.82-.86.54.36.7.48,1.2.84.16.12.22.2.22.28s0,.12-.64.56V895c0,1.42,0,4.78,0,5.24s-.16.41-1.18.41c-.2,0-.28-.09-.28-.3V900h-7.5v.54c-.06.28-.1.3-1.12.3-.22,0-.32-.08-.32-.29,0-1.83.06-2.58.06-6.1,0-1.26,0-1.62-.08-2.56a10.3,10.3,0,0,1,1.6.86h1.78c0-.28,0-.28.16-1a3.46,3.46,0,0,0,.08-.48c0-.1.06-.3.08-.5h-7.32a5.48,5.48,0,0,0-1.18.12l-.2-.76a6,6,0,0,0,1.38.18h7.4c0-.16,0-.3.06-.38s.08-.48.2-1.2h-6v.46c0,.14,0,.2-.12.22a4.69,4.69,0,0,1-.9.1c-.26,0-.34-.1-.34-.34s0-.68,0-.88c0-.92,0-1.52,0-1.74,0-.48,0-.94-.06-2a7.21,7.21,0,0,1,1.52.86h12.18c.34-.4.46-.52.78-.86.5.36.66.48,1.16.82.18.16.24.22.24.3s-.16.26-.76.56v1.14c0,.6,0,.8,0,1.36,0,.14,0,.22-.11.26a2.45,2.45,0,0,1-.92.14c-.19,0-.27-.06-.27-.2v-.22h-5.16c-.12.6-.22,1.14-.3,1.58Zm-12.66,12.39c0,.24-.14.28-.78.3h-.3c-.28,0-.4-.1-.4-.32v-.08c.08-1.7.1-2.69.1-4.17a60.48,60.48,0,0,0-.1-6.56c2,.22,2.12.24,2.12.42s-.16.22-.64.44v8.87h12.66c.56-.66.74-.84,1.3-1.46a16.52,16.52,0,0,1,1.72,1.56.41.41,0,0,1,.15.24q0,.12-.24.12h-15.59Zm.18-16.81v2.38h3.14v-2.38Zm10.92,7.3h-7.5v1.64h7.5Zm-7.5,2.08v1.88h7.5v-1.88Zm0,2.34v1.91h7.5v-1.91Zm.92-9.34h3.32v-2.38h-3.32Zm4.56,0h3.58v-2.38H1299Z" transform="translate(-494.82 -172.45)"/></g></g><g id="チップ材吹付け" class="cls-4"><g class="cls-4"><path d="M612.92,890a27.55,27.55,0,0,0,5-2,14.49,14.49,0,0,0,2.14-1.32.51.51,0,0,0,.22-.36c0-.22-.3-.48-.88-.76a.52.52,0,0,1,.36-.12c.88,0,2.48,1,2.48,1.54,0,.24-.1.32-.84.68-.48.22-1.6.68-2.9,1.18,1.1.46,1.7.92,1.7,1.32a4.6,4.6,0,0,1-.08.52c0,.2-.06.68-.12,1.34,3.26-.3,3.52-.34,4-.52a1.31,1.31,0,0,1,.5-.1c.78,0,2,.72,2,1.2a.39.39,0,0,1-.42.4,3.13,3.13,0,0,1-.64-.08,17.27,17.27,0,0,0-2.92-.2l-2.52.08a14.15,14.15,0,0,1-1.88,6,11.74,11.74,0,0,1-3.28,3.51l-.24-.24a14,14,0,0,0,4-9.13,21.23,21.23,0,0,0-5.26,1.28,1.29,1.29,0,0,1-.48.12,2.63,2.63,0,0,1-1.94-2.06.37.37,0,0,1,.08-.22,1.86,1.86,0,0,0,1.7.9,22.46,22.46,0,0,0,2.6-.32c1.32-.22,2.32-.34,3.36-.48,0-.54.06-.82.06-1.22,0-1.14-.16-1.54-.78-1.88a22.64,22.64,0,0,1-4.94,1.18Z" transform="translate(-494.82 -172.45)"/><path d="M630,891.48c2,1.22,2.78,2,2.78,2.74,0,.6-.32,1.16-.64,1.16s-.32-.14-.5-.56a11.25,11.25,0,0,0-1.84-3.14Zm1.86,10.29a18.18,18.18,0,0,0,3-2.75,22.69,22.69,0,0,0,3.86-5.94,3.35,3.35,0,0,0,.38-1.26c0-.46-.2-.68-1-1.06a.72.72,0,0,1,.48-.18,3.34,3.34,0,0,1,1.68.64c.54.36.76.62.76.92s0,.26-.28.5a8.52,8.52,0,0,0-.7,1.08,23.23,23.23,0,0,1-2.76,4.14,15.33,15.33,0,0,1-5.16,4.21Zm1.72-11a7.9,7.9,0,0,1,1.76,1.16,1.56,1.56,0,0,1,.74,1.24c0,.6-.34,1.22-.66,1.22s-.34-.16-.48-.62a6.8,6.8,0,0,0-1.54-2.78Z" transform="translate(-494.82 -172.45)"/><path d="M646.5,901.93a27.55,27.55,0,0,0,6.62-7.67c1.28-2.22,2.38-4.66,2.38-5.34,0-.2-.1-.26-.4-.26a31.47,31.47,0,0,0-3.7.68,22.45,22.45,0,0,0-3.66,1.14,1.86,1.86,0,0,1-.74.2c-.42,0-.94-.4-1.44-1.08a2.32,2.32,0,0,1-.52-1.26.64.64,0,0,1,.14-.4A1.92,1.92,0,0,0,647,889.1a50.08,50.08,0,0,0,5.7-.82,6.7,6.7,0,0,0,2.32-.56c.24-.14.24-.14.4-.14a3,3,0,0,1,1.46.92c.42.42.62.72.62,1s0,.28-.28.54a3.62,3.62,0,0,0-.68,1.1c-2.72,5.36-5.82,8.85-9.9,11.07Zm15.09-15.33a2.2,2.2,0,1,1-2.19-2.18A2.2,2.2,0,0,1,661.59,886.6Zm-3.73,0a1.55,1.55,0,0,0,1.54,1.54,1.53,1.53,0,1,0-1.54-1.54Z" transform="translate(-494.82 -172.45)"/><path d="M667.76,889.26c.4-.52.54-.68,1-1.18.66.58.86.76,1.48,1.34a.33.33,0,0,1,.08.18c0,.06-.08.12-.18.12h-2.7v1.8a16.87,16.87,0,0,1,2.24,1.18c.56.36.72.58.72,1,0,.66-.22,1.2-.48,1.2s-.24-.08-.54-.58A11.74,11.74,0,0,0,667.4,892c0,1.28,0,2.78,0,4.54,0,3.1,0,3.46.06,6.11,0,.16,0,.24-.16.28a5.09,5.09,0,0,1-1,.1c-.14,0-.2-.06-.2-.18v0c0-1,0-1.73.06-2.2.06-2,.06-2,.1-5.19l.12-3.56a20.17,20.17,0,0,1-4.12,6.86l-.22-.18a28,28,0,0,0,2.4-4.56,21.84,21.84,0,0,0,1.44-4.22h-2a5.59,5.59,0,0,0-1,.1l-.12-.7a5,5,0,0,0,1.16.14h2.26v-2.5c0-.54,0-1-.08-2l1,.12c1.24.14,1.44.2,1.44.4s-.14.26-1,.52v3.44ZM677.2,897c0,1,0,1.69.06,2.2,0,.78,0,.82,0,1.53A1.77,1.77,0,0,1,677,902a3.08,3.08,0,0,1-2,.88,1.07,1.07,0,0,0-.5-.82,5.23,5.23,0,0,0-1.16-.34l-.88-.17-.94-.15,0-.32c1.7.08,2,.08,4,.12.28,0,.34-.08.34-.35l0-7.74,0-1.94a18.82,18.82,0,0,1-3.28,4.62,22.63,22.63,0,0,1-4.1,3.55l-.22-.25a26.75,26.75,0,0,0,6.94-9.32h-3.32a6,6,0,0,0-1.12.12l-.12-.72a5.61,5.61,0,0,0,1.24.14h3.78v-2.5a9.81,9.81,0,0,0-.14-2l.9.08c1.14.1,1.56.2,1.56.4s-.21.3-1,.56l.06,3.42H678c.45-.62.58-.82,1-1.38a22.42,22.42,0,0,1,1.82,1.54.32.32,0,0,1,.06.16c0,.08-.08.14-.2.14H677.1Z" transform="translate(-494.82 -172.45)"/><path d="M684.48,897.46c0,.34-.08.38-1,.42-.2,0-.3-.06-.32-.26,0-.94,0-.94,0-2.44,0-1.06,0-3.56,0-5.46,0-1,0-1.62,0-3.1a12.1,12.1,0,0,1,1.58.84H687c.34-.42.46-.56.82-1,.56.42.72.54,1.22,1,.12.12.16.18.16.26s-.06.16-.74.56v8.3c0,.26-.2.34-.68.36l-.26,0h0c-.22,0-.32-.08-.32-.26v-.92h-2.7Zm0-2.14h2.7v-7.4h-2.7Zm.76,6.87a14.73,14.73,0,0,0,3.82-2.31,9.14,9.14,0,0,0,3.08-4.58,17.82,17.82,0,0,0,.6-4.28,5.37,5.37,0,0,0,0-.76c1.7.16,1.88.18,2.1.3a.21.21,0,0,1,.1.14c0,.14-.06.18-.8.48a11,11,0,0,0,2,6.1,9.62,9.62,0,0,0,3,2.71,7.45,7.45,0,0,0,1.89.74l0,.26c-.72.16-1.06.5-1.4,1.4a8.24,8.24,0,0,1-2.69-2.18,11.71,11.71,0,0,1-2.34-4.21,13.92,13.92,0,0,1-.6-3.36,13.27,13.27,0,0,1-1,4.1,10,10,0,0,1-4,4.18,14.33,14.33,0,0,1-3.6,1.57Zm6.66-13a16.67,16.67,0,0,1-3,4.14l-.24-.2a18.49,18.49,0,0,0,2.38-4.74,19,19,0,0,0,1-3.88l1,.26c1,.24,1.38.4,1.38.56s-.32.32-1,.34a24,24,0,0,1-1.32,3.06h5.76a10.9,10.9,0,0,0,1-1c.76.62,1,.8,1.72,1.44.14.12.18.2.18.26s-.18.24-1.36.38l-.58.56a24,24,0,0,1-2.07,1.9l-.18-.16a16.7,16.7,0,0,0,1.44-2.94Z" transform="translate(-494.82 -172.45)"/><path d="M702.58,895.18a30.52,30.52,0,0,0,3.34-6.14,18.38,18.38,0,0,0,1.38-4.36c.8.2,1.88.5,2.18.62.12.06.18.12.18.2s-.2.32-1,.44a25.66,25.66,0,0,1-2.7,5.32c1.44.22,1.7.28,1.7.46s-.08.2-.66.42v5.42c0,2.66,0,2.66,0,4.93,0,.26-.2.36-.76.4a3.09,3.09,0,0,0-.34,0h0c-.22,0-.34-.1-.34-.26v0c.06-2.28.08-3.51.08-5v-5.9a18,18,0,0,1-2.82,3.6Zm6.68-4.38c-.38,0-.74,0-1.6.1l-.14-.7a15.21,15.21,0,0,0,1.74.14h6.58V887a13.9,13.9,0,0,0-.12-2.14c1.78.2,2.36.34,2.36.58s-.26.32-.86.52v4.4h.59a16,16,0,0,1,1.14-1.48,22.31,22.31,0,0,1,1.78,1.58.33.33,0,0,1,.1.18c0,.1-.12.18-.24.18h-3.37v5.78c0,1.3,0,3.26.06,4.42a1.31,1.31,0,0,1-.54,1.15,4.78,4.78,0,0,1-2.12.64c-.22-1-.36-1-3.54-1.67l0-.28,1.44.08c1.68.08,1.82.11,2.84.12.34,0,.46-.12.46-.39V890.8Zm.26,1.92a14.83,14.83,0,0,1,2.86,2.18c.72.7.9,1,.9,1.42s-.5,1.36-.8,1.36-.36-.16-.5-.54a12.53,12.53,0,0,0-2.64-4.24Z" transform="translate(-494.82 -172.45)"/><path d="M727.3,893.34a39.37,39.37,0,0,0-1.22,6.07v.21a2.41,2.41,0,0,1,0,.33c0,.63-.16.93-.5.93s-.6-.26-.84-.71a11.57,11.57,0,0,1-1-5.19,24.66,24.66,0,0,1,.44-4.54,14.56,14.56,0,0,0,.32-2.48,3.33,3.33,0,0,0-.72-1.92,2,2,0,0,1,1.32.78,2.74,2.74,0,0,1,.88,1.6,2.78,2.78,0,0,1-.28,1.1,16.7,16.7,0,0,0-1,5.56,7.26,7.26,0,0,0,.48,3.13c.24-.61,1.44-3.87,1.8-5Zm1.6-3.3a3.36,3.36,0,0,0,2.32.8,11.53,11.53,0,0,0,2.88-.42v-.7a8,8,0,0,0-.24-2.8c-.2-.4-.76-.7-1.7-.92.3-.26.44-.3,1.1-.3,1.44,0,2.4.4,2.4,1a2.25,2.25,0,0,1-.1.48,9.71,9.71,0,0,0-.26,2.88,4.38,4.38,0,0,0,1.82-.86.66.66,0,0,1,.42-.14c.65,0,1.21.28,1.21.6s-.14.36-.7.64a14.7,14.7,0,0,1-2.73.88v2.94c0,3.16-.54,4.78-2,6.37a10.2,10.2,0,0,1-3,2.18l-.16-.26a9.56,9.56,0,0,0,2.82-3.08c.94-1.65,1.26-3.43,1.26-6.87v-1a11.42,11.42,0,0,1-2.32.26,3.77,3.77,0,0,1-3.14-1.42Z" transform="translate(-494.82 -172.45)"/></g></g></g></svg>