<svg id="レイヤー_1" data-name="レイヤー 1" xmlns="http://www.w3.org/2000/svg" viewBox="0 0 435.91 1091.73"><defs><style>.cls-1{fill:#a3a3a3;}.cls-2{fill:none;stroke:#707070;}.cls-3{fill:#71976b;}.cls-4{isolation:isolate;}.cls-5{fill:#fff;}</style></defs><g id="グループ_35" data-name="グループ 35"><g id="長方形_150" data-name="長方形 150"><rect class="cls-1" x="0.12" y="0.12" width="435.68" height="291.98"/><rect class="cls-2" x="0.5" y="0.5" width="434.91" height="291.22"/></g><g id="長方形_151" data-name="長方形 151"><rect class="cls-1" x="0.12" y="399.87" width="435.68" height="291.98"/><rect class="cls-2" x="0.5" y="400.25" width="434.91" height="291.22"/></g><g id="長方形_152" data-name="長方形 152"><rect class="cls-1" x="0.12" y="799.63" width="435.68" height="291.98"/><rect class="cls-2" x="0.5" y="800.01" width="434.91" height="291.22"/></g><g id="合体_4" data-name="合体 4"><path class="cls-3" d="M745.46,352h76.92V311.5H963.94V352h76.92l-147.7,23.72Z" transform="translate(-675.2 -0.3)"/><path class="cls-3" d="M750.26,352.38l142.9,22.94,142.9-22.94h-72.5V311.89H822.76v40.49h-72.5m-9.59-.77H822V311.12H964.32v40.49h81.33L893.16,376.09Z" transform="translate(-675.2 -0.3)"/></g><g id="施工後_5ヶ月" data-name="施工後 5ヶ月" class="cls-4"><g class="cls-4"><path class="cls-5" d="M854.54,348.16a10.19,10.19,0,0,0,1,.11c.3,0,.42,0,.51-.15s.39-1.12.51-2.79c.08-1.05.12-1.74.12-2.08v-.58h-.86a14.93,14.93,0,0,1-.72,3.87,9.24,9.24,0,0,1-2.21,3.4l-.13-.11a10,10,0,0,0,1.31-3.5,33.78,33.78,0,0,0,.4-5.34,5.06,5.06,0,0,0,0-.56H854a2.83,2.83,0,0,0-.51,0h-.23l-.11-.45a4.93,4.93,0,0,0,.85.11h.85v-1.72a7.47,7.47,0,0,0-.08-1c1.6.14,2.11.25,2.11.45s-.17.22-.54.35v1.9h.34c.31-.42.4-.54.72-.93.48.4.63.54,1.11,1l.07.09a13.84,13.84,0,0,0,.86-2.91c2,.45,2.18.49,2.18.68s-.12.22-.6.31a12,12,0,0,1-.92,1.43h3.27c.44-.5.57-.66,1-1.17.68.51.87.67,1.53,1.22.07.07.1.11.1.17s0,.07-.14.07h-6a9.76,9.76,0,0,1-2,2c.18.15.25.2.47.41s.12.14.12.19,0,.1-.38.35a35.36,35.36,0,0,1-.31,4.1c-.22,1.69-.44,2.16-1.11,2.48a2.8,2.8,0,0,1-1,.2c-.16,0-.19,0-.2-.23-.06-.8-.22-1-1-1.23Zm1.43-7.73c0,.92,0,1.18-.09,1.95h.82l.64-.73.4.32a9.06,9.06,0,0,0,.79-1.59l-.09.05Zm2.14,3.55a5.68,5.68,0,0,0,.69-.13l.36-.09v-1a9.32,9.32,0,0,0-.11-1.58c1.69.19,1.91.25,1.91.41s-.11.19-.48.37v1.46l.95-.25V343a17.35,17.35,0,0,0-.1-2.5c1.55.16,1.86.22,1.86.4s-.13.2-.49.34v1.62l.93-.24c.28-.4.36-.53.66-.9l1.11.61c.15.09.22.16.22.23a.34.34,0,0,1-.17.25l-.33.26c0,.1,0,.85-.06,1.58a5.78,5.78,0,0,1-.28,2,1.2,1.2,0,0,1-.6.46,2,2,0,0,1-.59.13c-.11,0-.15,0-.16-.15,0-.7-.18-.93-.7-1.08,0,.57,0,.61,0,1.22,0,.34,0,.36-1.08.41a.36.36,0,0,1-.26-.11s0-.09,0-.2c0-1.08,0-2.4,0-3.86l-.95.25,0,4.42c0,.22.08.3.33.3l.37,0h2.45c.52,0,.75-.05.88-.17a11.09,11.09,0,0,0,1-2.37l.15,0-.12,1.87V348c0,.16,0,.16.27.3a.59.59,0,0,1,.35.55.76.76,0,0,1-.22.51c-.22.22-.68.28-2.19.32h-1.31c-.8,0-1.36,0-1.66,0-.77,0-1.19-.09-1.42-.35a1.06,1.06,0,0,1-.21-.72c0-1,0-1.71,0-3V344l-.29.07a3.51,3.51,0,0,0-.56.25Zm4.59-.87c0,1.4,0,1.4,0,2.71l.57,0c.25,0,.36-.14.37-.51s.07-1.69.09-1.94,0-.4,0-.57Z" transform="translate(-675.2 -0.3)"/><path class="cls-5" d="M874,348.46h2.84L878,347.1c.74.59,1,.78,1.71,1.4a.54.54,0,0,1,.09.16s-.06.09-.17.09h-11.3a10.1,10.1,0,0,0-1.28.08l-.09-.5a7.33,7.33,0,0,0,1.37.13h4V339.3H869a6.06,6.06,0,0,0-1.08.07l-.09-.49A5.24,5.24,0,0,0,869,339h7.17l1.12-1.26c.73.57,1,.75,1.66,1.37a.2.2,0,0,1,.07.11s0,.07-.14.07H874Z" transform="translate(-675.2 -0.3)"/><path class="cls-5" d="M882.22,344.18a14.16,14.16,0,0,1-1.71,1.23l-.11-.14a14.53,14.53,0,0,0,2-2.7,8.2,8.2,0,0,0,1-2.28c1.66.53,2,.66,2,.82s-.19.22-.63.25a10.79,10.79,0,0,1-1.38,1.76c.55.13.73.21.73.32s-.13.19-.44.29v2.65c0,.61,0,1.71,0,3.32,0,.18,0,.28-.11.33a2,2,0,0,1-1,.15c-.37,0-.45-.07-.45-.35.05-2.07.07-2.3.07-3.42Zm-1.71-2.85a11,11,0,0,0,1.89-2.39,5.67,5.67,0,0,0,.73-1.58c2,.63,2.16.7,2.16.88s-.18.2-.71.22a11.63,11.63,0,0,1-4,3Zm9.8-.11c1.82.77,2.85,1.53,2.85,2.15a1.8,1.8,0,0,1-.29.88.72.72,0,0,1-.56.36c-.17,0-.25-.1-.4-.45-.25-.58-.35-.8-.55-1.2-1.05.22-2.67.49-4,.69l.5.12c.59.12.69.17.69.26s-.16.18-.58.26c-.11.2-.14.26-.25.43h2.15c.34-.36.44-.45.8-.78.52.39.68.53,1.19,1,.11.09.17.16.17.22s-.15.21-.65.33a12.14,12.14,0,0,1-1.75,2,10,10,0,0,0,4,.8v.14a1.79,1.79,0,0,0-1,1.21c-.08.29-.11.32-.22.32a7.13,7.13,0,0,1-1.91-.65,6.59,6.59,0,0,1-1.69-1.16,12.14,12.14,0,0,1-2.18,1.22,14.07,14.07,0,0,1-2.61.74l-.07-.18a12.7,12.7,0,0,0,4.1-2.56,5.9,5.9,0,0,1-1-1.65,9.4,9.4,0,0,1-3,2.48l-.09-.14a11.11,11.11,0,0,0,1.94-2.52,10,10,0,0,0,.8-1.69l-1.57.24c0,.34-.14.51-.26.51s-.15,0-.46-1.84a11.13,11.13,0,0,0,1.32.07l1.39,0a13,13,0,0,0,1.48-1.72,14.11,14.11,0,0,0,1.61-2.46l.91.44c.86.4,1.07.51,1.07.64s-.18.2-.7.2a29.39,29.39,0,0,1-3.65,2.89h.4c.69,0,1.77-.07,2.93-.15a5.35,5.35,0,0,0-.95-1.26Zm-5.22-2.12a14.72,14.72,0,0,1,1.61.66,7.64,7.64,0,0,0,.75-2.35l1,.28c1,.29,1.24.37,1.24.51s-.19.19-.67.23A12,12,0,0,1,887.2,340c.56.36.74.56.74.88,0,.52-.44,1.09-.84,1.09-.13,0-.22-.06-.31-.24s-.07-.13-.24-.49a5.59,5.59,0,0,0-1.57-2Zm2.47,5.91-.33.45a4.36,4.36,0,0,0,1.35,1.37A8.28,8.28,0,0,0,889.9,345Z" transform="translate(-675.2 -0.3)"/><path class="cls-5" d="M900.27,343.56a3.58,3.58,0,0,1,2.65-1.11,3,3,0,0,1,3.27,3.09c0,2.06-1.45,3.36-3.73,3.36-1.81,0-3.21-.86-3.21-2,0-.53.34-.8,1-.8a.91.91,0,0,1,.69.23c.09.11.12.22.13.62a1.63,1.63,0,0,0,.39,1.13,1.45,1.45,0,0,0,1.07.46,1.58,1.58,0,0,0,1.35-.71,4,4,0,0,0,.52-2.12c0-1.73-.71-2.73-2-2.73a2.75,2.75,0,0,0-2.31,1.5l-.46-.11.46-5.79h5.63l-.25,1.55h-5Z" transform="translate(-675.2 -0.3)"/><path class="cls-5" d="M908.19,346a11.94,11.94,0,0,0,1.59-2.3,7.2,7.2,0,0,0,1-2.39c0-.32-.23-.58-.69-.77a.79.79,0,0,1,.37-.1,2.72,2.72,0,0,1,1.21.39c.46.24.68.46.68.67s0,.21-.24.44c0,.07-.09.14-.23.34-.25.42-.45.72-.61.95a1.06,1.06,0,0,0,.51.1,11.26,11.26,0,0,0,2.59-.44,3.46,3.46,0,0,0,1.13-.4,1,1,0,0,1,.34-.1,2.21,2.21,0,0,1,.89.35c.24.16.31.27.31.49a.34.34,0,0,1-.29.35,3.58,3.58,0,0,1-.71.07c-.61,0-.83.05-1.24.11l-1,.11c.6.33.82.53.82.78a7.52,7.52,0,0,1-1.26,2.73,7.85,7.85,0,0,1-3,2.42l-.1-.14a9.37,9.37,0,0,0,2.08-2.7,7,7,0,0,0,.91-2.62.53.53,0,0,0-.15-.4l-.45,0-.63,0a1.1,1.1,0,0,1-1-.46,9,9,0,0,1-2.71,2.58Z" transform="translate(-675.2 -0.3)"/><path class="cls-5" d="M922.48,344.8a7.41,7.41,0,0,1-1.45,3.55,7.74,7.74,0,0,1-1.91,1.75L919,350a8.41,8.41,0,0,0,1.72-3.85,24,24,0,0,0,.3-5c0-1.83,0-2.63-.08-3.82a20,20,0,0,1,1.91.93h4.53c.35-.4.44-.51.81-.89.56.37.71.49,1.23.86.14.11.19.18.19.25s-.12.22-.51.41v4.75c0,1.3,0,2.71.06,4.6a1.46,1.46,0,0,1-.18.9,2.18,2.18,0,0,1-1.46.7,2.24,2.24,0,0,1-.45.05c-.16,0-.18,0-.21-.25a1.09,1.09,0,0,0-.74-.92,8.89,8.89,0,0,0-1.89-.49v-.18c1.16.07,1.41.08,3,.12.24,0,.29,0,.29-.23V344.8Zm5-3.12h-4.87a27.73,27.73,0,0,1-.12,2.83h5Zm0-3.1h-4.84c0,1,0,1,0,2.81h4.86Z" transform="translate(-675.2 -0.3)"/></g></g><g id="合体_5" data-name="合体 5"><path class="cls-3" d="M745.46,751.75h76.92V711.26H963.94v40.49h76.92l-147.7,23.71Z" transform="translate(-675.2 -0.3)"/><path class="cls-3" d="M750.26,752.13l142.9,22.94,142.9-22.94h-72.5V711.64H822.76v40.49h-72.5m-9.59-.76H822V710.88H964.32v40.49h81.33L893.16,775.85Z" transform="translate(-675.2 -0.3)"/></g><g id="施工後_2年_5ヶ月" data-name="施工後 2年 5ヶ月" class="cls-4"><g class="cls-4"><path class="cls-5" d="M840.78,747.92c.81.09.92.1,1,.1.31,0,.42,0,.51-.15s.39-1.11.51-2.79c.08-1.05.13-1.74.13-2.08v-.58h-.87a14.84,14.84,0,0,1-.72,3.87,9,9,0,0,1-2.21,3.4l-.13-.11a9.93,9.93,0,0,0,1.31-3.5,33.68,33.68,0,0,0,.4-5.34c0-.28,0-.28,0-.56h-.5a2.89,2.89,0,0,0-.51,0h-.23l-.11-.45a4.93,4.93,0,0,0,.85.11h.85v-1.72a7.73,7.73,0,0,0-.08-1c1.6.14,2.11.25,2.11.46s-.17.22-.54.34v1.9h.34c.31-.41.4-.54.72-.92.48.4.63.53,1.11,1l.07.1a14.09,14.09,0,0,0,.86-2.92c2,.45,2.19.5,2.19.69s-.13.22-.61.3a10.23,10.23,0,0,1-.92,1.43h3.27c.44-.49.57-.66,1-1.17.68.51.87.68,1.53,1.23.07.07.1.11.1.16s0,.07-.14.07h-6a9.76,9.76,0,0,1-2,2l.47.41c.1.1.12.14.12.2s0,.09-.38.34a38.41,38.41,0,0,1-.3,4.1c-.22,1.7-.45,2.16-1.12,2.48a2.81,2.81,0,0,1-1,.21c-.16,0-.19,0-.2-.24-.06-.8-.22-1-1-1.22Zm1.43-7.74c0,.92,0,1.18-.08,2h.81l.64-.73.4.32a7.77,7.77,0,0,0,.79-1.58l-.08,0Zm2.15,3.55c.26,0,.46-.07.68-.12l.36-.1v-1a9.44,9.44,0,0,0-.11-1.59c1.69.2,1.91.25,1.91.42s-.11.19-.48.37v1.46l.95-.25v-.19a19.63,19.63,0,0,0-.09-2.51c1.54.17,1.85.22,1.85.4s-.13.21-.49.34v1.63l.94-.25a8.19,8.19,0,0,1,.66-.89l1.1.6c.15.1.22.17.22.24a.31.31,0,0,1-.17.24l-.33.26c0,.1,0,.86-.05,1.59a5.75,5.75,0,0,1-.29,2,1.14,1.14,0,0,1-.59.45,2.18,2.18,0,0,1-.6.14c-.11,0-.15,0-.16-.15,0-.71-.18-.94-.7-1.09,0,.58,0,.62,0,1.22,0,.35,0,.36-1.08.42a.36.36,0,0,1-.26-.11s0-.1,0-.21c0-1.07,0-2.39,0-3.85l-.95.25,0,4.41c0,.22.08.31.33.31h2.82c.52,0,.76,0,.88-.17a10.65,10.65,0,0,0,1-2.36h.15l-.12,1.87v.22c0,.17,0,.17.28.31a.58.58,0,0,1,.34.55.78.78,0,0,1-.22.51c-.22.22-.67.27-2.19.31l-1,0h-.29c-.79,0-1.36,0-1.66,0-.77,0-1.19-.1-1.42-.36a1,1,0,0,1-.21-.71c0-1,0-1.71,0-3V743.8l-.29.07a2.29,2.29,0,0,0-.56.25Zm4.58-.87c0,1.41,0,1.41,0,2.72l.57,0c.25,0,.36-.14.38-.51s.06-1.69.08-1.94,0-.4,0-.56Z" transform="translate(-675.2 -0.3)"/><path class="cls-5" d="M860.25,748.22h2.85c.38-.47.77-.93,1.15-1.37.75.6,1,.79,1.71,1.41,0,0,.1.12.1.15s-.07.1-.18.1h-11.3a8.53,8.53,0,0,0-1.28.08l-.09-.51a7.3,7.3,0,0,0,1.37.14h4v-9.17h-3.39a6.06,6.06,0,0,0-1.08.07l-.09-.48a5.88,5.88,0,0,0,1.17.12h7.17l1.12-1.25c.73.56,1,.74,1.66,1.36a.18.18,0,0,1,.07.11s0,.07-.13.07h-4.86Z" transform="translate(-675.2 -0.3)"/><path class="cls-5" d="M868.46,743.94a14.18,14.18,0,0,1-1.71,1.22l-.11-.14a14.14,14.14,0,0,0,2-2.69,8.23,8.23,0,0,0,1-2.29c1.66.54,2,.66,2,.83s-.19.22-.63.25a11.86,11.86,0,0,1-1.37,1.76c.55.12.72.2.72.31s-.13.2-.44.29v2.66c0,.61,0,1.71,0,3.32,0,.17,0,.27-.11.33a2.17,2.17,0,0,1-1,.15c-.37,0-.45-.07-.45-.36.06-2.06.07-2.3.07-3.41Zm-1.71-2.85a11,11,0,0,0,1.89-2.4,5.4,5.4,0,0,0,.73-1.58c2,.63,2.16.7,2.16.88s-.18.21-.7.22a11.92,11.92,0,0,1-4,3Zm9.8-.11c1.82.77,2.85,1.53,2.85,2.14a1.83,1.83,0,0,1-.29.89.7.7,0,0,1-.56.35c-.17,0-.25-.09-.4-.45-.25-.58-.35-.8-.55-1.2-1.05.22-2.67.5-4,.69l.5.12c.59.13.69.17.69.27s-.15.17-.58.26c-.11.19-.14.26-.25.42h2.15c.34-.35.44-.45.8-.78.52.4.69.54,1.19,1,.11.1.17.17.17.22s-.15.21-.65.33a12.28,12.28,0,0,1-1.75,2,10,10,0,0,0,4,.8v.13a1.77,1.77,0,0,0-1,1.22c-.09.28-.11.31-.22.31a7.09,7.09,0,0,1-1.92-.64,6.85,6.85,0,0,1-1.69-1.16,12.08,12.08,0,0,1-2.18,1.21,13.32,13.32,0,0,1-2.61.74l-.07-.18a12.67,12.67,0,0,0,4.1-2.55,6.09,6.09,0,0,1-1-1.66,9.34,9.34,0,0,1-3,2.48l-.1-.14a10.63,10.63,0,0,0,1.94-2.52,10,10,0,0,0,.8-1.69l-1.57.25c0,.33-.14.51-.26.51s-.15,0-.46-1.85a11.29,11.29,0,0,0,1.33.07l1.38,0a12.2,12.2,0,0,0,1.48-1.72,14.12,14.12,0,0,0,1.61-2.47c.4.21.71.35.91.44.86.4,1.07.51,1.07.65s-.18.19-.7.19a29.39,29.39,0,0,1-3.65,2.89h.4c.69,0,1.78-.07,2.93-.15a5.23,5.23,0,0,0-.95-1.25Zm-5.21-2.12a12.13,12.13,0,0,1,1.61.66,8,8,0,0,0,.74-2.35l1,.27c1,.29,1.24.37,1.24.51s-.19.19-.67.23a12,12,0,0,1-1.78,1.61c.57.36.74.57.74.88,0,.53-.44,1.09-.84,1.09-.13,0-.22,0-.31-.23l-.24-.5a5.63,5.63,0,0,0-1.56-2Zm2.46,5.9c-.12.18-.18.25-.33.46a4.44,4.44,0,0,0,1.35,1.36,7.84,7.84,0,0,0,1.32-1.82Z" transform="translate(-675.2 -0.3)"/><path class="cls-5" d="M885.44,748.44a5.93,5.93,0,0,1,.92-2.69,12.57,12.57,0,0,1,2.72-2.75,4,4,0,0,0,1.15-1.27,2.84,2.84,0,0,0,.29-1.26c0-1.2-.65-2-1.63-2a1.24,1.24,0,0,0-1.28.92,3.82,3.82,0,0,0-.15,1.25c0,.54-.28.76-.88.76s-1-.24-1-.73a2.37,2.37,0,0,1,1.14-1.94,4,4,0,0,1,2.29-.62c2.08,0,3.32,1,3.32,2.54a2.57,2.57,0,0,1-.62,1.74,6,6,0,0,1-1.52,1.13,13.07,13.07,0,0,0-2.86,1.87,3.71,3.71,0,0,0-1.09,1.55h4c1.13,0,1.53-.35,1.78-1.59l.47.09-.48,3Z" transform="translate(-675.2 -0.3)"/><path class="cls-5" d="M901.56,742.17H903c.42-.46.56-.61,1-1.1.64.5.85.65,1.48,1.16a.41.41,0,0,1,.07.12c0,.06-.07.11-.14.11h-3.88v3.36h2.1l1.12-1.2c.68.54.89.71,1.53,1.27,0,.06.07.1.07.13s0,.09-.15.09h-4.67v1.21c0,.21,0,1.26,0,2.1,0,.23,0,.31-.17.37a3.57,3.57,0,0,1-.93.09c-.48,0-.56,0-.56-.26v-.07c0-1.57,0-1.83,0-2.14v-1.3h-5c-.19,0-.89.06-1.17.08l-.08-.48a8.22,8.22,0,0,0,1.25.11h.89V742.9c0-.75,0-1,0-1.73.8.43,1,.56,1.79,1H900v-2.65h-2.67a13.36,13.36,0,0,1-3.27,3.15l-.11-.14a14.09,14.09,0,0,0,1.9-3,11.71,11.71,0,0,0,.85-2.37,12.76,12.76,0,0,1,2.2.7.17.17,0,0,1,.07.14c0,.15-.09.19-.71.28a9.12,9.12,0,0,1-.72,1h5.8c.34-.39.7-.77,1-1.16.72.53.92.69,1.61,1.24a.24.24,0,0,1,.07.11c0,.06,0,.1-.14.1h-4.35Zm-4.07.29v3.36H900v-3.36Z" transform="translate(-675.2 -0.3)"/><path class="cls-5" d="M913.3,743.32A3.55,3.55,0,0,1,916,742.2a3,3,0,0,1,3.27,3.1c0,2.05-1.45,3.36-3.73,3.36-1.81,0-3.21-.87-3.21-2,0-.52.34-.8,1-.8a.87.87,0,0,1,.68.24c.1.11.13.22.14.62a1.65,1.65,0,0,0,.39,1.13,1.48,1.48,0,0,0,1.07.45,1.61,1.61,0,0,0,1.35-.7,4,4,0,0,0,.52-2.12c0-1.74-.71-2.74-1.95-2.74a2.75,2.75,0,0,0-2.31,1.5l-.46-.11.46-5.78h5.62l-.24,1.54h-5Z" transform="translate(-675.2 -0.3)"/><path class="cls-5" d="M921.22,745.79a11.69,11.69,0,0,0,1.58-2.29,7.09,7.09,0,0,0,1-2.4c0-.31-.24-.58-.69-.77a.76.76,0,0,1,.37-.1,2.72,2.72,0,0,1,1.21.39c.46.25.68.47.68.67s0,.21-.24.44l-.23.35c-.25.41-.45.71-.61.95a1.17,1.17,0,0,0,.51.09,10.8,10.8,0,0,0,2.59-.44,3.49,3.49,0,0,0,1.13-.39.81.81,0,0,1,.34-.1,2.08,2.08,0,0,1,.88.34c.25.17.32.28.32.5a.33.33,0,0,1-.29.34,3.58,3.58,0,0,1-.71.07c-.61,0-.83.06-1.24.11l-1,.11c.61.33.83.54.83.79a7.62,7.62,0,0,1-1.27,2.72,7.72,7.72,0,0,1-2.95,2.42l-.1-.13a9.37,9.37,0,0,0,2.08-2.7,7.18,7.18,0,0,0,.91-2.63.51.51,0,0,0-.16-.4l-.44.06-.63,0a1.09,1.09,0,0,1-1-.45,9,9,0,0,1-2.71,2.57Z" transform="translate(-675.2 -0.3)"/><path class="cls-5" d="M935.5,744.56a7.34,7.34,0,0,1-1.44,3.55,7.74,7.74,0,0,1-1.91,1.75l-.1-.11a8.4,8.4,0,0,0,1.72-3.86,24.69,24.69,0,0,0,.3-4.95c0-1.83,0-2.63-.08-3.83a20,20,0,0,1,1.91.94h4.53c.35-.4.44-.51.81-.9.55.37.71.5,1.23.87.14.11.19.18.19.25s-.12.22-.51.41v4.75c0,1.29,0,2.71.06,4.59a1.44,1.44,0,0,1-.18.9,2.16,2.16,0,0,1-1.46.7,2.41,2.41,0,0,1-.46.06c-.15,0-.17,0-.2-.25a1.09,1.09,0,0,0-.74-.92,9,9,0,0,0-1.89-.5v-.18c1.16.07,1.41.09,3,.13.24,0,.29,0,.29-.24v-3.16Zm5-3.13h-4.87a25,25,0,0,1-.13,2.84h5Zm0-3.1H935.7c0,1,0,1,0,2.81h4.86Z" transform="translate(-675.2 -0.3)"/></g></g></g></svg>